<?xml version="1.0" encoding="utf-8" standalone="no"?>
<!DOCTYPE svg PUBLIC "-//W3C//DTD SVG 1.1//EN"
  "http://www.w3.org/Graphics/SVG/1.1/DTD/svg11.dtd">
<svg xmlns:xlink="http://www.w3.org/1999/xlink" width="614.285pt" height="499.93pt" viewBox="0 0 614.285 499.93" xmlns="http://www.w3.org/2000/svg" version="1.1">
 <metadata>
  <rdf:RDF xmlns:dc="http://purl.org/dc/elements/1.1/" xmlns:cc="http://creativecommons.org/ns#" xmlns:rdf="http://www.w3.org/1999/02/22-rdf-syntax-ns#">
   <cc:Work>
    <dc:type rdf:resource="http://purl.org/dc/dcmitype/StillImage"/>
    <dc:date>2026-06-01T21:20:02.287825</dc:date>
    <dc:format>image/svg+xml</dc:format>
    <dc:creator>
     <cc:Agent>
      <dc:title>Matplotlib v3.9.4, https://matplotlib.org/</dc:title>
     </cc:Agent>
    </dc:creator>
   </cc:Work>
  </rdf:RDF>
 </metadata>
 <defs>
  <style type="text/css">*{stroke-linejoin: round; stroke-linecap: butt}</style>
 </defs>
 <g id="figure_1">
  <g id="patch_1">
   <path d="M 0 499.93 
L 614.285 499.93 
L 614.285 0 
L 0 0 
z
" style="fill: #ffffff"/>
  </g>
  <g id="axes_1">
   <g id="patch_2">
    <path d="M 41.885 457.92 
L 599.885 457.92 
L 599.885 14.4 
L 41.885 14.4 
z
" style="fill: #ffffff"/>
   </g>
   <g id="line2d_1">
    <path d="M 201.313571 457.92 
L 201.313571 312.192 
" clip-path="url(#pa4b30ab709)" style="fill: none; stroke-dasharray: 3.7,1.6; stroke-dashoffset: 0; stroke: #666666; stroke-opacity: 0.5"/>
   </g>
   <g id="line2d_2">
    <path d="M 41.885 312.192 
L 201.313571 312.192 
" clip-path="url(#pa4b30ab709)" style="fill: none; stroke-dasharray: 3.7,1.6; stroke-dashoffset: 0; stroke: #666666; stroke-opacity: 0.5"/>
   </g>
   <g id="line2d_3">
    <path d="M 289.885 457.92 
L 289.885 255.872 
" clip-path="url(#pa4b30ab709)" style="fill: none; stroke-dasharray: 3.7,1.6; stroke-dashoffset: 0; stroke: #666666; stroke-opacity: 0.5"/>
   </g>
   <g id="line2d_4">
    <path d="M 41.885 255.872 
L 289.885 255.872 
" clip-path="url(#pa4b30ab709)" style="fill: none; stroke-dasharray: 3.7,1.6; stroke-dashoffset: 0; stroke: #666666; stroke-opacity: 0.5"/>
   </g>
   <g id="PolyCollection_1">
    <defs>
     <path id="m3cd7d9881a" d="M 201.313571 -187.738 
L 201.313571 -314.458 
L 202.208232 -313.746889 
L 203.102893 -313.035778 
L 203.997554 -312.324667 
L 204.892215 -311.613556 
L 205.786876 -310.902444 
L 206.681537 -310.191333 
L 207.576198 -309.480222 
L 208.470859 -308.769111 
L 209.365519 -308.058 
L 210.26018 -307.346889 
L 211.154841 -306.635778 
L 212.049502 -305.924667 
L 212.944163 -305.213556 
L 213.838824 -304.502444 
L 214.733485 -303.791333 
L 215.628146 -303.080222 
L 216.522807 -302.369111 
L 217.417468 -301.658 
L 218.312128 -300.946889 
L 219.206789 -300.235778 
L 220.10145 -299.524667 
L 220.996111 -298.813556 
L 221.890772 -298.102444 
L 222.785433 -297.391333 
L 223.680094 -296.680222 
L 224.574755 -295.969111 
L 225.469416 -295.258 
L 226.364076 -294.546889 
L 227.258737 -293.835778 
L 228.153398 -293.124667 
L 229.048059 -292.413556 
L 229.94272 -291.702444 
L 230.837381 -290.991333 
L 231.732042 -290.280222 
L 232.626703 -289.569111 
L 233.521364 -288.858 
L 234.416025 -288.146889 
L 235.310685 -287.435778 
L 236.205346 -286.724667 
L 237.100007 -286.013556 
L 237.994668 -285.302444 
L 238.889329 -284.591333 
L 239.78399 -283.880222 
L 240.678651 -283.169111 
L 241.573312 -282.458 
L 242.467973 -281.746889 
L 243.362633 -281.035778 
L 244.257294 -280.324667 
L 245.151955 -279.613556 
L 246.046616 -278.902444 
L 246.941277 -278.191333 
L 247.835938 -277.480222 
L 248.730599 -276.769111 
L 249.62526 -276.058 
L 250.519921 -275.346889 
L 251.414582 -274.635778 
L 252.309242 -273.924667 
L 253.203903 -273.213556 
L 254.098564 -272.502444 
L 254.993225 -271.791333 
L 255.887886 -271.080222 
L 256.782547 -270.369111 
L 257.677208 -269.658 
L 258.571869 -268.946889 
L 259.46653 -268.235778 
L 260.36119 -267.524667 
L 261.255851 -266.813556 
L 262.150512 -266.102444 
L 263.045173 -265.391333 
L 263.939834 -264.680222 
L 264.834495 -263.969111 
L 265.729156 -263.258 
L 266.623817 -262.546889 
L 267.518478 -261.835778 
L 268.413139 -261.124667 
L 269.307799 -260.413556 
L 270.20246 -259.702444 
L 271.097121 -258.991333 
L 271.991782 -258.280222 
L 272.886443 -257.569111 
L 273.781104 -256.858 
L 274.675765 -256.146889 
L 275.570426 -255.435778 
L 276.465087 -254.724667 
L 277.359747 -254.013556 
L 278.254408 -253.302444 
L 279.149069 -252.591333 
L 280.04373 -251.880222 
L 280.938391 -251.169111 
L 281.833052 -250.458 
L 282.727713 -249.746889 
L 283.622374 -249.035778 
L 284.517035 -248.324667 
L 285.411696 -247.613556 
L 286.306356 -246.902444 
L 287.201017 -246.191333 
L 288.095678 -245.480222 
L 288.990339 -244.769111 
L 289.885 -244.058 
L 289.885 -244.058 
L 289.885 -244.058 
L 288.990339 -243.489111 
L 288.095678 -242.920222 
L 287.201017 -242.351333 
L 286.306356 -241.782444 
L 285.411696 -241.213556 
L 284.517035 -240.644667 
L 283.622374 -240.075778 
L 282.727713 -239.506889 
L 281.833052 -238.938 
L 280.938391 -238.369111 
L 280.04373 -237.800222 
L 279.149069 -237.231333 
L 278.254408 -236.662444 
L 277.359747 -236.093556 
L 276.465087 -235.524667 
L 275.570426 -234.955778 
L 274.675765 -234.386889 
L 273.781104 -233.818 
L 272.886443 -233.249111 
L 271.991782 -232.680222 
L 271.097121 -232.111333 
L 270.20246 -231.542444 
L 269.307799 -230.973556 
L 268.413139 -230.404667 
L 267.518478 -229.835778 
L 266.623817 -229.266889 
L 265.729156 -228.698 
L 264.834495 -228.129111 
L 263.939834 -227.560222 
L 263.045173 -226.991333 
L 262.150512 -226.422444 
L 261.255851 -225.853556 
L 260.36119 -225.284667 
L 259.46653 -224.715778 
L 258.571869 -224.146889 
L 257.677208 -223.578 
L 256.782547 -223.009111 
L 255.887886 -222.440222 
L 254.993225 -221.871333 
L 254.098564 -221.302444 
L 253.203903 -220.733556 
L 252.309242 -220.164667 
L 251.414582 -219.595778 
L 250.519921 -219.026889 
L 249.62526 -218.458 
L 248.730599 -217.889111 
L 247.835938 -217.320222 
L 246.941277 -216.751333 
L 246.046616 -216.182444 
L 245.151955 -215.613556 
L 244.257294 -215.044667 
L 243.362633 -214.475778 
L 242.467973 -213.906889 
L 241.573312 -213.338 
L 240.678651 -212.769111 
L 239.78399 -212.200222 
L 238.889329 -211.631333 
L 237.994668 -211.062444 
L 237.100007 -210.493556 
L 236.205346 -209.924667 
L 235.310685 -209.355778 
L 234.416025 -208.786889 
L 233.521364 -208.218 
L 232.626703 -207.649111 
L 231.732042 -207.080222 
L 230.837381 -206.511333 
L 229.94272 -205.942444 
L 229.048059 -205.373556 
L 228.153398 -204.804667 
L 227.258737 -204.235778 
L 226.364076 -203.666889 
L 225.469416 -203.098 
L 224.574755 -202.529111 
L 223.680094 -201.960222 
L 222.785433 -201.391333 
L 221.890772 -200.822444 
L 220.996111 -200.253556 
L 220.10145 -199.684667 
L 219.206789 -199.115778 
L 218.312128 -198.546889 
L 217.417468 -197.978 
L 216.522807 -197.409111 
L 215.628146 -196.840222 
L 214.733485 -196.271333 
L 213.838824 -195.702444 
L 212.944163 -195.133556 
L 212.049502 -194.564667 
L 211.154841 -193.995778 
L 210.26018 -193.426889 
L 209.365519 -192.858 
L 208.470859 -192.289111 
L 207.576198 -191.720222 
L 206.681537 -191.151333 
L 205.786876 -190.582444 
L 204.892215 -190.013556 
L 203.997554 -189.444667 
L 203.102893 -188.875778 
L 202.208232 -188.306889 
L 201.313571 -187.738 
z
" style="stroke: #f1948a; stroke-opacity: 0.2"/>
    </defs>
    <g clip-path="url(#pa4b30ab709)">
     <use xlink:href="#m3cd7d9881a" x="0" y="499.93" style="fill: #f1948a; fill-opacity: 0.2; stroke: #f1948a; stroke-opacity: 0.2"/>
    </g>
   </g>
   <g id="matplotlib.axis_1">
    <g id="xtick_1"/>
    <g id="xtick_2"/>
    <g id="xtick_3"/>
    <g id="xtick_4"/>
    <g id="xtick_5"/>
    <g id="xtick_6"/>
    <g id="text_1">
     <!-- Quantity -->
     <g transform="translate(281.69 482.0775) scale(0.16 -0.16)">
      <defs>
       <path id="DejaVuSans-Bold-51" d="M 2847 -84 
L 2753 -84 
Q 1600 -84 959 553 
Q 319 1191 319 2328 
Q 319 3463 958 4106 
Q 1597 4750 2719 4750 
Q 3853 4750 4486 4112 
Q 5119 3475 5119 2328 
Q 5119 1541 4783 972 
Q 4447 403 3816 116 
L 4756 -934 
L 3609 -934 
L 2847 -84 
z
M 2719 3878 
Q 2169 3878 1866 3472 
Q 1563 3066 1563 2328 
Q 1563 1578 1859 1179 
Q 2156 781 2719 781 
Q 3272 781 3575 1187 
Q 3878 1594 3878 2328 
Q 3878 3066 3575 3472 
Q 3272 3878 2719 3878 
z
" transform="scale(0.015625)"/>
       <path id="DejaVuSans-Bold-75" d="M 500 1363 
L 500 3500 
L 1625 3500 
L 1625 3150 
Q 1625 2866 1622 2436 
Q 1619 2006 1619 1863 
Q 1619 1441 1641 1255 
Q 1663 1069 1716 984 
Q 1784 875 1895 815 
Q 2006 756 2150 756 
Q 2500 756 2700 1025 
Q 2900 1294 2900 1772 
L 2900 3500 
L 4019 3500 
L 4019 0 
L 2900 0 
L 2900 506 
Q 2647 200 2364 54 
Q 2081 -91 1741 -91 
Q 1134 -91 817 281 
Q 500 653 500 1363 
z
" transform="scale(0.015625)"/>
       <path id="DejaVuSans-Bold-61" d="M 2106 1575 
Q 1756 1575 1579 1456 
Q 1403 1338 1403 1106 
Q 1403 894 1545 773 
Q 1688 653 1941 653 
Q 2256 653 2472 879 
Q 2688 1106 2688 1447 
L 2688 1575 
L 2106 1575 
z
M 3816 1997 
L 3816 0 
L 2688 0 
L 2688 519 
Q 2463 200 2181 54 
Q 1900 -91 1497 -91 
Q 953 -91 614 226 
Q 275 544 275 1050 
Q 275 1666 698 1953 
Q 1122 2241 2028 2241 
L 2688 2241 
L 2688 2328 
Q 2688 2594 2478 2717 
Q 2269 2841 1825 2841 
Q 1466 2841 1156 2769 
Q 847 2697 581 2553 
L 581 3406 
Q 941 3494 1303 3539 
Q 1666 3584 2028 3584 
Q 2975 3584 3395 3211 
Q 3816 2838 3816 1997 
z
" transform="scale(0.015625)"/>
       <path id="DejaVuSans-Bold-6e" d="M 4056 2131 
L 4056 0 
L 2931 0 
L 2931 347 
L 2931 1631 
Q 2931 2084 2911 2256 
Q 2891 2428 2841 2509 
Q 2775 2619 2662 2680 
Q 2550 2741 2406 2741 
Q 2056 2741 1856 2470 
Q 1656 2200 1656 1722 
L 1656 0 
L 538 0 
L 538 3500 
L 1656 3500 
L 1656 2988 
Q 1909 3294 2193 3439 
Q 2478 3584 2822 3584 
Q 3428 3584 3742 3212 
Q 4056 2841 4056 2131 
z
" transform="scale(0.015625)"/>
       <path id="DejaVuSans-Bold-74" d="M 1759 4494 
L 1759 3500 
L 2913 3500 
L 2913 2700 
L 1759 2700 
L 1759 1216 
Q 1759 972 1856 886 
Q 1953 800 2241 800 
L 2816 800 
L 2816 0 
L 1856 0 
Q 1194 0 917 276 
Q 641 553 641 1216 
L 641 2700 
L 84 2700 
L 84 3500 
L 641 3500 
L 641 4494 
L 1759 4494 
z
" transform="scale(0.015625)"/>
       <path id="DejaVuSans-Bold-69" d="M 538 3500 
L 1656 3500 
L 1656 0 
L 538 0 
L 538 3500 
z
M 538 4863 
L 1656 4863 
L 1656 3950 
L 538 3950 
L 538 4863 
z
" transform="scale(0.015625)"/>
       <path id="DejaVuSans-Bold-79" d="M 78 3500 
L 1197 3500 
L 2138 1125 
L 2938 3500 
L 4056 3500 
L 2584 -331 
Q 2363 -916 2067 -1148 
Q 1772 -1381 1288 -1381 
L 641 -1381 
L 641 -647 
L 991 -647 
Q 1275 -647 1404 -556 
Q 1534 -466 1606 -231 
L 1638 -134 
L 78 3500 
z
" transform="scale(0.015625)"/>
      </defs>
      <use xlink:href="#DejaVuSans-Bold-51"/>
      <use xlink:href="#DejaVuSans-Bold-75" x="85.009766"/>
      <use xlink:href="#DejaVuSans-Bold-61" x="156.201172"/>
      <use xlink:href="#DejaVuSans-Bold-6e" x="223.681641"/>
      <use xlink:href="#DejaVuSans-Bold-74" x="294.873047"/>
      <use xlink:href="#DejaVuSans-Bold-69" x="342.675781"/>
      <use xlink:href="#DejaVuSans-Bold-74" x="376.953125"/>
      <use xlink:href="#DejaVuSans-Bold-79" x="424.755859"/>
     </g>
    </g>
   </g>
   <g id="matplotlib.axis_2">
    <g id="ytick_1"/>
    <g id="ytick_2"/>
    <g id="ytick_3"/>
    <g id="ytick_4"/>
    <g id="ytick_5"/>
    <g id="ytick_6"/>
    <g id="text_2">
     <!-- Price/Cost -->
     <g transform="translate(26.5575 281.755) rotate(-90) scale(0.16 -0.16)">
      <defs>
       <path id="DejaVuSans-Bold-50" d="M 588 4666 
L 2584 4666 
Q 3475 4666 3951 4270 
Q 4428 3875 4428 3144 
Q 4428 2409 3951 2014 
Q 3475 1619 2584 1619 
L 1791 1619 
L 1791 0 
L 588 0 
L 588 4666 
z
M 1791 3794 
L 1791 2491 
L 2456 2491 
Q 2806 2491 2997 2661 
Q 3188 2831 3188 3144 
Q 3188 3456 2997 3625 
Q 2806 3794 2456 3794 
L 1791 3794 
z
" transform="scale(0.015625)"/>
       <path id="DejaVuSans-Bold-72" d="M 3138 2547 
Q 2991 2616 2845 2648 
Q 2700 2681 2553 2681 
Q 2122 2681 1889 2404 
Q 1656 2128 1656 1613 
L 1656 0 
L 538 0 
L 538 3500 
L 1656 3500 
L 1656 2925 
Q 1872 3269 2151 3426 
Q 2431 3584 2822 3584 
Q 2878 3584 2943 3579 
Q 3009 3575 3134 3559 
L 3138 2547 
z
" transform="scale(0.015625)"/>
       <path id="DejaVuSans-Bold-63" d="M 3366 3391 
L 3366 2478 
Q 3138 2634 2908 2709 
Q 2678 2784 2431 2784 
Q 1963 2784 1702 2511 
Q 1441 2238 1441 1747 
Q 1441 1256 1702 982 
Q 1963 709 2431 709 
Q 2694 709 2930 787 
Q 3166 866 3366 1019 
L 3366 103 
Q 3103 6 2833 -42 
Q 2563 -91 2291 -91 
Q 1344 -91 809 395 
Q 275 881 275 1747 
Q 275 2613 809 3098 
Q 1344 3584 2291 3584 
Q 2566 3584 2833 3536 
Q 3100 3488 3366 3391 
z
" transform="scale(0.015625)"/>
       <path id="DejaVuSans-Bold-65" d="M 4031 1759 
L 4031 1441 
L 1416 1441 
Q 1456 1047 1700 850 
Q 1944 653 2381 653 
Q 2734 653 3104 758 
Q 3475 863 3866 1075 
L 3866 213 
Q 3469 63 3072 -14 
Q 2675 -91 2278 -91 
Q 1328 -91 801 392 
Q 275 875 275 1747 
Q 275 2603 792 3093 
Q 1309 3584 2216 3584 
Q 3041 3584 3536 3087 
Q 4031 2591 4031 1759 
z
M 2881 2131 
Q 2881 2450 2695 2645 
Q 2509 2841 2209 2841 
Q 1884 2841 1681 2658 
Q 1478 2475 1428 2131 
L 2881 2131 
z
" transform="scale(0.015625)"/>
       <path id="DejaVuSans-Bold-2f" d="M 1644 4666 
L 2338 4666 
L 691 -594 
L 0 -594 
L 1644 4666 
z
" transform="scale(0.015625)"/>
       <path id="DejaVuSans-Bold-43" d="M 4288 256 
Q 3956 84 3597 -3 
Q 3238 -91 2847 -91 
Q 1681 -91 1000 561 
Q 319 1213 319 2328 
Q 319 3447 1000 4098 
Q 1681 4750 2847 4750 
Q 3238 4750 3597 4662 
Q 3956 4575 4288 4403 
L 4288 3438 
Q 3953 3666 3628 3772 
Q 3303 3878 2944 3878 
Q 2300 3878 1931 3465 
Q 1563 3053 1563 2328 
Q 1563 1606 1931 1193 
Q 2300 781 2944 781 
Q 3303 781 3628 887 
Q 3953 994 4288 1222 
L 4288 256 
z
" transform="scale(0.015625)"/>
       <path id="DejaVuSans-Bold-6f" d="M 2203 2784 
Q 1831 2784 1636 2517 
Q 1441 2250 1441 1747 
Q 1441 1244 1636 976 
Q 1831 709 2203 709 
Q 2569 709 2762 976 
Q 2956 1244 2956 1747 
Q 2956 2250 2762 2517 
Q 2569 2784 2203 2784 
z
M 2203 3584 
Q 3106 3584 3614 3096 
Q 4122 2609 4122 1747 
Q 4122 884 3614 396 
Q 3106 -91 2203 -91 
Q 1297 -91 786 396 
Q 275 884 275 1747 
Q 275 2609 786 3096 
Q 1297 3584 2203 3584 
z
" transform="scale(0.015625)"/>
       <path id="DejaVuSans-Bold-73" d="M 3272 3391 
L 3272 2541 
Q 2913 2691 2578 2766 
Q 2244 2841 1947 2841 
Q 1628 2841 1473 2761 
Q 1319 2681 1319 2516 
Q 1319 2381 1436 2309 
Q 1553 2238 1856 2203 
L 2053 2175 
Q 2913 2066 3209 1816 
Q 3506 1566 3506 1031 
Q 3506 472 3093 190 
Q 2681 -91 1863 -91 
Q 1516 -91 1145 -36 
Q 775 19 384 128 
L 384 978 
Q 719 816 1070 734 
Q 1422 653 1784 653 
Q 2113 653 2278 743 
Q 2444 834 2444 1013 
Q 2444 1163 2330 1236 
Q 2216 1309 1875 1350 
L 1678 1375 
Q 931 1469 631 1722 
Q 331 1975 331 2491 
Q 331 3047 712 3315 
Q 1094 3584 1881 3584 
Q 2191 3584 2531 3537 
Q 2872 3491 3272 3391 
z
" transform="scale(0.015625)"/>
      </defs>
      <use xlink:href="#DejaVuSans-Bold-50"/>
      <use xlink:href="#DejaVuSans-Bold-72" x="73.291016"/>
      <use xlink:href="#DejaVuSans-Bold-69" x="122.607422"/>
      <use xlink:href="#DejaVuSans-Bold-63" x="156.884766"/>
      <use xlink:href="#DejaVuSans-Bold-65" x="216.162109"/>
      <use xlink:href="#DejaVuSans-Bold-2f" x="283.984375"/>
      <use xlink:href="#DejaVuSans-Bold-43" x="320.507812"/>
      <use xlink:href="#DejaVuSans-Bold-6f" x="393.896484"/>
      <use xlink:href="#DejaVuSans-Bold-73" x="462.597656"/>
      <use xlink:href="#DejaVuSans-Bold-74" x="522.119141"/>
     </g>
    </g>
   </g>
   <g id="line2d_5">
    <path d="M 41.885 58.752 
L 543.804598 457.697126 
L 543.804598 457.697126 
" clip-path="url(#pa4b30ab709)" style="fill: none; stroke: #2b5b84; stroke-width: 2; stroke-linecap: square"/>
   </g>
   <g id="line2d_6">
    <path d="M 41.885 58.752 
L 44.68902 63.209487 
L 47.49304 67.666975 
L 50.29706 72.124462 
L 53.10108 76.58195 
L 55.905101 81.039437 
L 58.709121 85.496925 
L 61.513141 89.954412 
L 64.317161 94.411899 
L 67.121181 98.869387 
L 69.925201 103.326874 
L 72.729221 107.784362 
L 75.533241 112.241849 
L 78.337261 116.699337 
L 81.141281 121.156824 
L 83.945302 125.614312 
L 86.749322 130.071799 
L 89.553342 134.529286 
L 92.357362 138.986774 
L 95.161382 143.444261 
L 97.965402 147.901749 
L 100.769422 152.359236 
L 103.573442 156.816724 
L 106.377462 161.274211 
L 109.181482 165.731698 
L 111.985503 170.189186 
L 114.789523 174.646673 
L 117.593543 179.104161 
L 120.397563 183.561648 
L 123.201583 188.019136 
L 126.005603 192.476623 
L 128.809623 196.934111 
L 131.613643 201.391598 
L 134.417663 205.849085 
L 137.221683 210.306573 
L 140.025704 214.76406 
L 142.829724 219.221548 
L 145.633744 223.679035 
L 148.437764 228.136523 
L 151.241784 232.59401 
L 154.045804 237.051497 
L 156.849824 241.508985 
L 159.653844 245.966472 
L 162.457864 250.42396 
L 165.261884 254.881447 
L 168.065905 259.338935 
L 170.869925 263.796422 
L 173.673945 268.25391 
L 176.477965 272.711397 
L 179.281985 277.168884 
L 182.086005 281.626372 
L 184.890025 286.083859 
L 187.694045 290.541347 
L 190.498065 294.998834 
L 193.302085 299.456322 
L 196.106106 303.913809 
L 198.910126 308.371296 
L 201.714146 312.828784 
L 204.518166 317.286271 
L 207.322186 321.743759 
L 210.126206 326.201246 
L 212.930226 330.658734 
L 215.734246 335.116221 
L 218.538266 339.573709 
L 221.342286 344.031196 
L 224.146307 348.488683 
L 226.950327 352.946171 
L 229.754347 357.403658 
L 232.558367 361.861146 
L 235.362387 366.318633 
L 238.166407 370.776121 
L 240.970427 375.233608 
L 243.774447 379.691095 
L 246.578467 384.148583 
L 249.382487 388.60607 
L 252.186508 393.063558 
L 254.990528 397.521045 
L 257.794548 401.978533 
L 260.598568 406.43602 
L 263.402588 410.893508 
L 266.206608 415.350995 
L 269.010628 419.808482 
L 271.814648 424.26597 
L 274.618668 428.723457 
L 277.422688 433.180945 
L 280.226709 437.638432 
L 283.030729 442.09592 
L 285.834749 446.553407 
L 288.638769 451.010894 
L 291.442789 455.468382 
" clip-path="url(#pa4b30ab709)" style="fill: none; stroke-dasharray: 7.4,3.2; stroke-dashoffset: 0; stroke: #4c9bcf; stroke-width: 2"/>
   </g>
   <g id="line2d_7">
    <path d="M 41.885 413.568 
L 599.885 58.752 
L 599.885 58.752 
" clip-path="url(#pa4b30ab709)" style="fill: none; stroke: #c44e52; stroke-width: 2; stroke-linecap: square"/>
   </g>
   <g id="patch_3">
    <path d="M 41.885 457.92 
L 41.885 14.4 
" style="fill: none; stroke: #000000; stroke-width: 0.8; stroke-linejoin: miter; stroke-linecap: square"/>
   </g>
   <g id="patch_4">
    <path d="M 41.885 457.92 
L 599.885 457.92 
" style="fill: none; stroke: #000000; stroke-width: 0.8; stroke-linejoin: miter; stroke-linecap: square"/>
   </g>
   <g id="text_3">
    <g id="patch_5">
     <path d="M 400.387513 333.998559 
L 442.143919 333.998559 
Q 444.093919 333.998559 444.093919 332.048559 
L 444.093919 319.466996 
Q 444.093919 317.516996 442.143919 317.516996 
L 400.387513 317.516996 
Q 398.437513 317.516996 398.437513 319.466996 
L 398.437513 332.048559 
Q 398.437513 333.998559 400.387513 333.998559 
z
" style="fill: #ffffff; opacity: 0.9; stroke: #2b5b84; stroke-width: 0.8; stroke-linejoin: miter"/>
    </g>
    <!-- D=AR -->
    <g style="fill: #2b5b84" transform="translate(400.387513 329.344965) scale(0.13 -0.13)">
     <defs>
      <path id="DejaVuSans-Bold-44" d="M 1791 3756 
L 1791 909 
L 2222 909 
Q 2959 909 3348 1275 
Q 3738 1641 3738 2338 
Q 3738 3031 3350 3393 
Q 2963 3756 2222 3756 
L 1791 3756 
z
M 588 4666 
L 1856 4666 
Q 2919 4666 3439 4514 
Q 3959 4363 4331 4000 
Q 4659 3684 4818 3271 
Q 4978 2859 4978 2338 
Q 4978 1809 4818 1395 
Q 4659 981 4331 666 
Q 3956 303 3431 151 
Q 2906 0 1856 0 
L 588 0 
L 588 4666 
z
" transform="scale(0.015625)"/>
      <path id="DejaVuSans-Bold-3d" d="M 678 3084 
L 4684 3084 
L 4684 2350 
L 678 2350 
L 678 3084 
z
M 678 1663 
L 4684 1663 
L 4684 922 
L 678 922 
L 678 1663 
z
" transform="scale(0.015625)"/>
      <path id="DejaVuSans-Bold-41" d="M 3419 850 
L 1538 850 
L 1241 0 
L 31 0 
L 1759 4666 
L 3194 4666 
L 4922 0 
L 3713 0 
L 3419 850 
z
M 1838 1716 
L 3116 1716 
L 2478 3572 
L 1838 1716 
z
" transform="scale(0.015625)"/>
      <path id="DejaVuSans-Bold-52" d="M 2297 2597 
Q 2675 2597 2839 2737 
Q 3003 2878 3003 3200 
Q 3003 3519 2839 3656 
Q 2675 3794 2297 3794 
L 1791 3794 
L 1791 2597 
L 2297 2597 
z
M 1791 1766 
L 1791 0 
L 588 0 
L 588 4666 
L 2425 4666 
Q 3347 4666 3776 4356 
Q 4206 4047 4206 3378 
Q 4206 2916 3982 2619 
Q 3759 2322 3309 2181 
Q 3556 2125 3751 1926 
Q 3947 1728 4147 1325 
L 4800 0 
L 3519 0 
L 2950 1159 
Q 2778 1509 2601 1637 
Q 2425 1766 2131 1766 
L 1791 1766 
z
" transform="scale(0.015625)"/>
     </defs>
     <use xlink:href="#DejaVuSans-Bold-44"/>
     <use xlink:href="#DejaVuSans-Bold-3d" x="83.007812"/>
     <use xlink:href="#DejaVuSans-Bold-41" x="166.796875"/>
     <use xlink:href="#DejaVuSans-Bold-52" x="244.189453"/>
    </g>
   </g>
   <g id="text_4">
    <g id="patch_6">
     <path d="M 223.734246 331.769815 
L 246.681277 331.769815 
Q 248.631277 331.769815 248.631277 329.819815 
L 248.631277 317.238252 
Q 248.631277 315.288252 246.681277 315.288252 
L 223.734246 315.288252 
Q 221.784246 315.288252 221.784246 317.238252 
L 221.784246 329.819815 
Q 221.784246 331.769815 223.734246 331.769815 
z
" style="fill: #ffffff; opacity: 0.9; stroke: #4c9bcf; stroke-width: 0.8; stroke-linejoin: miter"/>
    </g>
    <!-- MR -->
    <g style="fill: #4c9bcf" transform="translate(223.734246 327.116221) scale(0.13 -0.13)">
     <defs>
      <path id="DejaVuSans-Bold-4d" d="M 588 4666 
L 2119 4666 
L 3181 2169 
L 4250 4666 
L 5778 4666 
L 5778 0 
L 4641 0 
L 4641 3413 
L 3566 897 
L 2803 897 
L 1728 3413 
L 1728 0 
L 588 0 
L 588 4666 
z
" transform="scale(0.015625)"/>
     </defs>
     <use xlink:href="#DejaVuSans-Bold-4d"/>
     <use xlink:href="#DejaVuSans-Bold-52" x="99.511719"/>
    </g>
   </g>
   <g id="text_5">
    <g id="patch_7">
     <path d="M 442.447814 160.602297 
L 464.925627 160.602297 
Q 466.875627 160.602297 466.875627 158.652297 
L 466.875627 146.070735 
Q 466.875627 144.120735 464.925627 144.120735 
L 442.447814 144.120735 
Q 440.497814 144.120735 440.497814 146.070735 
L 440.497814 158.652297 
Q 440.497814 160.602297 442.447814 160.602297 
z
" style="fill: #ffffff; opacity: 0.9; stroke: #c44e52; stroke-width: 0.8; stroke-linejoin: miter"/>
    </g>
    <!-- MC -->
    <g style="fill: #c44e52" transform="translate(442.447814 155.948704) scale(0.13 -0.13)">
     <use xlink:href="#DejaVuSans-Bold-4d"/>
     <use xlink:href="#DejaVuSans-Bold-43" x="99.511719"/>
    </g>
   </g>
   <g id="text_6">
    <g id="patch_8">
     <path d="M 211.313571 333.603562 
L 271.964196 333.603562 
Q 275.464196 333.603562 275.464196 330.103562 
L 275.464196 316.554187 
Q 275.464196 313.054187 271.964196 313.054187 
L 211.313571 313.054187 
Q 207.813571 313.054187 207.813571 316.554187 
L 207.813571 330.103562 
Q 207.813571 333.603562 211.313571 333.603562 
z
" style="fill: #ffffff; opacity: 0.9; stroke: #999999; stroke-width: 0.5; stroke-linejoin: miter"/>
    </g>
    <!-- MC=MR -->
    <g transform="translate(211.313571 327.192) scale(0.14 -0.14)">
     <use xlink:href="#DejaVuSans-Bold-4d"/>
     <use xlink:href="#DejaVuSans-Bold-43" x="99.511719"/>
     <use xlink:href="#DejaVuSans-Bold-3d" x="172.900391"/>
     <use xlink:href="#DejaVuSans-Bold-4d" x="256.689453"/>
     <use xlink:href="#DejaVuSans-Bold-52" x="356.201172"/>
    </g>
   </g>
   <g id="text_7">
    <g id="patch_9">
     <path d="M 299.885 252.283562 
L 346.085 252.283562 
Q 349.585 252.283562 349.585 248.783562 
L 349.585 235.234187 
Q 349.585 231.734187 346.085 231.734187 
L 299.885 231.734187 
Q 296.385 231.734187 296.385 235.234187 
L 296.385 248.783562 
Q 296.385 252.283562 299.885 252.283562 
z
" style="fill: #ffffff; opacity: 0.9; stroke: #999999; stroke-width: 0.5; stroke-linejoin: miter"/>
    </g>
    <!-- P=MC -->
    <g transform="translate(299.885 245.872) scale(0.14 -0.14)">
     <use xlink:href="#DejaVuSans-Bold-50"/>
     <use xlink:href="#DejaVuSans-Bold-3d" x="73.291016"/>
     <use xlink:href="#DejaVuSans-Bold-4d" x="157.080078"/>
     <use xlink:href="#DejaVuSans-Bold-43" x="256.591797"/>
    </g>
   </g>
   <g id="text_8">
    <!-- DWL -->
    <g style="fill: #f1948a; opacity: 0.8" transform="translate(241.073438 216.743375) scale(0.1 -0.1)">
     <defs>
      <path id="DejaVuSans-Bold-57" d="M 191 4666 
L 1344 4666 
L 2150 1275 
L 2950 4666 
L 4109 4666 
L 4909 1275 
L 5716 4666 
L 6859 4666 
L 5759 0 
L 4372 0 
L 3525 3547 
L 2688 0 
L 1300 0 
L 191 4666 
z
" transform="scale(0.015625)"/>
      <path id="DejaVuSans-Bold-4c" d="M 588 4666 
L 1791 4666 
L 1791 909 
L 3903 909 
L 3903 0 
L 588 0 
L 588 4666 
z
" transform="scale(0.015625)"/>
     </defs>
     <use xlink:href="#DejaVuSans-Bold-44"/>
     <use xlink:href="#DejaVuSans-Bold-57" x="83.007812"/>
     <use xlink:href="#DejaVuSans-Bold-4c" x="193.310547"/>
    </g>
   </g>
   <g id="line2d_8">
    <defs>
     <path id="m0ac8bdef59" d="M 0 5 
C 1.326016 5 2.597899 4.473168 3.535534 3.535534 
C 4.473168 2.597899 5 1.326016 5 0 
C 5 -1.326016 4.473168 -2.597899 3.535534 -3.535534 
C 2.597899 -4.473168 1.326016 -5 0 -5 
C -1.326016 -5 -2.597899 -4.473168 -3.535534 -3.535534 
C -4.473168 -2.597899 -5 -1.326016 -5 0 
C -5 1.326016 -4.473168 2.597899 -3.535534 3.535534 
C -2.597899 4.473168 -1.326016 5 0 5 
z
" style="stroke: #ffffff; stroke-width: 2"/>
    </defs>
    <g clip-path="url(#pa4b30ab709)">
     <use xlink:href="#m0ac8bdef59" x="201.313571" y="312.192" style="fill: #1a1a1a; stroke: #ffffff; stroke-width: 2"/>
    </g>
   </g>
   <g id="line2d_9">
    <g clip-path="url(#pa4b30ab709)">
     <use xlink:href="#m0ac8bdef59" x="289.885" y="255.872" style="fill: #1a1a1a; stroke: #ffffff; stroke-width: 2"/>
    </g>
   </g>
  </g>
 </g>
 <defs>
  <clipPath id="pa4b30ab709">
   <rect x="41.885" y="14.4" width="558" height="443.52"/>
  </clipPath>
 </defs>
</svg>
