<?xml version="1.0" encoding="utf-8" standalone="no"?>
<!DOCTYPE svg PUBLIC "-//W3C//DTD SVG 1.1//EN"
  "http://www.w3.org/Graphics/SVG/1.1/DTD/svg11.dtd">
<svg xmlns:xlink="http://www.w3.org/1999/xlink" width="614.285pt" height="499.805pt" viewBox="0 0 614.285 499.805" xmlns="http://www.w3.org/2000/svg" version="1.1">
 <metadata>
  <rdf:RDF xmlns:dc="http://purl.org/dc/elements/1.1/" xmlns:cc="http://creativecommons.org/ns#" xmlns:rdf="http://www.w3.org/1999/02/22-rdf-syntax-ns#">
   <cc:Work>
    <dc:type rdf:resource="http://purl.org/dc/dcmitype/StillImage"/>
    <dc:date>2026-06-01T21:19:48.462862</dc:date>
    <dc:format>image/svg+xml</dc:format>
    <dc:creator>
     <cc:Agent>
      <dc:title>Matplotlib v3.9.4, https://matplotlib.org/</dc:title>
     </cc:Agent>
    </dc:creator>
   </cc:Work>
  </rdf:RDF>
 </metadata>
 <defs>
  <style type="text/css">*{stroke-linejoin: round; stroke-linecap: butt}</style>
 </defs>
 <g id="figure_1">
  <g id="patch_1">
   <path d="M 0 499.805 
L 614.285 499.805 
L 614.285 0 
L 0 0 
z
" style="fill: #ffffff"/>
  </g>
  <g id="axes_1">
   <g id="patch_2">
    <path d="M 41.885 457.92 
L 599.885 457.92 
L 599.885 14.4 
L 41.885 14.4 
z
" style="fill: #ffffff"/>
   </g>
   <g id="line2d_1">
    <path d="M 320.885 457.92 
L 320.885 280.512 
" clip-path="url(#pd87a0bc2de)" style="fill: none; stroke-dasharray: 3.7,1.6; stroke-dashoffset: 0; stroke: #666666; stroke-opacity: 0.5"/>
   </g>
   <g id="line2d_2">
    <path d="M 41.885 280.512 
L 320.885 280.512 
" clip-path="url(#pd87a0bc2de)" style="fill: none; stroke-dasharray: 3.7,1.6; stroke-dashoffset: 0; stroke: #666666; stroke-opacity: 0.5"/>
   </g>
   <g id="matplotlib.axis_1">
    <g id="xtick_1"/>
    <g id="xtick_2"/>
    <g id="xtick_3"/>
    <g id="xtick_4"/>
    <g id="xtick_5"/>
    <g id="xtick_6"/>
    <g id="text_1">
     <!-- Q -->
     <g transform="translate(314.08375 482.0775) scale(0.16 -0.16)">
      <defs>
       <path id="DejaVuSans-Bold-51" d="M 2847 -84 
L 2753 -84 
Q 1600 -84 959 553 
Q 319 1191 319 2328 
Q 319 3463 958 4106 
Q 1597 4750 2719 4750 
Q 3853 4750 4486 4112 
Q 5119 3475 5119 2328 
Q 5119 1541 4783 972 
Q 4447 403 3816 116 
L 4756 -934 
L 3609 -934 
L 2847 -84 
z
M 2719 3878 
Q 2169 3878 1866 3472 
Q 1563 3066 1563 2328 
Q 1563 1578 1859 1179 
Q 2156 781 2719 781 
Q 3272 781 3575 1187 
Q 3878 1594 3878 2328 
Q 3878 3066 3575 3472 
Q 3272 3878 2719 3878 
z
" transform="scale(0.015625)"/>
      </defs>
      <use xlink:href="#DejaVuSans-Bold-51"/>
     </g>
    </g>
   </g>
   <g id="matplotlib.axis_2">
    <g id="ytick_1"/>
    <g id="ytick_2"/>
    <g id="ytick_3"/>
    <g id="ytick_4"/>
    <g id="ytick_5"/>
    <g id="ytick_6"/>
    <g id="text_2">
     <!-- P -->
     <g transform="translate(26.5575 242.02375) rotate(-90) scale(0.16 -0.16)">
      <defs>
       <path id="DejaVuSans-Bold-50" d="M 588 4666 
L 2584 4666 
Q 3475 4666 3951 4270 
Q 4428 3875 4428 3144 
Q 4428 2409 3951 2014 
Q 3475 1619 2584 1619 
L 1791 1619 
L 1791 0 
L 588 0 
L 588 4666 
z
M 1791 3794 
L 1791 2491 
L 2456 2491 
Q 2806 2491 2997 2661 
Q 3188 2831 3188 3144 
Q 3188 3456 2997 3625 
Q 2806 3794 2456 3794 
L 1791 3794 
z
" transform="scale(0.015625)"/>
      </defs>
      <use xlink:href="#DejaVuSans-Bold-50"/>
     </g>
    </g>
   </g>
   <g id="line2d_3">
    <path d="M 41.885 58.752 
L 543.804598 457.697126 
L 543.804598 457.697126 
" clip-path="url(#pd87a0bc2de)" style="fill: none; stroke: #2b5b84; stroke-width: 2; stroke-linecap: square"/>
   </g>
   <g id="line2d_4">
    <path d="M 41.885 413.568 
L 599.885 147.456 
L 599.885 147.456 
" clip-path="url(#pd87a0bc2de)" style="fill: none; stroke: #c44e52; stroke-width: 2; stroke-linecap: square"/>
   </g>
   <g id="patch_3">
    <path d="M 41.885 457.92 
L 41.885 14.4 
" style="fill: none; stroke: #000000; stroke-width: 0.8; stroke-linejoin: miter; stroke-linecap: square"/>
   </g>
   <g id="patch_4">
    <path d="M 41.885 457.92 
L 599.885 457.92 
" style="fill: none; stroke: #000000; stroke-width: 0.8; stroke-linejoin: miter; stroke-linecap: square"/>
   </g>
   <g id="text_3">
    <g id="patch_5">
     <path d="M 400.387513 333.998559 
L 411.179544 333.998559 
Q 413.129544 333.998559 413.129544 332.048559 
L 413.129544 319.466996 
Q 413.129544 317.516996 411.179544 317.516996 
L 400.387513 317.516996 
Q 398.437513 317.516996 398.437513 319.466996 
L 398.437513 332.048559 
Q 398.437513 333.998559 400.387513 333.998559 
z
" style="fill: #ffffff; opacity: 0.9; stroke: #2b5b84; stroke-width: 0.8; stroke-linejoin: miter"/>
    </g>
    <!-- D -->
    <g style="fill: #2b5b84" transform="translate(400.387513 329.344965) scale(0.13 -0.13)">
     <defs>
      <path id="DejaVuSans-Bold-44" d="M 1791 3756 
L 1791 909 
L 2222 909 
Q 2959 909 3348 1275 
Q 3738 1641 3738 2338 
Q 3738 3031 3350 3393 
Q 2963 3756 2222 3756 
L 1791 3756 
z
M 588 4666 
L 1856 4666 
Q 2919 4666 3439 4514 
Q 3959 4363 4331 4000 
Q 4659 3684 4818 3271 
Q 4978 2859 4978 2338 
Q 4978 1809 4818 1395 
Q 4659 981 4331 666 
Q 3956 303 3431 151 
Q 2906 0 1856 0 
L 588 0 
L 588 4666 
z
" transform="scale(0.015625)"/>
     </defs>
     <use xlink:href="#DejaVuSans-Bold-44"/>
    </g>
   </g>
   <g id="text_4">
    <g id="patch_6">
     <path d="M 442.447814 223.007121 
L 451.809845 223.007121 
Q 453.759845 223.007121 453.759845 221.057121 
L 453.759845 208.475559 
Q 453.759845 206.525559 451.809845 206.525559 
L 442.447814 206.525559 
Q 440.497814 206.525559 440.497814 208.475559 
L 440.497814 221.057121 
Q 440.497814 223.007121 442.447814 223.007121 
z
" style="fill: #ffffff; opacity: 0.9; stroke: #c44e52; stroke-width: 0.8; stroke-linejoin: miter"/>
    </g>
    <!-- S -->
    <g style="fill: #c44e52" transform="translate(442.447814 218.353528) scale(0.13 -0.13)">
     <defs>
      <path id="DejaVuSans-Bold-53" d="M 3834 4519 
L 3834 3531 
Q 3450 3703 3084 3790 
Q 2719 3878 2394 3878 
Q 1963 3878 1756 3759 
Q 1550 3641 1550 3391 
Q 1550 3203 1689 3098 
Q 1828 2994 2194 2919 
L 2706 2816 
Q 3484 2659 3812 2340 
Q 4141 2022 4141 1434 
Q 4141 663 3683 286 
Q 3225 -91 2284 -91 
Q 1841 -91 1394 -6 
Q 947 78 500 244 
L 500 1259 
Q 947 1022 1364 901 
Q 1781 781 2169 781 
Q 2563 781 2772 912 
Q 2981 1044 2981 1288 
Q 2981 1506 2839 1625 
Q 2697 1744 2272 1838 
L 1806 1941 
Q 1106 2091 782 2419 
Q 459 2747 459 3303 
Q 459 4000 909 4375 
Q 1359 4750 2203 4750 
Q 2588 4750 2994 4692 
Q 3400 4634 3834 4519 
z
" transform="scale(0.015625)"/>
     </defs>
     <use xlink:href="#DejaVuSans-Bold-53"/>
    </g>
   </g>
   <g id="text_5">
    <g id="patch_7">
     <path d="M 330.885 276.923562 
L 340.44875 276.923562 
Q 343.94875 276.923562 343.94875 273.423562 
L 343.94875 259.874187 
Q 343.94875 256.374187 340.44875 256.374187 
L 330.885 256.374187 
Q 327.385 256.374187 327.385 259.874187 
L 327.385 273.423562 
Q 327.385 276.923562 330.885 276.923562 
z
" style="fill: #ffffff; opacity: 0.9; stroke: #999999; stroke-width: 0.5; stroke-linejoin: miter"/>
    </g>
    <!-- E -->
    <g transform="translate(330.885 270.512) scale(0.14 -0.14)">
     <defs>
      <path id="DejaVuSans-Bold-45" d="M 588 4666 
L 3834 4666 
L 3834 3756 
L 1791 3756 
L 1791 2888 
L 3713 2888 
L 3713 1978 
L 1791 1978 
L 1791 909 
L 3903 909 
L 3903 0 
L 588 0 
L 588 4666 
z
" transform="scale(0.015625)"/>
     </defs>
     <use xlink:href="#DejaVuSans-Bold-45"/>
    </g>
   </g>
   <g id="line2d_5">
    <defs>
     <path id="ma34f629e13" d="M 0 5 
C 1.326016 5 2.597899 4.473168 3.535534 3.535534 
C 4.473168 2.597899 5 1.326016 5 0 
C 5 -1.326016 4.473168 -2.597899 3.535534 -3.535534 
C 2.597899 -4.473168 1.326016 -5 0 -5 
C -1.326016 -5 -2.597899 -4.473168 -3.535534 -3.535534 
C -4.473168 -2.597899 -5 -1.326016 -5 0 
C -5 1.326016 -4.473168 2.597899 -3.535534 3.535534 
C -2.597899 4.473168 -1.326016 5 0 5 
z
" style="stroke: #ffffff; stroke-width: 2"/>
    </defs>
    <g clip-path="url(#pd87a0bc2de)">
     <use xlink:href="#ma34f629e13" x="320.885" y="280.512" style="fill: #1a1a1a; stroke: #ffffff; stroke-width: 2"/>
    </g>
   </g>
  </g>
 </g>
 <defs>
  <clipPath id="pd87a0bc2de">
   <rect x="41.885" y="14.4" width="558" height="443.52"/>
  </clipPath>
 </defs>
</svg>
