<?xml version="1.0" encoding="utf-8" standalone="no"?>
<!DOCTYPE svg PUBLIC "-//W3C//DTD SVG 1.1//EN"
  "http://www.w3.org/Graphics/SVG/1.1/DTD/svg11.dtd">
<svg xmlns:xlink="http://www.w3.org/1999/xlink" width="498.749375pt" height="384.989375pt" viewBox="0 0 498.749375 384.989375" xmlns="http://www.w3.org/2000/svg" version="1.1">
 <metadata>
  <rdf:RDF xmlns:dc="http://purl.org/dc/elements/1.1/" xmlns:cc="http://creativecommons.org/ns#" xmlns:rdf="http://www.w3.org/1999/02/22-rdf-syntax-ns#">
   <cc:Work>
    <dc:type rdf:resource="http://purl.org/dc/dcmitype/StillImage"/>
    <dc:date>2026-06-01T21:26:59.985265</dc:date>
    <dc:format>image/svg+xml</dc:format>
    <dc:creator>
     <cc:Agent>
      <dc:title>Matplotlib v3.9.4, https://matplotlib.org/</dc:title>
     </cc:Agent>
    </dc:creator>
   </cc:Work>
  </rdf:RDF>
 </metadata>
 <defs>
  <style type="text/css">*{stroke-linejoin: round; stroke-linecap: butt}</style>
 </defs>
 <g id="figure_1">
  <g id="patch_1">
   <path d="M 0 384.989375 
L 498.749375 384.989375 
L 498.749375 0 
L 0 0 
z
" style="fill: #ffffff"/>
  </g>
  <g id="axes_1">
   <g id="patch_2">
    <path d="M 37.949375 347.04 
L 484.349375 347.04 
L 484.349375 14.4 
L 37.949375 14.4 
z
" style="fill: #ffffff"/>
   </g>
   <g id="line2d_1">
    <path d="M 155.987837 347.04 
L 155.987837 231.895385 
" clip-path="url(#pb2105b01ef)" style="fill: none; stroke-dasharray: 3.7,1.6; stroke-dashoffset: 0; stroke: #666666; stroke-opacity: 0.5"/>
   </g>
   <g id="line2d_2">
    <path d="M 37.949375 231.895385 
L 155.987837 231.895385 
" clip-path="url(#pb2105b01ef)" style="fill: none; stroke-dasharray: 3.7,1.6; stroke-dashoffset: 0; stroke: #666666; stroke-opacity: 0.5"/>
   </g>
   <g id="matplotlib.axis_1">
    <g id="xtick_1"/>
    <g id="xtick_2"/>
    <g id="xtick_3"/>
    <g id="xtick_4"/>
    <g id="xtick_5"/>
    <g id="xtick_6"/>
    <g id="xtick_7"/>
    <g id="xtick_8"/>
    <g id="xtick_9"/>
    <g id="text_1">
     <!-- Q -->
     <g transform="translate(255.198281 367.677813) scale(0.14 -0.14)">
      <defs>
       <path id="DejaVuSans-Bold-51" d="M 2847 -84 
L 2753 -84 
Q 1600 -84 959 553 
Q 319 1191 319 2328 
Q 319 3463 958 4106 
Q 1597 4750 2719 4750 
Q 3853 4750 4486 4112 
Q 5119 3475 5119 2328 
Q 5119 1541 4783 972 
Q 4447 403 3816 116 
L 4756 -934 
L 3609 -934 
L 2847 -84 
z
M 2719 3878 
Q 2169 3878 1866 3472 
Q 1563 3066 1563 2328 
Q 1563 1578 1859 1179 
Q 2156 781 2719 781 
Q 3272 781 3575 1187 
Q 3878 1594 3878 2328 
Q 3878 3066 3575 3472 
Q 3272 3878 2719 3878 
z
" transform="scale(0.015625)"/>
      </defs>
      <use xlink:href="#DejaVuSans-Bold-51"/>
     </g>
    </g>
   </g>
   <g id="matplotlib.axis_2">
    <g id="ytick_1"/>
    <g id="ytick_2"/>
    <g id="ytick_3"/>
    <g id="ytick_4"/>
    <g id="ytick_5"/>
    <g id="ytick_6"/>
    <g id="ytick_7"/>
    <g id="ytick_8"/>
    <g id="ytick_9"/>
    <g id="text_2">
     <!-- P -->
     <g transform="translate(25.037813 185.850781) rotate(-90) scale(0.14 -0.14)">
      <defs>
       <path id="DejaVuSans-Bold-50" d="M 588 4666 
L 2584 4666 
Q 3475 4666 3951 4270 
Q 4428 3875 4428 3144 
Q 4428 2409 3951 2014 
Q 3475 1619 2584 1619 
L 1791 1619 
L 1791 0 
L 588 0 
L 588 4666 
z
M 1791 3794 
L 1791 2491 
L 2456 2491 
Q 2806 2491 2997 2661 
Q 3188 2831 3188 3144 
Q 3188 3456 2997 3625 
Q 2806 3794 2456 3794 
L 1791 3794 
z
" transform="scale(0.015625)"/>
      </defs>
      <use xlink:href="#DejaVuSans-Bold-50"/>
     </g>
    </g>
   </g>
   <g id="line2d_3">
    <path d="M 37.949375 55.98 
L 40.192591 59.323116 
L 42.435807 62.666231 
L 44.679023 66.009347 
L 46.922239 69.352462 
L 49.165455 72.695578 
L 51.408671 76.038693 
L 53.651888 79.381809 
L 55.895104 82.724925 
L 58.13832 86.06804 
L 60.381536 89.411156 
L 62.624752 92.754271 
L 64.867968 96.097387 
L 67.111184 99.440503 
L 69.3544 102.783618 
L 71.597616 106.126734 
L 73.840832 109.469849 
L 76.084048 112.812965 
L 78.327264 116.15608 
L 80.570481 119.499196 
L 82.813697 122.842312 
L 85.056913 126.185427 
L 87.300129 129.528543 
L 89.543345 132.871658 
L 91.786561 136.214774 
L 94.029777 139.557889 
L 96.272993 142.901005 
L 98.516209 146.244121 
L 100.759425 149.587236 
L 103.002641 152.930352 
L 105.245857 156.273467 
L 107.489073 159.616583 
L 109.73229 162.959698 
L 111.975506 166.302814 
L 114.218722 169.64593 
L 116.461938 172.989045 
L 118.705154 176.332161 
L 120.94837 179.675276 
L 123.191586 183.018392 
L 125.434802 186.361508 
L 127.678018 189.704623 
L 129.921234 193.047739 
L 132.16445 196.390854 
L 134.407666 199.73397 
L 136.650883 203.077085 
L 138.894099 206.420201 
L 141.137315 209.763317 
L 143.380531 213.106432 
L 145.623747 216.449548 
L 147.866963 219.792663 
L 150.110179 223.135779 
L 152.353395 226.478894 
L 154.596611 229.82201 
L 156.839827 233.165126 
L 159.083043 236.508241 
L 161.326259 239.851357 
L 163.569476 243.194472 
L 165.812692 246.537588 
L 168.055908 249.880704 
L 170.299124 253.223819 
L 172.54234 256.566935 
L 174.785556 259.91005 
L 177.028772 263.253166 
L 179.271988 266.596281 
L 181.515204 269.939397 
L 183.75842 273.282513 
L 186.001636 276.625628 
L 188.244852 279.968744 
L 190.488068 283.311859 
L 192.731285 286.654975 
L 194.974501 289.99809 
L 197.217717 293.341206 
L 199.460933 296.684322 
L 201.704149 300.027437 
L 203.947365 303.370553 
L 206.190581 306.713668 
L 208.433797 310.056784 
L 210.677013 313.399899 
L 212.920229 316.743015 
L 215.163445 320.086131 
L 217.406661 323.429246 
L 219.649878 326.772362 
L 221.893094 330.115477 
L 224.13631 333.458593 
L 226.379526 336.801709 
L 228.622742 340.144824 
L 230.865958 343.48794 
L 233.109174 346.831055 
" clip-path="url(#pb2105b01ef)" style="fill: none; stroke: #2b5b84; stroke-width: 2; stroke-linecap: square"/>
   </g>
   <g id="line2d_4">
    <path d="M 37.949375 284.67 
L 484.349375 85.086 
L 484.349375 85.086 
" clip-path="url(#pb2105b01ef)" style="fill: none; stroke: #c44e52; stroke-width: 2; stroke-linecap: square"/>
   </g>
   <g id="patch_3">
    <path d="M 37.949375 347.04 
L 37.949375 14.4 
" style="fill: none; stroke: #000000; stroke-width: 0.8; stroke-linejoin: miter; stroke-linecap: square"/>
   </g>
   <g id="patch_4">
    <path d="M 37.949375 347.04 
L 484.349375 347.04 
" style="fill: none; stroke: #000000; stroke-width: 0.8; stroke-linejoin: miter; stroke-linecap: square"/>
   </g>
   <g id="text_3">
    <g id="patch_5">
     <path d="M 180.785556 257.517707 
L 243.616181 257.517707 
Q 244.936181 257.517707 244.936181 256.197707 
L 244.936181 245.551769 
Q 244.936181 244.231769 243.616181 244.231769 
L 180.785556 244.231769 
Q 179.465556 244.231769 179.465556 245.551769 
L 179.465556 256.197707 
Q 179.465556 257.517707 180.785556 257.517707 
z
" style="fill: #ffffff; opacity: 0.9; stroke: #2b5b84; stroke-width: 0.7; stroke-linejoin: miter"/>
    </g>
    <!-- D (s=-2.0) -->
    <g style="fill: #2b5b84" transform="translate(180.785556 253.91005) scale(0.11 -0.11)">
     <defs>
      <path id="DejaVuSans-Bold-44" d="M 1791 3756 
L 1791 909 
L 2222 909 
Q 2959 909 3348 1275 
Q 3738 1641 3738 2338 
Q 3738 3031 3350 3393 
Q 2963 3756 2222 3756 
L 1791 3756 
z
M 588 4666 
L 1856 4666 
Q 2919 4666 3439 4514 
Q 3959 4363 4331 4000 
Q 4659 3684 4818 3271 
Q 4978 2859 4978 2338 
Q 4978 1809 4818 1395 
Q 4659 981 4331 666 
Q 3956 303 3431 151 
Q 2906 0 1856 0 
L 588 0 
L 588 4666 
z
" transform="scale(0.015625)"/>
      <path id="DejaVuSans-Bold-20" transform="scale(0.015625)"/>
      <path id="DejaVuSans-Bold-28" d="M 2413 -844 
L 1484 -844 
Q 1006 -72 778 623 
Q 550 1319 550 2003 
Q 550 2688 779 3389 
Q 1009 4091 1484 4856 
L 2413 4856 
Q 2013 4116 1813 3408 
Q 1613 2700 1613 2009 
Q 1613 1319 1811 609 
Q 2009 -100 2413 -844 
z
" transform="scale(0.015625)"/>
      <path id="DejaVuSans-Bold-73" d="M 3272 3391 
L 3272 2541 
Q 2913 2691 2578 2766 
Q 2244 2841 1947 2841 
Q 1628 2841 1473 2761 
Q 1319 2681 1319 2516 
Q 1319 2381 1436 2309 
Q 1553 2238 1856 2203 
L 2053 2175 
Q 2913 2066 3209 1816 
Q 3506 1566 3506 1031 
Q 3506 472 3093 190 
Q 2681 -91 1863 -91 
Q 1516 -91 1145 -36 
Q 775 19 384 128 
L 384 978 
Q 719 816 1070 734 
Q 1422 653 1784 653 
Q 2113 653 2278 743 
Q 2444 834 2444 1013 
Q 2444 1163 2330 1236 
Q 2216 1309 1875 1350 
L 1678 1375 
Q 931 1469 631 1722 
Q 331 1975 331 2491 
Q 331 3047 712 3315 
Q 1094 3584 1881 3584 
Q 2191 3584 2531 3537 
Q 2872 3491 3272 3391 
z
" transform="scale(0.015625)"/>
      <path id="DejaVuSans-Bold-3d" d="M 678 3084 
L 4684 3084 
L 4684 2350 
L 678 2350 
L 678 3084 
z
M 678 1663 
L 4684 1663 
L 4684 922 
L 678 922 
L 678 1663 
z
" transform="scale(0.015625)"/>
      <path id="DejaVuSans-Bold-2d" d="M 347 2297 
L 2309 2297 
L 2309 1388 
L 347 1388 
L 347 2297 
z
" transform="scale(0.015625)"/>
      <path id="DejaVuSans-Bold-32" d="M 1844 884 
L 3897 884 
L 3897 0 
L 506 0 
L 506 884 
L 2209 2388 
Q 2438 2594 2547 2791 
Q 2656 2988 2656 3200 
Q 2656 3528 2436 3728 
Q 2216 3928 1850 3928 
Q 1569 3928 1234 3808 
Q 900 3688 519 3450 
L 519 4475 
Q 925 4609 1322 4679 
Q 1719 4750 2100 4750 
Q 2938 4750 3402 4381 
Q 3866 4013 3866 3353 
Q 3866 2972 3669 2642 
Q 3472 2313 2841 1759 
L 1844 884 
z
" transform="scale(0.015625)"/>
      <path id="DejaVuSans-Bold-2e" d="M 653 1209 
L 1778 1209 
L 1778 0 
L 653 0 
L 653 1209 
z
" transform="scale(0.015625)"/>
      <path id="DejaVuSans-Bold-30" d="M 2944 2338 
Q 2944 3213 2780 3570 
Q 2616 3928 2228 3928 
Q 1841 3928 1675 3570 
Q 1509 3213 1509 2338 
Q 1509 1453 1675 1090 
Q 1841 728 2228 728 
Q 2613 728 2778 1090 
Q 2944 1453 2944 2338 
z
M 4147 2328 
Q 4147 1169 3647 539 
Q 3147 -91 2228 -91 
Q 1306 -91 806 539 
Q 306 1169 306 2328 
Q 306 3491 806 4120 
Q 1306 4750 2228 4750 
Q 3147 4750 3647 4120 
Q 4147 3491 4147 2328 
z
" transform="scale(0.015625)"/>
      <path id="DejaVuSans-Bold-29" d="M 513 -844 
Q 913 -100 1113 609 
Q 1313 1319 1313 2009 
Q 1313 2700 1113 3408 
Q 913 4116 513 4856 
L 1441 4856 
Q 1916 4091 2145 3389 
Q 2375 2688 2375 2003 
Q 2375 1319 2147 623 
Q 1919 -72 1441 -844 
L 513 -844 
z
" transform="scale(0.015625)"/>
     </defs>
     <use xlink:href="#DejaVuSans-Bold-44"/>
     <use xlink:href="#DejaVuSans-Bold-20" x="83.007812"/>
     <use xlink:href="#DejaVuSans-Bold-28" x="117.822266"/>
     <use xlink:href="#DejaVuSans-Bold-73" x="163.525391"/>
     <use xlink:href="#DejaVuSans-Bold-3d" x="223.046875"/>
     <use xlink:href="#DejaVuSans-Bold-2d" x="306.835938"/>
     <use xlink:href="#DejaVuSans-Bold-32" x="348.339844"/>
     <use xlink:href="#DejaVuSans-Bold-2e" x="417.919922"/>
     <use xlink:href="#DejaVuSans-Bold-30" x="455.908203"/>
     <use xlink:href="#DejaVuSans-Bold-29" x="525.488281"/>
    </g>
   </g>
   <g id="text_4">
    <g id="patch_6">
     <path d="M 357.999626 141.866802 
L 365.921345 141.866802 
Q 367.241345 141.866802 367.241345 140.546802 
L 367.241345 129.900864 
Q 367.241345 128.580864 365.921345 128.580864 
L 357.999626 128.580864 
Q 356.679626 128.580864 356.679626 129.900864 
L 356.679626 140.546802 
Q 356.679626 141.866802 357.999626 141.866802 
z
" style="fill: #ffffff; opacity: 0.9; stroke: #c44e52; stroke-width: 0.7; stroke-linejoin: miter"/>
    </g>
    <!-- S -->
    <g style="fill: #c44e52" transform="translate(357.999626 138.259146) scale(0.11 -0.11)">
     <defs>
      <path id="DejaVuSans-Bold-53" d="M 3834 4519 
L 3834 3531 
Q 3450 3703 3084 3790 
Q 2719 3878 2394 3878 
Q 1963 3878 1756 3759 
Q 1550 3641 1550 3391 
Q 1550 3203 1689 3098 
Q 1828 2994 2194 2919 
L 2706 2816 
Q 3484 2659 3812 2340 
Q 4141 2022 4141 1434 
Q 4141 663 3683 286 
Q 3225 -91 2284 -91 
Q 1841 -91 1394 -6 
Q 947 78 500 244 
L 500 1259 
Q 947 1022 1364 901 
Q 1781 781 2169 781 
Q 2563 781 2772 912 
Q 2981 1044 2981 1288 
Q 2981 1506 2839 1625 
Q 2697 1744 2272 1838 
L 1806 1941 
Q 1106 2091 782 2419 
Q 459 2747 459 3303 
Q 459 4000 909 4375 
Q 1359 4750 2203 4750 
Q 2588 4750 2994 4692 
Q 3400 4634 3834 4519 
z
" transform="scale(0.015625)"/>
     </defs>
     <use xlink:href="#DejaVuSans-Bold-53"/>
    </g>
   </g>
   <g id="text_5">
    <g id="patch_7">
     <path d="M 165.987837 228.306947 
L 175.551587 228.306947 
Q 179.051587 228.306947 179.051587 224.806947 
L 179.051587 211.257572 
Q 179.051587 207.757572 175.551587 207.757572 
L 165.987837 207.757572 
Q 162.487837 207.757572 162.487837 211.257572 
L 162.487837 224.806947 
Q 162.487837 228.306947 165.987837 228.306947 
z
" style="fill: #ffffff; opacity: 0.9; stroke: #999999; stroke-width: 0.5; stroke-linejoin: miter"/>
    </g>
    <!-- E -->
    <g transform="translate(165.987837 221.895385) scale(0.14 -0.14)">
     <defs>
      <path id="DejaVuSans-Bold-45" d="M 588 4666 
L 3834 4666 
L 3834 3756 
L 1791 3756 
L 1791 2888 
L 3713 2888 
L 3713 1978 
L 1791 1978 
L 1791 909 
L 3903 909 
L 3903 0 
L 588 0 
L 588 4666 
z
" transform="scale(0.015625)"/>
     </defs>
     <use xlink:href="#DejaVuSans-Bold-45"/>
    </g>
   </g>
   <g id="line2d_5">
    <defs>
     <path id="m040ef233bf" d="M 0 5 
C 1.326016 5 2.597899 4.473168 3.535534 3.535534 
C 4.473168 2.597899 5 1.326016 5 0 
C 5 -1.326016 4.473168 -2.597899 3.535534 -3.535534 
C 2.597899 -4.473168 1.326016 -5 0 -5 
C -1.326016 -5 -2.597899 -4.473168 -3.535534 -3.535534 
C -4.473168 -2.597899 -5 -1.326016 -5 0 
C -5 1.326016 -4.473168 2.597899 -3.535534 3.535534 
C -2.597899 4.473168 -1.326016 5 0 5 
z
" style="stroke: #ffffff; stroke-width: 2"/>
    </defs>
    <g clip-path="url(#pb2105b01ef)">
     <use xlink:href="#m040ef233bf" x="155.987837" y="231.895385" style="fill: #1a1a1a; stroke: #ffffff; stroke-width: 2"/>
    </g>
   </g>
  </g>
 </g>
 <defs>
  <clipPath id="pb2105b01ef">
   <rect x="37.949375" y="14.4" width="446.4" height="332.64"/>
  </clipPath>
 </defs>
</svg>
