<?xml version="1.0" encoding="utf-8" standalone="no"?>
<!DOCTYPE svg PUBLIC "-//W3C//DTD SVG 1.1//EN"
  "http://www.w3.org/Graphics/SVG/1.1/DTD/svg11.dtd">
<svg xmlns:xlink="http://www.w3.org/1999/xlink" width="614.285pt" height="499.805pt" viewBox="0 0 614.285 499.805" xmlns="http://www.w3.org/2000/svg" version="1.1">
 <metadata>
  <rdf:RDF xmlns:dc="http://purl.org/dc/elements/1.1/" xmlns:cc="http://creativecommons.org/ns#" xmlns:rdf="http://www.w3.org/1999/02/22-rdf-syntax-ns#">
   <cc:Work>
    <dc:type rdf:resource="http://purl.org/dc/dcmitype/StillImage"/>
    <dc:date>2026-06-01T19:49:07.296577</dc:date>
    <dc:format>image/svg+xml</dc:format>
    <dc:creator>
     <cc:Agent>
      <dc:title>Matplotlib v3.9.4, https://matplotlib.org/</dc:title>
     </cc:Agent>
    </dc:creator>
   </cc:Work>
  </rdf:RDF>
 </metadata>
 <defs>
  <style type="text/css">*{stroke-linejoin: round; stroke-linecap: butt}</style>
 </defs>
 <g id="figure_1">
  <g id="patch_1">
   <path d="M 0 499.805 
L 614.285 499.805 
L 614.285 0 
L 0 0 
z
" style="fill: #ffffff"/>
  </g>
  <g id="axes_1">
   <g id="patch_2">
    <path d="M 41.885 457.92 
L 599.885 457.92 
L 599.885 14.4 
L 41.885 14.4 
z
" style="fill: #ffffff"/>
   </g>
   <g id="line2d_1">
    <path d="M 201.313571 457.92 
L 201.313571 312.192 
" clip-path="url(#p141c9f1d7b)" style="fill: none; stroke-dasharray: 3.7,1.6; stroke-dashoffset: 0; stroke: #666666; stroke-opacity: 0.5"/>
   </g>
   <g id="line2d_2">
    <path d="M 41.885 312.192 
L 201.313571 312.192 
" clip-path="url(#p141c9f1d7b)" style="fill: none; stroke-dasharray: 3.7,1.6; stroke-dashoffset: 0; stroke: #666666; stroke-opacity: 0.5"/>
   </g>
   <g id="PolyCollection_1">
    <defs>
     <path id="mabb2049303" d="M 201.473 -187.714376 
L 201.473 -314.20628 
L 202.363545 -313.49844 
L 203.254091 -312.7906 
L 204.144636 -312.08276 
L 205.035182 -311.37492 
L 205.925727 -310.66708 
L 206.816273 -309.95924 
L 207.706818 -309.2514 
L 208.597364 -308.54356 
L 209.487909 -307.83572 
L 210.378455 -307.12788 
L 211.269 -306.42004 
L 212.159545 -305.7122 
L 213.050091 -305.00436 
L 213.940636 -304.29652 
L 214.831182 -303.58868 
L 215.721727 -302.88084 
L 216.612273 -302.173 
L 217.502818 -301.46516 
L 218.393364 -300.75732 
L 219.283909 -300.04948 
L 220.174455 -299.34164 
L 221.065 -298.6338 
L 221.955545 -297.92596 
L 222.846091 -297.21812 
L 223.736636 -296.51028 
L 224.627182 -295.80244 
L 225.517727 -295.0946 
L 226.408273 -294.38676 
L 227.298818 -293.67892 
L 228.189364 -292.97108 
L 229.079909 -292.26324 
L 229.970455 -291.5554 
L 230.861 -290.84756 
L 231.751545 -290.13972 
L 232.642091 -289.43188 
L 233.532636 -288.72404 
L 234.423182 -288.0162 
L 235.313727 -287.30836 
L 236.204273 -286.60052 
L 237.094818 -285.89268 
L 237.985364 -285.18484 
L 238.875909 -284.477 
L 239.766455 -283.76916 
L 240.657 -283.06132 
L 241.547545 -282.35348 
L 242.438091 -281.64564 
L 243.328636 -280.9378 
L 244.219182 -280.22996 
L 245.109727 -279.52212 
L 246.000273 -278.81428 
L 246.890818 -278.10644 
L 247.781364 -277.3986 
L 248.671909 -276.69076 
L 249.562455 -275.98292 
L 250.453 -275.27508 
L 251.343545 -274.56724 
L 252.234091 -273.8594 
L 253.124636 -273.15156 
L 254.015182 -272.44372 
L 254.905727 -271.73588 
L 255.796273 -271.02804 
L 256.686818 -270.3202 
L 257.577364 -269.61236 
L 258.467909 -268.90452 
L 259.358455 -268.19668 
L 260.249 -267.48884 
L 261.139545 -266.781 
L 262.030091 -266.07316 
L 262.920636 -265.36532 
L 263.811182 -264.65748 
L 264.701727 -263.94964 
L 265.592273 -263.2418 
L 266.482818 -262.53396 
L 267.373364 -261.82612 
L 268.263909 -261.11828 
L 269.154455 -260.41044 
L 270.045 -259.7026 
L 270.935545 -258.99476 
L 271.826091 -258.28692 
L 272.716636 -257.57908 
L 273.607182 -256.87124 
L 274.497727 -256.1634 
L 275.388273 -255.45556 
L 276.278818 -254.74772 
L 277.169364 -254.03988 
L 278.059909 -253.33204 
L 278.950455 -252.6242 
L 279.841 -251.91636 
L 280.731545 -251.20852 
L 281.622091 -250.50068 
L 282.512636 -249.79284 
L 283.403182 -249.085 
L 284.293727 -248.37716 
L 285.184273 -247.66932 
L 286.074818 -246.96148 
L 286.965364 -246.25364 
L 287.855909 -245.5458 
L 288.746455 -244.83796 
L 289.637 -244.13012 
L 289.637 -243.775304 
L 289.637 -243.775304 
L 288.746455 -243.209032 
L 287.855909 -242.64276 
L 286.965364 -242.076488 
L 286.074818 -241.510216 
L 285.184273 -240.943944 
L 284.293727 -240.377672 
L 283.403182 -239.8114 
L 282.512636 -239.245128 
L 281.622091 -238.678856 
L 280.731545 -238.112584 
L 279.841 -237.546312 
L 278.950455 -236.98004 
L 278.059909 -236.413768 
L 277.169364 -235.847496 
L 276.278818 -235.281224 
L 275.388273 -234.714952 
L 274.497727 -234.14868 
L 273.607182 -233.582408 
L 272.716636 -233.016136 
L 271.826091 -232.449864 
L 270.935545 -231.883592 
L 270.045 -231.31732 
L 269.154455 -230.751048 
L 268.263909 -230.184776 
L 267.373364 -229.618504 
L 266.482818 -229.052232 
L 265.592273 -228.48596 
L 264.701727 -227.919688 
L 263.811182 -227.353416 
L 262.920636 -226.787144 
L 262.030091 -226.220872 
L 261.139545 -225.6546 
L 260.249 -225.088328 
L 259.358455 -224.522056 
L 258.467909 -223.955784 
L 257.577364 -223.389512 
L 256.686818 -222.82324 
L 255.796273 -222.256968 
L 254.905727 -221.690696 
L 254.015182 -221.124424 
L 253.124636 -220.558152 
L 252.234091 -219.99188 
L 251.343545 -219.425608 
L 250.453 -218.859336 
L 249.562455 -218.293064 
L 248.671909 -217.726792 
L 247.781364 -217.16052 
L 246.890818 -216.594248 
L 246.000273 -216.027976 
L 245.109727 -215.461704 
L 244.219182 -214.895432 
L 243.328636 -214.32916 
L 242.438091 -213.762888 
L 241.547545 -213.196616 
L 240.657 -212.630344 
L 239.766455 -212.064072 
L 238.875909 -211.4978 
L 237.985364 -210.931528 
L 237.094818 -210.365256 
L 236.204273 -209.798984 
L 235.313727 -209.232712 
L 234.423182 -208.66644 
L 233.532636 -208.100168 
L 232.642091 -207.533896 
L 231.751545 -206.967624 
L 230.861 -206.401352 
L 229.970455 -205.83508 
L 229.079909 -205.268808 
L 228.189364 -204.702536 
L 227.298818 -204.136264 
L 226.408273 -203.569992 
L 225.517727 -203.00372 
L 224.627182 -202.437448 
L 223.736636 -201.871176 
L 222.846091 -201.304904 
L 221.955545 -200.738632 
L 221.065 -200.17236 
L 220.174455 -199.606088 
L 219.283909 -199.039816 
L 218.393364 -198.473544 
L 217.502818 -197.907272 
L 216.612273 -197.341 
L 215.721727 -196.774728 
L 214.831182 -196.208456 
L 213.940636 -195.642184 
L 213.050091 -195.075912 
L 212.159545 -194.50964 
L 211.269 -193.943368 
L 210.378455 -193.377096 
L 209.487909 -192.810824 
L 208.597364 -192.244552 
L 207.706818 -191.67828 
L 206.816273 -191.112008 
L 205.925727 -190.545736 
L 205.035182 -189.979464 
L 204.144636 -189.413192 
L 203.254091 -188.84692 
L 202.363545 -188.280648 
L 201.473 -187.714376 
z
" style="stroke: #f1948a; stroke-opacity: 0.25"/>
    </defs>
    <g clip-path="url(#p141c9f1d7b)">
     <use xlink:href="#mabb2049303" x="0" y="499.805" style="fill: #f1948a; fill-opacity: 0.25; stroke: #f1948a; stroke-opacity: 0.25"/>
    </g>
   </g>
   <g id="matplotlib.axis_1">
    <g id="xtick_1"/>
    <g id="xtick_2"/>
    <g id="xtick_3"/>
    <g id="xtick_4"/>
    <g id="xtick_5"/>
    <g id="xtick_6"/>
    <g id="text_1">
     <!-- Q -->
     <g transform="translate(314.08375 482.0775) scale(0.16 -0.16)">
      <defs>
       <path id="DejaVuSans-Bold-51" d="M 2847 -84 
L 2753 -84 
Q 1600 -84 959 553 
Q 319 1191 319 2328 
Q 319 3463 958 4106 
Q 1597 4750 2719 4750 
Q 3853 4750 4486 4112 
Q 5119 3475 5119 2328 
Q 5119 1541 4783 972 
Q 4447 403 3816 116 
L 4756 -934 
L 3609 -934 
L 2847 -84 
z
M 2719 3878 
Q 2169 3878 1866 3472 
Q 1563 3066 1563 2328 
Q 1563 1578 1859 1179 
Q 2156 781 2719 781 
Q 3272 781 3575 1187 
Q 3878 1594 3878 2328 
Q 3878 3066 3575 3472 
Q 3272 3878 2719 3878 
z
" transform="scale(0.015625)"/>
      </defs>
      <use xlink:href="#DejaVuSans-Bold-51"/>
     </g>
    </g>
   </g>
   <g id="matplotlib.axis_2">
    <g id="ytick_1"/>
    <g id="ytick_2"/>
    <g id="ytick_3"/>
    <g id="ytick_4"/>
    <g id="ytick_5"/>
    <g id="ytick_6"/>
    <g id="text_2">
     <!-- P/Cost -->
     <g transform="translate(26.5575 264.89875) rotate(-90) scale(0.16 -0.16)">
      <defs>
       <path id="DejaVuSans-Bold-50" d="M 588 4666 
L 2584 4666 
Q 3475 4666 3951 4270 
Q 4428 3875 4428 3144 
Q 4428 2409 3951 2014 
Q 3475 1619 2584 1619 
L 1791 1619 
L 1791 0 
L 588 0 
L 588 4666 
z
M 1791 3794 
L 1791 2491 
L 2456 2491 
Q 2806 2491 2997 2661 
Q 3188 2831 3188 3144 
Q 3188 3456 2997 3625 
Q 2806 3794 2456 3794 
L 1791 3794 
z
" transform="scale(0.015625)"/>
       <path id="DejaVuSans-Bold-2f" d="M 1644 4666 
L 2338 4666 
L 691 -594 
L 0 -594 
L 1644 4666 
z
" transform="scale(0.015625)"/>
       <path id="DejaVuSans-Bold-43" d="M 4288 256 
Q 3956 84 3597 -3 
Q 3238 -91 2847 -91 
Q 1681 -91 1000 561 
Q 319 1213 319 2328 
Q 319 3447 1000 4098 
Q 1681 4750 2847 4750 
Q 3238 4750 3597 4662 
Q 3956 4575 4288 4403 
L 4288 3438 
Q 3953 3666 3628 3772 
Q 3303 3878 2944 3878 
Q 2300 3878 1931 3465 
Q 1563 3053 1563 2328 
Q 1563 1606 1931 1193 
Q 2300 781 2944 781 
Q 3303 781 3628 887 
Q 3953 994 4288 1222 
L 4288 256 
z
" transform="scale(0.015625)"/>
       <path id="DejaVuSans-Bold-6f" d="M 2203 2784 
Q 1831 2784 1636 2517 
Q 1441 2250 1441 1747 
Q 1441 1244 1636 976 
Q 1831 709 2203 709 
Q 2569 709 2762 976 
Q 2956 1244 2956 1747 
Q 2956 2250 2762 2517 
Q 2569 2784 2203 2784 
z
M 2203 3584 
Q 3106 3584 3614 3096 
Q 4122 2609 4122 1747 
Q 4122 884 3614 396 
Q 3106 -91 2203 -91 
Q 1297 -91 786 396 
Q 275 884 275 1747 
Q 275 2609 786 3096 
Q 1297 3584 2203 3584 
z
" transform="scale(0.015625)"/>
       <path id="DejaVuSans-Bold-73" d="M 3272 3391 
L 3272 2541 
Q 2913 2691 2578 2766 
Q 2244 2841 1947 2841 
Q 1628 2841 1473 2761 
Q 1319 2681 1319 2516 
Q 1319 2381 1436 2309 
Q 1553 2238 1856 2203 
L 2053 2175 
Q 2913 2066 3209 1816 
Q 3506 1566 3506 1031 
Q 3506 472 3093 190 
Q 2681 -91 1863 -91 
Q 1516 -91 1145 -36 
Q 775 19 384 128 
L 384 978 
Q 719 816 1070 734 
Q 1422 653 1784 653 
Q 2113 653 2278 743 
Q 2444 834 2444 1013 
Q 2444 1163 2330 1236 
Q 2216 1309 1875 1350 
L 1678 1375 
Q 931 1469 631 1722 
Q 331 1975 331 2491 
Q 331 3047 712 3315 
Q 1094 3584 1881 3584 
Q 2191 3584 2531 3537 
Q 2872 3491 3272 3391 
z
" transform="scale(0.015625)"/>
       <path id="DejaVuSans-Bold-74" d="M 1759 4494 
L 1759 3500 
L 2913 3500 
L 2913 2700 
L 1759 2700 
L 1759 1216 
Q 1759 972 1856 886 
Q 1953 800 2241 800 
L 2816 800 
L 2816 0 
L 1856 0 
Q 1194 0 917 276 
Q 641 553 641 1216 
L 641 2700 
L 84 2700 
L 84 3500 
L 641 3500 
L 641 4494 
L 1759 4494 
z
" transform="scale(0.015625)"/>
      </defs>
      <use xlink:href="#DejaVuSans-Bold-50"/>
      <use xlink:href="#DejaVuSans-Bold-2f" x="73.291016"/>
      <use xlink:href="#DejaVuSans-Bold-43" x="109.814453"/>
      <use xlink:href="#DejaVuSans-Bold-6f" x="183.203125"/>
      <use xlink:href="#DejaVuSans-Bold-73" x="251.904297"/>
      <use xlink:href="#DejaVuSans-Bold-74" x="311.425781"/>
     </g>
    </g>
   </g>
   <g id="line2d_3">
    <path d="M 41.885 58.752 
L 543.804598 457.697126 
L 543.804598 457.697126 
" clip-path="url(#p141c9f1d7b)" style="fill: none; stroke: #2b5b84; stroke-width: 2; stroke-linecap: square"/>
   </g>
   <g id="line2d_4">
    <path d="M 41.885 58.752 
L 44.68902 63.209487 
L 47.49304 67.666975 
L 50.29706 72.124462 
L 53.10108 76.58195 
L 55.905101 81.039437 
L 58.709121 85.496925 
L 61.513141 89.954412 
L 64.317161 94.411899 
L 67.121181 98.869387 
L 69.925201 103.326874 
L 72.729221 107.784362 
L 75.533241 112.241849 
L 78.337261 116.699337 
L 81.141281 121.156824 
L 83.945302 125.614312 
L 86.749322 130.071799 
L 89.553342 134.529286 
L 92.357362 138.986774 
L 95.161382 143.444261 
L 97.965402 147.901749 
L 100.769422 152.359236 
L 103.573442 156.816724 
L 106.377462 161.274211 
L 109.181482 165.731698 
L 111.985503 170.189186 
L 114.789523 174.646673 
L 117.593543 179.104161 
L 120.397563 183.561648 
L 123.201583 188.019136 
L 126.005603 192.476623 
L 128.809623 196.934111 
L 131.613643 201.391598 
L 134.417663 205.849085 
L 137.221683 210.306573 
L 140.025704 214.76406 
L 142.829724 219.221548 
L 145.633744 223.679035 
L 148.437764 228.136523 
L 151.241784 232.59401 
L 154.045804 237.051497 
L 156.849824 241.508985 
L 159.653844 245.966472 
L 162.457864 250.42396 
L 165.261884 254.881447 
L 168.065905 259.338935 
L 170.869925 263.796422 
L 173.673945 268.25391 
L 176.477965 272.711397 
L 179.281985 277.168884 
L 182.086005 281.626372 
L 184.890025 286.083859 
L 187.694045 290.541347 
L 190.498065 294.998834 
L 193.302085 299.456322 
L 196.106106 303.913809 
L 198.910126 308.371296 
L 201.714146 312.828784 
L 204.518166 317.286271 
L 207.322186 321.743759 
L 210.126206 326.201246 
L 212.930226 330.658734 
L 215.734246 335.116221 
L 218.538266 339.573709 
L 221.342286 344.031196 
L 224.146307 348.488683 
L 226.950327 352.946171 
L 229.754347 357.403658 
L 232.558367 361.861146 
L 235.362387 366.318633 
L 238.166407 370.776121 
L 240.970427 375.233608 
L 243.774447 379.691095 
L 246.578467 384.148583 
L 249.382487 388.60607 
L 252.186508 393.063558 
L 254.990528 397.521045 
L 257.794548 401.978533 
L 260.598568 406.43602 
L 263.402588 410.893508 
L 266.206608 415.350995 
L 269.010628 419.808482 
L 271.814648 424.26597 
L 274.618668 428.723457 
L 277.422688 433.180945 
L 280.226709 437.638432 
L 283.030729 442.09592 
L 285.834749 446.553407 
L 288.638769 451.010894 
L 291.442789 455.468382 
" clip-path="url(#p141c9f1d7b)" style="fill: none; stroke-dasharray: 7.4,3.2; stroke-dashoffset: 0; stroke: #4c9bcf; stroke-width: 2"/>
   </g>
   <g id="line2d_5">
    <path d="M 41.885 413.568 
L 599.885 58.752 
L 599.885 58.752 
" clip-path="url(#p141c9f1d7b)" style="fill: none; stroke: #c44e52; stroke-width: 2; stroke-linecap: square"/>
   </g>
   <g id="patch_3">
    <path d="M 41.885 457.92 
L 41.885 14.4 
" style="fill: none; stroke: #000000; stroke-width: 0.8; stroke-linejoin: miter; stroke-linecap: square"/>
   </g>
   <g id="patch_4">
    <path d="M 41.885 457.92 
L 599.885 457.92 
" style="fill: none; stroke: #000000; stroke-width: 0.8; stroke-linejoin: miter; stroke-linecap: square"/>
   </g>
   <g id="text_3">
    <g id="patch_5">
     <path d="M 400.387513 333.998559 
L 442.143919 333.998559 
Q 444.093919 333.998559 444.093919 332.048559 
L 444.093919 319.466996 
Q 444.093919 317.516996 442.143919 317.516996 
L 400.387513 317.516996 
Q 398.437513 317.516996 398.437513 319.466996 
L 398.437513 332.048559 
Q 398.437513 333.998559 400.387513 333.998559 
z
" style="fill: #ffffff; opacity: 0.9; stroke: #2b5b84; stroke-width: 0.8; stroke-linejoin: miter"/>
    </g>
    <!-- D=AR -->
    <g style="fill: #2b5b84" transform="translate(400.387513 329.344965) scale(0.13 -0.13)">
     <defs>
      <path id="DejaVuSans-Bold-44" d="M 1791 3756 
L 1791 909 
L 2222 909 
Q 2959 909 3348 1275 
Q 3738 1641 3738 2338 
Q 3738 3031 3350 3393 
Q 2963 3756 2222 3756 
L 1791 3756 
z
M 588 4666 
L 1856 4666 
Q 2919 4666 3439 4514 
Q 3959 4363 4331 4000 
Q 4659 3684 4818 3271 
Q 4978 2859 4978 2338 
Q 4978 1809 4818 1395 
Q 4659 981 4331 666 
Q 3956 303 3431 151 
Q 2906 0 1856 0 
L 588 0 
L 588 4666 
z
" transform="scale(0.015625)"/>
      <path id="DejaVuSans-Bold-3d" d="M 678 3084 
L 4684 3084 
L 4684 2350 
L 678 2350 
L 678 3084 
z
M 678 1663 
L 4684 1663 
L 4684 922 
L 678 922 
L 678 1663 
z
" transform="scale(0.015625)"/>
      <path id="DejaVuSans-Bold-41" d="M 3419 850 
L 1538 850 
L 1241 0 
L 31 0 
L 1759 4666 
L 3194 4666 
L 4922 0 
L 3713 0 
L 3419 850 
z
M 1838 1716 
L 3116 1716 
L 2478 3572 
L 1838 1716 
z
" transform="scale(0.015625)"/>
      <path id="DejaVuSans-Bold-52" d="M 2297 2597 
Q 2675 2597 2839 2737 
Q 3003 2878 3003 3200 
Q 3003 3519 2839 3656 
Q 2675 3794 2297 3794 
L 1791 3794 
L 1791 2597 
L 2297 2597 
z
M 1791 1766 
L 1791 0 
L 588 0 
L 588 4666 
L 2425 4666 
Q 3347 4666 3776 4356 
Q 4206 4047 4206 3378 
Q 4206 2916 3982 2619 
Q 3759 2322 3309 2181 
Q 3556 2125 3751 1926 
Q 3947 1728 4147 1325 
L 4800 0 
L 3519 0 
L 2950 1159 
Q 2778 1509 2601 1637 
Q 2425 1766 2131 1766 
L 1791 1766 
z
" transform="scale(0.015625)"/>
     </defs>
     <use xlink:href="#DejaVuSans-Bold-44"/>
     <use xlink:href="#DejaVuSans-Bold-3d" x="83.007812"/>
     <use xlink:href="#DejaVuSans-Bold-41" x="166.796875"/>
     <use xlink:href="#DejaVuSans-Bold-52" x="244.189453"/>
    </g>
   </g>
   <g id="text_4">
    <g id="patch_6">
     <path d="M 223.734246 331.769815 
L 246.681277 331.769815 
Q 248.631277 331.769815 248.631277 329.819815 
L 248.631277 317.238252 
Q 248.631277 315.288252 246.681277 315.288252 
L 223.734246 315.288252 
Q 221.784246 315.288252 221.784246 317.238252 
L 221.784246 329.819815 
Q 221.784246 331.769815 223.734246 331.769815 
z
" style="fill: #ffffff; opacity: 0.9; stroke: #4c9bcf; stroke-width: 0.8; stroke-linejoin: miter"/>
    </g>
    <!-- MR -->
    <g style="fill: #4c9bcf" transform="translate(223.734246 327.116221) scale(0.13 -0.13)">
     <defs>
      <path id="DejaVuSans-Bold-4d" d="M 588 4666 
L 2119 4666 
L 3181 2169 
L 4250 4666 
L 5778 4666 
L 5778 0 
L 4641 0 
L 4641 3413 
L 3566 897 
L 2803 897 
L 1728 3413 
L 1728 0 
L 588 0 
L 588 4666 
z
" transform="scale(0.015625)"/>
     </defs>
     <use xlink:href="#DejaVuSans-Bold-4d"/>
     <use xlink:href="#DejaVuSans-Bold-52" x="99.511719"/>
    </g>
   </g>
   <g id="text_5">
    <g id="patch_7">
     <path d="M 442.447814 160.602297 
L 464.925627 160.602297 
Q 466.875627 160.602297 466.875627 158.652297 
L 466.875627 146.070735 
Q 466.875627 144.120735 464.925627 144.120735 
L 442.447814 144.120735 
Q 440.497814 144.120735 440.497814 146.070735 
L 440.497814 158.652297 
Q 440.497814 160.602297 442.447814 160.602297 
z
" style="fill: #ffffff; opacity: 0.9; stroke: #c44e52; stroke-width: 0.8; stroke-linejoin: miter"/>
    </g>
    <!-- MC -->
    <g style="fill: #c44e52" transform="translate(442.447814 155.948704) scale(0.13 -0.13)">
     <use xlink:href="#DejaVuSans-Bold-4d"/>
     <use xlink:href="#DejaVuSans-Bold-43" x="99.511719"/>
    </g>
   </g>
   <g id="text_6">
    <g id="patch_8">
     <path d="M 209.313571 333.603562 
L 235.804196 333.603562 
Q 239.304196 333.603562 239.304196 330.103562 
L 239.304196 316.554187 
Q 239.304196 313.054187 235.804196 313.054187 
L 209.313571 313.054187 
Q 205.813571 313.054187 205.813571 316.554187 
L 205.813571 330.103562 
Q 205.813571 333.603562 209.313571 333.603562 
z
" style="fill: #ffffff; opacity: 0.9; stroke: #999999; stroke-width: 0.5; stroke-linejoin: miter"/>
    </g>
    <!-- Qm -->
    <g transform="translate(209.313571 327.192) scale(0.14 -0.14)">
     <defs>
      <path id="DejaVuSans-Bold-6d" d="M 3781 2919 
Q 3994 3244 4286 3414 
Q 4578 3584 4928 3584 
Q 5531 3584 5847 3212 
Q 6163 2841 6163 2131 
L 6163 0 
L 5038 0 
L 5038 1825 
Q 5041 1866 5042 1909 
Q 5044 1953 5044 2034 
Q 5044 2406 4934 2573 
Q 4825 2741 4581 2741 
Q 4263 2741 4089 2478 
Q 3916 2216 3909 1719 
L 3909 0 
L 2784 0 
L 2784 1825 
Q 2784 2406 2684 2573 
Q 2584 2741 2328 2741 
Q 2006 2741 1831 2477 
Q 1656 2213 1656 1722 
L 1656 0 
L 531 0 
L 531 3500 
L 1656 3500 
L 1656 2988 
Q 1863 3284 2130 3434 
Q 2397 3584 2719 3584 
Q 3081 3584 3359 3409 
Q 3638 3234 3781 2919 
z
" transform="scale(0.015625)"/>
     </defs>
     <use xlink:href="#DejaVuSans-Bold-51"/>
     <use xlink:href="#DejaVuSans-Bold-6d" x="85.009766"/>
    </g>
   </g>
   <g id="text_7">
    <!-- DWL -->
    <g style="fill: #f1948a; opacity: 0.8" transform="translate(232.343281 216.467437) scale(0.09 -0.09)">
     <defs>
      <path id="DejaVuSans-44" d="M 1259 4147 
L 1259 519 
L 2022 519 
Q 2988 519 3436 956 
Q 3884 1394 3884 2338 
Q 3884 3275 3436 3711 
Q 2988 4147 2022 4147 
L 1259 4147 
z
M 628 4666 
L 1925 4666 
Q 3281 4666 3915 4102 
Q 4550 3538 4550 2338 
Q 4550 1131 3912 565 
Q 3275 0 1925 0 
L 628 0 
L 628 4666 
z
" transform="scale(0.015625)"/>
      <path id="DejaVuSans-57" d="M 213 4666 
L 850 4666 
L 1831 722 
L 2809 4666 
L 3519 4666 
L 4500 722 
L 5478 4666 
L 6119 4666 
L 4947 0 
L 4153 0 
L 3169 4050 
L 2175 0 
L 1381 0 
L 213 4666 
z
" transform="scale(0.015625)"/>
      <path id="DejaVuSans-4c" d="M 628 4666 
L 1259 4666 
L 1259 531 
L 3531 531 
L 3531 0 
L 628 0 
L 628 4666 
z
" transform="scale(0.015625)"/>
     </defs>
     <use xlink:href="#DejaVuSans-44"/>
     <use xlink:href="#DejaVuSans-57" x="77.001953"/>
     <use xlink:href="#DejaVuSans-4c" x="175.878906"/>
    </g>
   </g>
   <g id="line2d_6">
    <defs>
     <path id="m42df9e5228" d="M 0 5 
C 1.326016 5 2.597899 4.473168 3.535534 3.535534 
C 4.473168 2.597899 5 1.326016 5 0 
C 5 -1.326016 4.473168 -2.597899 3.535534 -3.535534 
C 2.597899 -4.473168 1.326016 -5 0 -5 
C -1.326016 -5 -2.597899 -4.473168 -3.535534 -3.535534 
C -4.473168 -2.597899 -5 -1.326016 -5 0 
C -5 1.326016 -4.473168 2.597899 -3.535534 3.535534 
C -2.597899 4.473168 -1.326016 5 0 5 
z
" style="stroke: #ffffff; stroke-width: 2"/>
    </defs>
    <g clip-path="url(#p141c9f1d7b)">
     <use xlink:href="#m42df9e5228" x="201.313571" y="312.192" style="fill: #1a1a1a; stroke: #ffffff; stroke-width: 2"/>
    </g>
   </g>
  </g>
 </g>
 <defs>
  <clipPath id="p141c9f1d7b">
   <rect x="41.885" y="14.4" width="558" height="443.52"/>
  </clipPath>
 </defs>
</svg>
