<?xml version="1.0" encoding="utf-8" standalone="no"?>
<!DOCTYPE svg PUBLIC "-//W3C//DTD SVG 1.1//EN"
  "http://www.w3.org/Graphics/SVG/1.1/DTD/svg11.dtd">
<svg xmlns:xlink="http://www.w3.org/1999/xlink" width="554.549375pt" height="440.429375pt" viewBox="0 0 554.549375 440.429375" xmlns="http://www.w3.org/2000/svg" version="1.1">
 <metadata>
  <rdf:RDF xmlns:dc="http://purl.org/dc/elements/1.1/" xmlns:cc="http://creativecommons.org/ns#" xmlns:rdf="http://www.w3.org/1999/02/22-rdf-syntax-ns#">
   <cc:Work>
    <dc:type rdf:resource="http://purl.org/dc/dcmitype/StillImage"/>
    <dc:date>2026-06-01T18:31:58.349331</dc:date>
    <dc:format>image/svg+xml</dc:format>
    <dc:creator>
     <cc:Agent>
      <dc:title>Matplotlib v3.9.4, https://matplotlib.org/</dc:title>
     </cc:Agent>
    </dc:creator>
   </cc:Work>
  </rdf:RDF>
 </metadata>
 <defs>
  <style type="text/css">*{stroke-linejoin: round; stroke-linecap: butt}</style>
 </defs>
 <g id="figure_1">
  <g id="patch_1">
   <path d="M 0 440.429375 
L 554.549375 440.429375 
L 554.549375 0 
L 0 0 
z
" style="fill: #ffffff"/>
  </g>
  <g id="axes_1">
   <g id="patch_2">
    <path d="M 37.949375 402.48 
L 540.149375 402.48 
L 540.149375 14.4 
L 37.949375 14.4 
z
" style="fill: #ffffff"/>
   </g>
   <g id="line2d_1">
    <path d="M 176.054375 402.48 
L 176.054375 169.632 
" clip-path="url(#p55d406cb64)" style="fill: none; stroke-dasharray: 2.59,1.12; stroke-dashoffset: 0; stroke: #999999; stroke-opacity: 0.4; stroke-width: 0.7"/>
   </g>
   <g id="line2d_2">
    <path d="M 37.949375 169.632 
L 176.054375 169.632 
" clip-path="url(#p55d406cb64)" style="fill: none; stroke-dasharray: 2.59,1.12; stroke-dashoffset: 0; stroke: #999999; stroke-opacity: 0.4; stroke-width: 0.7"/>
   </g>
   <g id="matplotlib.axis_1">
    <g id="xtick_1"/>
    <g id="xtick_2"/>
    <g id="xtick_3"/>
    <g id="xtick_4"/>
    <g id="xtick_5"/>
    <g id="xtick_6"/>
    <g id="xtick_7"/>
    <g id="xtick_8"/>
    <g id="xtick_9"/>
    <g id="text_1">
     <!-- Q -->
     <g transform="translate(283.539063 423.117812) scale(0.14 -0.14)">
      <defs>
       <path id="DejaVuSans-51" d="M 2522 4238 
Q 1834 4238 1429 3725 
Q 1025 3213 1025 2328 
Q 1025 1447 1429 934 
Q 1834 422 2522 422 
Q 3209 422 3611 934 
Q 4013 1447 4013 2328 
Q 4013 3213 3611 3725 
Q 3209 4238 2522 4238 
z
M 3406 84 
L 4238 -825 
L 3475 -825 
L 2784 -78 
Q 2681 -84 2626 -87 
Q 2572 -91 2522 -91 
Q 1538 -91 948 567 
Q 359 1225 359 2328 
Q 359 3434 948 4092 
Q 1538 4750 2522 4750 
Q 3503 4750 4090 4092 
Q 4678 3434 4678 2328 
Q 4678 1516 4351 937 
Q 4025 359 3406 84 
z
" transform="scale(0.015625)"/>
      </defs>
      <use xlink:href="#DejaVuSans-51"/>
     </g>
    </g>
   </g>
   <g id="matplotlib.axis_2">
    <g id="ytick_1"/>
    <g id="ytick_2"/>
    <g id="ytick_3"/>
    <g id="ytick_4"/>
    <g id="ytick_5"/>
    <g id="ytick_6"/>
    <g id="ytick_7"/>
    <g id="ytick_8"/>
    <g id="ytick_9"/>
    <g id="text_2">
     <!-- P -->
     <g transform="translate(25.037813 212.660781) rotate(-90) scale(0.14 -0.14)">
      <defs>
       <path id="DejaVuSans-50" d="M 1259 4147 
L 1259 2394 
L 2053 2394 
Q 2494 2394 2734 2622 
Q 2975 2850 2975 3272 
Q 2975 3691 2734 3919 
Q 2494 4147 2053 4147 
L 1259 4147 
z
M 628 4666 
L 2053 4666 
Q 2838 4666 3239 4311 
Q 3641 3956 3641 3272 
Q 3641 2581 3239 2228 
Q 2838 1875 2053 1875 
L 1259 1875 
L 1259 0 
L 628 0 
L 628 4666 
z
" transform="scale(0.015625)"/>
      </defs>
      <use xlink:href="#DejaVuSans-50"/>
     </g>
    </g>
   </g>
   <g id="line2d_3">
    <path d="M 37.949375 62.91 
L 477.058923 402.236231 
L 477.058923 402.236231 
" clip-path="url(#p55d406cb64)" style="fill: none; stroke: #2b5b84; stroke-width: 2; stroke-linecap: square"/>
   </g>
   <g id="line2d_4">
    <path d="M 37.949375 329.715 
L 40.472993 326.789774 
L 42.996611 323.864548 
L 45.520229 320.939322 
L 48.043847 318.014095 
L 50.567465 315.088869 
L 53.091084 312.163643 
L 55.614702 309.238417 
L 58.13832 306.313191 
L 60.661938 303.387965 
L 63.185556 300.462739 
L 65.709174 297.537513 
L 68.232792 294.612286 
L 70.75641 291.68706 
L 73.280028 288.761834 
L 75.803646 285.836608 
L 78.327264 282.911382 
L 80.850883 279.986156 
L 83.374501 277.06093 
L 85.898119 274.135704 
L 88.421737 271.210477 
L 90.945355 268.285251 
L 93.468973 265.360025 
L 95.992591 262.434799 
L 98.516209 259.509573 
L 101.039827 256.584347 
L 103.563445 253.659121 
L 106.087063 250.733894 
L 108.610682 247.808668 
L 111.1343 244.883442 
L 113.657918 241.958216 
L 116.181536 239.03299 
L 118.705154 236.107764 
L 121.228772 233.182538 
L 123.75239 230.257312 
L 126.276008 227.332085 
L 128.799626 224.406859 
L 131.323244 221.481633 
L 133.846862 218.556407 
L 136.370481 215.631181 
L 138.894099 212.705955 
L 141.417717 209.780729 
L 143.941335 206.855503 
L 146.464953 203.930276 
L 148.988571 201.00505 
L 151.512189 198.079824 
L 154.035807 195.154598 
L 156.559425 192.229372 
L 159.083043 189.304146 
L 161.606661 186.37892 
L 164.13028 183.453693 
L 166.653898 180.528467 
L 169.177516 177.603241 
L 171.701134 174.678015 
L 174.224752 171.752789 
L 176.74837 168.827563 
L 179.271988 165.902337 
L 181.795606 162.977111 
L 184.319224 160.051884 
L 186.842842 157.126658 
L 189.36646 154.201432 
L 191.890079 151.276206 
L 194.413697 148.35098 
L 196.937315 145.425754 
L 199.460933 142.500528 
L 201.984551 139.575302 
L 204.508169 136.650075 
L 207.031787 133.724849 
L 209.555405 130.799623 
L 212.079023 127.874397 
L 214.602641 124.949171 
L 217.126259 122.023945 
L 219.649878 119.098719 
L 222.173496 116.173492 
L 224.697114 113.248266 
L 227.220732 110.32304 
L 229.74435 107.397814 
L 232.267968 104.472588 
L 234.791586 101.547362 
L 237.315204 98.622136 
L 239.838822 95.69691 
L 242.36244 92.771683 
L 244.886058 89.846457 
L 247.409677 86.921231 
L 249.933295 83.996005 
L 252.456913 81.070779 
L 254.980531 78.145553 
L 257.504149 75.220327 
L 260.027767 72.295101 
L 262.551385 69.369874 
L 265.075003 66.444648 
L 267.598621 63.519422 
L 270.122239 60.594196 
L 272.645857 57.66897 
L 275.169476 54.743744 
L 277.693094 51.818518 
L 280.216712 48.893291 
L 282.74033 45.968065 
L 285.263948 43.042839 
L 287.787566 40.117613 
L 290.311184 37.192387 
L 292.834802 34.267161 
L 295.35842 31.341935 
L 297.882038 28.416709 
L 300.405656 25.491482 
L 302.929274 22.566256 
L 305.452893 19.64103 
L 307.976511 16.715804 
" clip-path="url(#p55d406cb64)" style="fill: none; stroke: #c44e52; stroke-width: 2; stroke-linecap: square"/>
   </g>
   <g id="patch_3">
    <path d="M 37.949375 402.48 
L 37.949375 14.4 
" style="fill: none; stroke: #000000; stroke-width: 0.8; stroke-linejoin: miter; stroke-linecap: square"/>
   </g>
   <g id="patch_4">
    <path d="M 37.949375 402.48 
L 540.149375 402.48 
" style="fill: none; stroke: #000000; stroke-width: 0.8; stroke-linejoin: miter; stroke-linecap: square"/>
   </g>
   <g id="text_3">
    <g id="patch_5">
     <path d="M 351.830782 297.908079 
L 360.132345 297.908079 
Q 361.132345 297.908079 361.132345 296.908079 
L 361.132345 287.229954 
Q 361.132345 286.229954 360.132345 286.229954 
L 351.830782 286.229954 
Q 350.830782 286.229954 350.830782 287.229954 
L 350.830782 296.908079 
Q 350.830782 297.908079 351.830782 297.908079 
z
" style="fill: #ffffff; opacity: 0.85"/>
    </g>
    <!-- D -->
    <g style="fill: #2b5b84" transform="translate(351.830782 294.828392) scale(0.1 -0.1)">
     <defs>
      <path id="DejaVuSans-Bold-44" d="M 1791 3756 
L 1791 909 
L 2222 909 
Q 2959 909 3348 1275 
Q 3738 1641 3738 2338 
Q 3738 3031 3350 3393 
Q 2963 3756 2222 3756 
L 1791 3756 
z
M 588 4666 
L 1856 4666 
Q 2919 4666 3439 4514 
Q 3959 4363 4331 4000 
Q 4659 3684 4818 3271 
Q 4978 2859 4978 2338 
Q 4978 1809 4818 1395 
Q 4659 981 4331 666 
Q 3956 303 3431 151 
Q 2906 0 1856 0 
L 588 0 
L 588 4666 
z
" transform="scale(0.015625)"/>
     </defs>
     <use xlink:href="#DejaVuSans-Bold-44"/>
    </g>
   </g>
   <g id="text_4">
    <g id="patch_6">
     <path d="M 233.220732 107.402728 
L 285.089482 107.402728 
Q 286.089482 107.402728 286.089482 106.402728 
L 286.089482 96.724603 
Q 286.089482 95.724603 285.089482 95.724603 
L 233.220732 95.724603 
Q 232.220732 95.724603 232.220732 96.724603 
L 232.220732 106.402728 
Q 232.220732 107.402728 233.220732 107.402728 
z
" style="fill: #ffffff; opacity: 0.85"/>
    </g>
    <!-- S (s=1.5) -->
    <g style="fill: #c44e52" transform="translate(233.220732 104.32304) scale(0.1 -0.1)">
     <defs>
      <path id="DejaVuSans-Bold-53" d="M 3834 4519 
L 3834 3531 
Q 3450 3703 3084 3790 
Q 2719 3878 2394 3878 
Q 1963 3878 1756 3759 
Q 1550 3641 1550 3391 
Q 1550 3203 1689 3098 
Q 1828 2994 2194 2919 
L 2706 2816 
Q 3484 2659 3812 2340 
Q 4141 2022 4141 1434 
Q 4141 663 3683 286 
Q 3225 -91 2284 -91 
Q 1841 -91 1394 -6 
Q 947 78 500 244 
L 500 1259 
Q 947 1022 1364 901 
Q 1781 781 2169 781 
Q 2563 781 2772 912 
Q 2981 1044 2981 1288 
Q 2981 1506 2839 1625 
Q 2697 1744 2272 1838 
L 1806 1941 
Q 1106 2091 782 2419 
Q 459 2747 459 3303 
Q 459 4000 909 4375 
Q 1359 4750 2203 4750 
Q 2588 4750 2994 4692 
Q 3400 4634 3834 4519 
z
" transform="scale(0.015625)"/>
      <path id="DejaVuSans-Bold-20" transform="scale(0.015625)"/>
      <path id="DejaVuSans-Bold-28" d="M 2413 -844 
L 1484 -844 
Q 1006 -72 778 623 
Q 550 1319 550 2003 
Q 550 2688 779 3389 
Q 1009 4091 1484 4856 
L 2413 4856 
Q 2013 4116 1813 3408 
Q 1613 2700 1613 2009 
Q 1613 1319 1811 609 
Q 2009 -100 2413 -844 
z
" transform="scale(0.015625)"/>
      <path id="DejaVuSans-Bold-73" d="M 3272 3391 
L 3272 2541 
Q 2913 2691 2578 2766 
Q 2244 2841 1947 2841 
Q 1628 2841 1473 2761 
Q 1319 2681 1319 2516 
Q 1319 2381 1436 2309 
Q 1553 2238 1856 2203 
L 2053 2175 
Q 2913 2066 3209 1816 
Q 3506 1566 3506 1031 
Q 3506 472 3093 190 
Q 2681 -91 1863 -91 
Q 1516 -91 1145 -36 
Q 775 19 384 128 
L 384 978 
Q 719 816 1070 734 
Q 1422 653 1784 653 
Q 2113 653 2278 743 
Q 2444 834 2444 1013 
Q 2444 1163 2330 1236 
Q 2216 1309 1875 1350 
L 1678 1375 
Q 931 1469 631 1722 
Q 331 1975 331 2491 
Q 331 3047 712 3315 
Q 1094 3584 1881 3584 
Q 2191 3584 2531 3537 
Q 2872 3491 3272 3391 
z
" transform="scale(0.015625)"/>
      <path id="DejaVuSans-Bold-3d" d="M 678 3084 
L 4684 3084 
L 4684 2350 
L 678 2350 
L 678 3084 
z
M 678 1663 
L 4684 1663 
L 4684 922 
L 678 922 
L 678 1663 
z
" transform="scale(0.015625)"/>
      <path id="DejaVuSans-Bold-31" d="M 750 831 
L 1813 831 
L 1813 3847 
L 722 3622 
L 722 4441 
L 1806 4666 
L 2950 4666 
L 2950 831 
L 4013 831 
L 4013 0 
L 750 0 
L 750 831 
z
" transform="scale(0.015625)"/>
      <path id="DejaVuSans-Bold-2e" d="M 653 1209 
L 1778 1209 
L 1778 0 
L 653 0 
L 653 1209 
z
" transform="scale(0.015625)"/>
      <path id="DejaVuSans-Bold-35" d="M 678 4666 
L 3669 4666 
L 3669 3781 
L 1638 3781 
L 1638 3059 
Q 1775 3097 1914 3117 
Q 2053 3138 2203 3138 
Q 3056 3138 3531 2711 
Q 4006 2284 4006 1522 
Q 4006 766 3489 337 
Q 2972 -91 2053 -91 
Q 1656 -91 1267 -14 
Q 878 63 494 219 
L 494 1166 
Q 875 947 1217 837 
Q 1559 728 1863 728 
Q 2300 728 2551 942 
Q 2803 1156 2803 1522 
Q 2803 1891 2551 2103 
Q 2300 2316 1863 2316 
Q 1603 2316 1309 2248 
Q 1016 2181 678 2041 
L 678 4666 
z
" transform="scale(0.015625)"/>
      <path id="DejaVuSans-Bold-29" d="M 513 -844 
Q 913 -100 1113 609 
Q 1313 1319 1313 2009 
Q 1313 2700 1113 3408 
Q 913 4116 513 4856 
L 1441 4856 
Q 1916 4091 2145 3389 
Q 2375 2688 2375 2003 
Q 2375 1319 2147 623 
Q 1919 -72 1441 -844 
L 513 -844 
z
" transform="scale(0.015625)"/>
     </defs>
     <use xlink:href="#DejaVuSans-Bold-53"/>
     <use xlink:href="#DejaVuSans-Bold-20" x="72.021484"/>
     <use xlink:href="#DejaVuSans-Bold-28" x="106.835938"/>
     <use xlink:href="#DejaVuSans-Bold-73" x="152.539062"/>
     <use xlink:href="#DejaVuSans-Bold-3d" x="212.060547"/>
     <use xlink:href="#DejaVuSans-Bold-31" x="295.849609"/>
     <use xlink:href="#DejaVuSans-Bold-2e" x="365.429688"/>
     <use xlink:href="#DejaVuSans-Bold-35" x="403.417969"/>
     <use xlink:href="#DejaVuSans-Bold-29" x="472.998047"/>
    </g>
   </g>
   <g id="text_5">
    <g id="patch_7">
     <path d="M 186.054375 164.119656 
L 193.56875 164.119656 
Q 195.76875 164.119656 195.76875 161.919656 
L 195.76875 151.273719 
Q 195.76875 149.073719 193.56875 149.073719 
L 186.054375 149.073719 
Q 183.854375 149.073719 183.854375 151.273719 
L 183.854375 161.919656 
Q 183.854375 164.119656 186.054375 164.119656 
z
" style="fill: #ffffff; opacity: 0.8"/>
    </g>
    <!-- E -->
    <g transform="translate(186.054375 159.632) scale(0.11 -0.11)">
     <defs>
      <path id="DejaVuSans-Bold-45" d="M 588 4666 
L 3834 4666 
L 3834 3756 
L 1791 3756 
L 1791 2888 
L 3713 2888 
L 3713 1978 
L 1791 1978 
L 1791 909 
L 3903 909 
L 3903 0 
L 588 0 
L 588 4666 
z
" transform="scale(0.015625)"/>
     </defs>
     <use xlink:href="#DejaVuSans-Bold-45"/>
    </g>
   </g>
   <g id="line2d_5">
    <defs>
     <path id="mc969bcd1fc" d="M 0 4 
C 1.060812 4 2.078319 3.578535 2.828427 2.828427 
C 3.578535 2.078319 4 1.060812 4 0 
C 4 -1.060812 3.578535 -2.078319 2.828427 -2.828427 
C 2.078319 -3.578535 1.060812 -4 0 -4 
C -1.060812 -4 -2.078319 -3.578535 -2.828427 -2.828427 
C -3.578535 -2.078319 -4 -1.060812 -4 0 
C -4 1.060812 -3.578535 2.078319 -2.828427 2.828427 
C -2.078319 3.578535 -1.060812 4 0 4 
z
" style="stroke: #ffffff; stroke-width: 1.5"/>
    </defs>
    <g clip-path="url(#p55d406cb64)">
     <use xlink:href="#mc969bcd1fc" x="176.054375" y="169.632" style="fill: #1a1a1a; stroke: #ffffff; stroke-width: 1.5"/>
    </g>
   </g>
  </g>
 </g>
 <defs>
  <clipPath id="p55d406cb64">
   <rect x="37.949375" y="14.4" width="502.2" height="388.08"/>
  </clipPath>
 </defs>
</svg>
