<?xml version="1.0" encoding="utf-8" standalone="no"?>
<!DOCTYPE svg PUBLIC "-//W3C//DTD SVG 1.1//EN"
  "http://www.w3.org/Graphics/SVG/1.1/DTD/svg11.dtd">
<svg xmlns:xlink="http://www.w3.org/1999/xlink" width="554.549375pt" height="440.429375pt" viewBox="0 0 554.549375 440.429375" xmlns="http://www.w3.org/2000/svg" version="1.1">
 <metadata>
  <rdf:RDF xmlns:dc="http://purl.org/dc/elements/1.1/" xmlns:cc="http://creativecommons.org/ns#" xmlns:rdf="http://www.w3.org/1999/02/22-rdf-syntax-ns#">
   <cc:Work>
    <dc:type rdf:resource="http://purl.org/dc/dcmitype/StillImage"/>
    <dc:date>2026-06-01T18:31:56.974988</dc:date>
    <dc:format>image/svg+xml</dc:format>
    <dc:creator>
     <cc:Agent>
      <dc:title>Matplotlib v3.9.4, https://matplotlib.org/</dc:title>
     </cc:Agent>
    </dc:creator>
   </cc:Work>
  </rdf:RDF>
 </metadata>
 <defs>
  <style type="text/css">*{stroke-linejoin: round; stroke-linecap: butt}</style>
 </defs>
 <g id="figure_1">
  <g id="patch_1">
   <path d="M 0 440.429375 
L 554.549375 440.429375 
L 554.549375 0 
L 0 0 
z
" style="fill: #ffffff"/>
  </g>
  <g id="axes_1">
   <g id="patch_2">
    <path d="M 37.949375 402.48 
L 540.149375 402.48 
L 540.149375 14.4 
L 37.949375 14.4 
z
" style="fill: #ffffff"/>
   </g>
   <g id="line2d_1">
    <path d="M 253.738438 402.48 
L 253.738438 229.663125 
" clip-path="url(#p977fa720b9)" style="fill: none; stroke-dasharray: 2.59,1.12; stroke-dashoffset: 0; stroke: #999999; stroke-opacity: 0.4; stroke-width: 0.7"/>
   </g>
   <g id="line2d_2">
    <path d="M 37.949375 229.663125 
L 253.738438 229.663125 
" clip-path="url(#p977fa720b9)" style="fill: none; stroke-dasharray: 2.59,1.12; stroke-dashoffset: 0; stroke: #999999; stroke-opacity: 0.4; stroke-width: 0.7"/>
   </g>
   <g id="line2d_3">
    <path d="M 194.886875 402.48 
L 194.886875 184.185 
" clip-path="url(#p977fa720b9)" style="fill: none; stroke-dasharray: 2.59,1.12; stroke-dashoffset: 0; stroke: #999999; stroke-opacity: 0.4; stroke-width: 0.7"/>
   </g>
   <g id="line2d_4">
    <path d="M 37.949375 184.185 
L 194.886875 184.185 
" clip-path="url(#p977fa720b9)" style="fill: none; stroke-dasharray: 2.59,1.12; stroke-dashoffset: 0; stroke: #999999; stroke-opacity: 0.4; stroke-width: 0.7"/>
   </g>
   <g id="matplotlib.axis_1">
    <g id="xtick_1"/>
    <g id="xtick_2"/>
    <g id="xtick_3"/>
    <g id="xtick_4"/>
    <g id="xtick_5"/>
    <g id="xtick_6"/>
    <g id="xtick_7"/>
    <g id="xtick_8"/>
    <g id="xtick_9"/>
    <g id="text_1">
     <!-- Q -->
     <g transform="translate(283.539063 423.117812) scale(0.14 -0.14)">
      <defs>
       <path id="DejaVuSans-51" d="M 2522 4238 
Q 1834 4238 1429 3725 
Q 1025 3213 1025 2328 
Q 1025 1447 1429 934 
Q 1834 422 2522 422 
Q 3209 422 3611 934 
Q 4013 1447 4013 2328 
Q 4013 3213 3611 3725 
Q 3209 4238 2522 4238 
z
M 3406 84 
L 4238 -825 
L 3475 -825 
L 2784 -78 
Q 2681 -84 2626 -87 
Q 2572 -91 2522 -91 
Q 1538 -91 948 567 
Q 359 1225 359 2328 
Q 359 3434 948 4092 
Q 1538 4750 2522 4750 
Q 3503 4750 4090 4092 
Q 4678 3434 4678 2328 
Q 4678 1516 4351 937 
Q 4025 359 3406 84 
z
" transform="scale(0.015625)"/>
      </defs>
      <use xlink:href="#DejaVuSans-51"/>
     </g>
    </g>
   </g>
   <g id="matplotlib.axis_2">
    <g id="ytick_1"/>
    <g id="ytick_2"/>
    <g id="ytick_3"/>
    <g id="ytick_4"/>
    <g id="ytick_5"/>
    <g id="ytick_6"/>
    <g id="ytick_7"/>
    <g id="ytick_8"/>
    <g id="ytick_9"/>
    <g id="text_2">
     <!-- Cost/Benefit -->
     <g transform="translate(25.037813 251.366406) rotate(-90) scale(0.14 -0.14)">
      <defs>
       <path id="DejaVuSans-43" d="M 4122 4306 
L 4122 3641 
Q 3803 3938 3442 4084 
Q 3081 4231 2675 4231 
Q 1875 4231 1450 3742 
Q 1025 3253 1025 2328 
Q 1025 1406 1450 917 
Q 1875 428 2675 428 
Q 3081 428 3442 575 
Q 3803 722 4122 1019 
L 4122 359 
Q 3791 134 3420 21 
Q 3050 -91 2638 -91 
Q 1578 -91 968 557 
Q 359 1206 359 2328 
Q 359 3453 968 4101 
Q 1578 4750 2638 4750 
Q 3056 4750 3426 4639 
Q 3797 4528 4122 4306 
z
" transform="scale(0.015625)"/>
       <path id="DejaVuSans-6f" d="M 1959 3097 
Q 1497 3097 1228 2736 
Q 959 2375 959 1747 
Q 959 1119 1226 758 
Q 1494 397 1959 397 
Q 2419 397 2687 759 
Q 2956 1122 2956 1747 
Q 2956 2369 2687 2733 
Q 2419 3097 1959 3097 
z
M 1959 3584 
Q 2709 3584 3137 3096 
Q 3566 2609 3566 1747 
Q 3566 888 3137 398 
Q 2709 -91 1959 -91 
Q 1206 -91 779 398 
Q 353 888 353 1747 
Q 353 2609 779 3096 
Q 1206 3584 1959 3584 
z
" transform="scale(0.015625)"/>
       <path id="DejaVuSans-73" d="M 2834 3397 
L 2834 2853 
Q 2591 2978 2328 3040 
Q 2066 3103 1784 3103 
Q 1356 3103 1142 2972 
Q 928 2841 928 2578 
Q 928 2378 1081 2264 
Q 1234 2150 1697 2047 
L 1894 2003 
Q 2506 1872 2764 1633 
Q 3022 1394 3022 966 
Q 3022 478 2636 193 
Q 2250 -91 1575 -91 
Q 1294 -91 989 -36 
Q 684 19 347 128 
L 347 722 
Q 666 556 975 473 
Q 1284 391 1588 391 
Q 1994 391 2212 530 
Q 2431 669 2431 922 
Q 2431 1156 2273 1281 
Q 2116 1406 1581 1522 
L 1381 1569 
Q 847 1681 609 1914 
Q 372 2147 372 2553 
Q 372 3047 722 3315 
Q 1072 3584 1716 3584 
Q 2034 3584 2315 3537 
Q 2597 3491 2834 3397 
z
" transform="scale(0.015625)"/>
       <path id="DejaVuSans-74" d="M 1172 4494 
L 1172 3500 
L 2356 3500 
L 2356 3053 
L 1172 3053 
L 1172 1153 
Q 1172 725 1289 603 
Q 1406 481 1766 481 
L 2356 481 
L 2356 0 
L 1766 0 
Q 1100 0 847 248 
Q 594 497 594 1153 
L 594 3053 
L 172 3053 
L 172 3500 
L 594 3500 
L 594 4494 
L 1172 4494 
z
" transform="scale(0.015625)"/>
       <path id="DejaVuSans-2f" d="M 1625 4666 
L 2156 4666 
L 531 -594 
L 0 -594 
L 1625 4666 
z
" transform="scale(0.015625)"/>
       <path id="DejaVuSans-42" d="M 1259 2228 
L 1259 519 
L 2272 519 
Q 2781 519 3026 730 
Q 3272 941 3272 1375 
Q 3272 1813 3026 2020 
Q 2781 2228 2272 2228 
L 1259 2228 
z
M 1259 4147 
L 1259 2741 
L 2194 2741 
Q 2656 2741 2882 2914 
Q 3109 3088 3109 3444 
Q 3109 3797 2882 3972 
Q 2656 4147 2194 4147 
L 1259 4147 
z
M 628 4666 
L 2241 4666 
Q 2963 4666 3353 4366 
Q 3744 4066 3744 3513 
Q 3744 3084 3544 2831 
Q 3344 2578 2956 2516 
Q 3422 2416 3680 2098 
Q 3938 1781 3938 1306 
Q 3938 681 3513 340 
Q 3088 0 2303 0 
L 628 0 
L 628 4666 
z
" transform="scale(0.015625)"/>
       <path id="DejaVuSans-65" d="M 3597 1894 
L 3597 1613 
L 953 1613 
Q 991 1019 1311 708 
Q 1631 397 2203 397 
Q 2534 397 2845 478 
Q 3156 559 3463 722 
L 3463 178 
Q 3153 47 2828 -22 
Q 2503 -91 2169 -91 
Q 1331 -91 842 396 
Q 353 884 353 1716 
Q 353 2575 817 3079 
Q 1281 3584 2069 3584 
Q 2775 3584 3186 3129 
Q 3597 2675 3597 1894 
z
M 3022 2063 
Q 3016 2534 2758 2815 
Q 2500 3097 2075 3097 
Q 1594 3097 1305 2825 
Q 1016 2553 972 2059 
L 3022 2063 
z
" transform="scale(0.015625)"/>
       <path id="DejaVuSans-6e" d="M 3513 2113 
L 3513 0 
L 2938 0 
L 2938 2094 
Q 2938 2591 2744 2837 
Q 2550 3084 2163 3084 
Q 1697 3084 1428 2787 
Q 1159 2491 1159 1978 
L 1159 0 
L 581 0 
L 581 3500 
L 1159 3500 
L 1159 2956 
Q 1366 3272 1645 3428 
Q 1925 3584 2291 3584 
Q 2894 3584 3203 3211 
Q 3513 2838 3513 2113 
z
" transform="scale(0.015625)"/>
       <path id="DejaVuSans-66" d="M 2375 4863 
L 2375 4384 
L 1825 4384 
Q 1516 4384 1395 4259 
Q 1275 4134 1275 3809 
L 1275 3500 
L 2222 3500 
L 2222 3053 
L 1275 3053 
L 1275 0 
L 697 0 
L 697 3053 
L 147 3053 
L 147 3500 
L 697 3500 
L 697 3744 
Q 697 4328 969 4595 
Q 1241 4863 1831 4863 
L 2375 4863 
z
" transform="scale(0.015625)"/>
       <path id="DejaVuSans-69" d="M 603 3500 
L 1178 3500 
L 1178 0 
L 603 0 
L 603 3500 
z
M 603 4863 
L 1178 4863 
L 1178 4134 
L 603 4134 
L 603 4863 
z
" transform="scale(0.015625)"/>
      </defs>
      <use xlink:href="#DejaVuSans-43"/>
      <use xlink:href="#DejaVuSans-6f" x="69.824219"/>
      <use xlink:href="#DejaVuSans-73" x="131.005859"/>
      <use xlink:href="#DejaVuSans-74" x="183.105469"/>
      <use xlink:href="#DejaVuSans-2f" x="222.314453"/>
      <use xlink:href="#DejaVuSans-42" x="256.005859"/>
      <use xlink:href="#DejaVuSans-65" x="324.609375"/>
      <use xlink:href="#DejaVuSans-6e" x="386.132812"/>
      <use xlink:href="#DejaVuSans-65" x="449.511719"/>
      <use xlink:href="#DejaVuSans-66" x="511.035156"/>
      <use xlink:href="#DejaVuSans-69" x="546.240234"/>
      <use xlink:href="#DejaVuSans-74" x="574.023438"/>
     </g>
    </g>
   </g>
   <g id="line2d_5">
    <path d="M 37.949375 62.91 
L 477.058923 402.236231 
L 477.058923 402.236231 
" clip-path="url(#p977fa720b9)" style="fill: none; stroke: #2b5b84; stroke-width: 2; stroke-linecap: square"/>
   </g>
   <g id="line2d_6">
    <path d="M 37.949375 329.715 
L 540.149375 96.867 
L 540.149375 96.867 
" clip-path="url(#p977fa720b9)" style="fill: none; stroke: #c44e52; stroke-width: 2; stroke-linecap: square"/>
   </g>
   <g id="line2d_7">
    <path d="M 37.949375 256.95 
L 540.149375 24.102 
L 540.149375 24.102 
" clip-path="url(#p977fa720b9)" style="fill: none; stroke: #e67e22; stroke-width: 2; stroke-linecap: square"/>
   </g>
   <g id="patch_3">
    <path d="M 37.949375 402.48 
L 37.949375 14.4 
" style="fill: none; stroke: #000000; stroke-width: 0.8; stroke-linejoin: miter; stroke-linecap: square"/>
   </g>
   <g id="patch_4">
    <path d="M 37.949375 402.48 
L 540.149375 402.48 
" style="fill: none; stroke: #000000; stroke-width: 0.8; stroke-linejoin: miter; stroke-linecap: square"/>
   </g>
   <g id="text_3">
    <g id="patch_5">
     <path d="M 351.830782 297.908079 
L 393.415157 297.908079 
Q 394.415157 297.908079 394.415157 296.908079 
L 394.415157 287.229954 
Q 394.415157 286.229954 393.415157 286.229954 
L 351.830782 286.229954 
Q 350.830782 286.229954 350.830782 287.229954 
L 350.830782 296.908079 
Q 350.830782 297.908079 351.830782 297.908079 
z
" style="fill: #ffffff; opacity: 0.85"/>
    </g>
    <!-- D=MPB -->
    <g style="fill: #2b5b84" transform="translate(351.830782 294.828392) scale(0.1 -0.1)">
     <defs>
      <path id="DejaVuSans-Bold-44" d="M 1791 3756 
L 1791 909 
L 2222 909 
Q 2959 909 3348 1275 
Q 3738 1641 3738 2338 
Q 3738 3031 3350 3393 
Q 2963 3756 2222 3756 
L 1791 3756 
z
M 588 4666 
L 1856 4666 
Q 2919 4666 3439 4514 
Q 3959 4363 4331 4000 
Q 4659 3684 4818 3271 
Q 4978 2859 4978 2338 
Q 4978 1809 4818 1395 
Q 4659 981 4331 666 
Q 3956 303 3431 151 
Q 2906 0 1856 0 
L 588 0 
L 588 4666 
z
" transform="scale(0.015625)"/>
      <path id="DejaVuSans-Bold-3d" d="M 678 3084 
L 4684 3084 
L 4684 2350 
L 678 2350 
L 678 3084 
z
M 678 1663 
L 4684 1663 
L 4684 922 
L 678 922 
L 678 1663 
z
" transform="scale(0.015625)"/>
      <path id="DejaVuSans-Bold-4d" d="M 588 4666 
L 2119 4666 
L 3181 2169 
L 4250 4666 
L 5778 4666 
L 5778 0 
L 4641 0 
L 4641 3413 
L 3566 897 
L 2803 897 
L 1728 3413 
L 1728 0 
L 588 0 
L 588 4666 
z
" transform="scale(0.015625)"/>
      <path id="DejaVuSans-Bold-50" d="M 588 4666 
L 2584 4666 
Q 3475 4666 3951 4270 
Q 4428 3875 4428 3144 
Q 4428 2409 3951 2014 
Q 3475 1619 2584 1619 
L 1791 1619 
L 1791 0 
L 588 0 
L 588 4666 
z
M 1791 3794 
L 1791 2491 
L 2456 2491 
Q 2806 2491 2997 2661 
Q 3188 2831 3188 3144 
Q 3188 3456 2997 3625 
Q 2806 3794 2456 3794 
L 1791 3794 
z
" transform="scale(0.015625)"/>
      <path id="DejaVuSans-Bold-42" d="M 2456 2859 
Q 2741 2859 2887 2984 
Q 3034 3109 3034 3353 
Q 3034 3594 2887 3720 
Q 2741 3847 2456 3847 
L 1791 3847 
L 1791 2859 
L 2456 2859 
z
M 2497 819 
Q 2859 819 3042 972 
Q 3225 1125 3225 1434 
Q 3225 1738 3044 1889 
Q 2863 2041 2497 2041 
L 1791 2041 
L 1791 819 
L 2497 819 
z
M 3616 2497 
Q 4003 2384 4215 2081 
Q 4428 1778 4428 1338 
Q 4428 663 3972 331 
Q 3516 0 2584 0 
L 588 0 
L 588 4666 
L 2394 4666 
Q 3366 4666 3802 4372 
Q 4238 4078 4238 3431 
Q 4238 3091 4078 2852 
Q 3919 2613 3616 2497 
z
" transform="scale(0.015625)"/>
     </defs>
     <use xlink:href="#DejaVuSans-Bold-44"/>
     <use xlink:href="#DejaVuSans-Bold-3d" x="83.007812"/>
     <use xlink:href="#DejaVuSans-Bold-4d" x="166.796875"/>
     <use xlink:href="#DejaVuSans-Bold-50" x="266.308594"/>
     <use xlink:href="#DejaVuSans-Bold-42" x="339.599609"/>
    </g>
   </g>
   <g id="text_4">
    <g id="patch_6">
     <path d="M 397.255908 162.982024 
L 437.45747 162.982024 
Q 438.45747 162.982024 438.45747 161.982024 
L 438.45747 152.303899 
Q 438.45747 151.303899 437.45747 151.303899 
L 397.255908 151.303899 
Q 396.255908 151.303899 396.255908 152.303899 
L 396.255908 161.982024 
Q 396.255908 162.982024 397.255908 162.982024 
z
" style="fill: #ffffff; opacity: 0.85"/>
    </g>
    <!-- MPC=S -->
    <g style="fill: #c44e52" transform="translate(397.255908 159.902337) scale(0.1 -0.1)">
     <defs>
      <path id="DejaVuSans-Bold-43" d="M 4288 256 
Q 3956 84 3597 -3 
Q 3238 -91 2847 -91 
Q 1681 -91 1000 561 
Q 319 1213 319 2328 
Q 319 3447 1000 4098 
Q 1681 4750 2847 4750 
Q 3238 4750 3597 4662 
Q 3956 4575 4288 4403 
L 4288 3438 
Q 3953 3666 3628 3772 
Q 3303 3878 2944 3878 
Q 2300 3878 1931 3465 
Q 1563 3053 1563 2328 
Q 1563 1606 1931 1193 
Q 2300 781 2944 781 
Q 3303 781 3628 887 
Q 3953 994 4288 1222 
L 4288 256 
z
" transform="scale(0.015625)"/>
      <path id="DejaVuSans-Bold-53" d="M 3834 4519 
L 3834 3531 
Q 3450 3703 3084 3790 
Q 2719 3878 2394 3878 
Q 1963 3878 1756 3759 
Q 1550 3641 1550 3391 
Q 1550 3203 1689 3098 
Q 1828 2994 2194 2919 
L 2706 2816 
Q 3484 2659 3812 2340 
Q 4141 2022 4141 1434 
Q 4141 663 3683 286 
Q 3225 -91 2284 -91 
Q 1841 -91 1394 -6 
Q 947 78 500 244 
L 500 1259 
Q 947 1022 1364 901 
Q 1781 781 2169 781 
Q 2563 781 2772 912 
Q 2981 1044 2981 1288 
Q 2981 1506 2839 1625 
Q 2697 1744 2272 1838 
L 1806 1941 
Q 1106 2091 782 2419 
Q 459 2747 459 3303 
Q 459 4000 909 4375 
Q 1359 4750 2203 4750 
Q 2588 4750 2994 4692 
Q 3400 4634 3834 4519 
z
" transform="scale(0.015625)"/>
     </defs>
     <use xlink:href="#DejaVuSans-Bold-4d"/>
     <use xlink:href="#DejaVuSans-Bold-50" x="99.511719"/>
     <use xlink:href="#DejaVuSans-Bold-43" x="172.802734"/>
     <use xlink:href="#DejaVuSans-Bold-3d" x="246.191406"/>
     <use xlink:href="#DejaVuSans-Bold-53" x="329.980469"/>
    </g>
   </g>
   <g id="text_5">
    <g id="patch_7">
     <path d="M 397.255908 90.217024 
L 421.748095 90.217024 
Q 422.748095 90.217024 422.748095 89.217024 
L 422.748095 79.538899 
Q 422.748095 78.538899 421.748095 78.538899 
L 397.255908 78.538899 
Q 396.255908 78.538899 396.255908 79.538899 
L 396.255908 89.217024 
Q 396.255908 90.217024 397.255908 90.217024 
z
" style="fill: #ffffff; opacity: 0.85"/>
    </g>
    <!-- MSC -->
    <g style="fill: #e67e22" transform="translate(397.255908 87.137337) scale(0.1 -0.1)">
     <use xlink:href="#DejaVuSans-Bold-4d"/>
     <use xlink:href="#DejaVuSans-Bold-53" x="99.511719"/>
     <use xlink:href="#DejaVuSans-Bold-43" x="171.533203"/>
    </g>
   </g>
   <g id="text_6">
    <g id="patch_8">
     <path d="M 261.738438 246.150781 
L 274.5225 246.150781 
Q 276.7225 246.150781 276.7225 243.950781 
L 276.7225 233.304844 
Q 276.7225 231.104844 274.5225 231.104844 
L 261.738438 231.104844 
Q 259.538438 231.104844 259.538438 233.304844 
L 259.538438 243.950781 
Q 259.538438 246.150781 261.738438 246.150781 
z
" style="fill: #ffffff; opacity: 0.8"/>
    </g>
    <!-- Eₚ -->
    <g transform="translate(261.738438 241.663125) scale(0.11 -0.11)">
     <defs>
      <path id="DejaVuSans-Bold-45" d="M 588 4666 
L 3834 4666 
L 3834 3756 
L 1791 3756 
L 1791 2888 
L 3713 2888 
L 3713 1978 
L 1791 1978 
L 1791 909 
L 3903 909 
L 3903 0 
L 588 0 
L 588 4666 
z
" transform="scale(0.015625)"/>
      <path id="DejaVuSans-Bold-209a" d="M 1047 260 
L 1047 -771 
L 341 -771 
L 341 1935 
L 1047 1935 
L 1047 1647 
Q 1191 1819 1369 1900 
Q 1547 1982 1775 1982 
Q 2184 1982 2444 1694 
Q 2706 1407 2706 954 
Q 2706 501 2444 213 
Q 2184 -74 1775 -74 
Q 1547 -74 1369 7 
Q 1191 88 1047 260 
z
M 1513 1529 
Q 1288 1529 1166 1379 
Q 1047 1232 1047 954 
Q 1047 676 1166 529 
Q 1288 379 1513 379 
Q 1741 379 1859 525 
Q 1978 672 1978 953 
Q 1978 1235 1859 1382 
Q 1741 1529 1513 1529 
z
" transform="scale(0.015625)"/>
     </defs>
     <use xlink:href="#DejaVuSans-Bold-45"/>
     <use xlink:href="#DejaVuSans-Bold-209a" x="68.310547"/>
    </g>
   </g>
   <g id="text_7">
    <g id="patch_9">
     <path d="M 202.886875 180.672656 
L 214.591563 180.672656 
Q 216.791562 180.672656 216.791562 178.472656 
L 216.791562 167.826719 
Q 216.791562 165.626719 214.591563 165.626719 
L 202.886875 165.626719 
Q 200.686875 165.626719 200.686875 167.826719 
L 200.686875 178.472656 
Q 200.686875 180.672656 202.886875 180.672656 
z
" style="fill: #ffffff; opacity: 0.8"/>
    </g>
    <!-- Eₛ -->
    <g transform="translate(202.886875 176.185) scale(0.11 -0.11)">
     <defs>
      <path id="DejaVuSans-Bold-209b" d="M 2094 1876 
L 2094 1397 
Q 1863 1482 1650 1526 
Q 1438 1566 1247 1566 
Q 1041 1566 944 1522 
Q 844 1476 844 1385 
Q 844 1310 919 1269 
Q 994 1229 1188 1210 
L 1313 1194 
Q 1863 1132 2053 991 
Q 2244 854 2244 554 
Q 2244 241 1981 82 
Q 1716 -74 1191 -74 
Q 969 -74 734 -43 
Q 497 -15 247 47 
L 247 522 
Q 459 432 684 388 
Q 909 341 1141 341 
Q 1353 341 1459 391 
Q 1563 444 1563 541 
Q 1563 626 1491 666 
Q 1419 710 1200 732 
L 1075 744 
Q 597 797 403 941 
Q 213 1082 213 1369 
Q 213 1682 456 1832 
Q 700 1982 1203 1982 
Q 1403 1982 1619 1957 
Q 1838 1932 2094 1876 
z
" transform="scale(0.015625)"/>
     </defs>
     <use xlink:href="#DejaVuSans-Bold-45"/>
     <use xlink:href="#DejaVuSans-Bold-209b" x="68.310547"/>
    </g>
   </g>
   <g id="line2d_8">
    <defs>
     <path id="ma4367e8e0a" d="M 0 4 
C 1.060812 4 2.078319 3.578535 2.828427 2.828427 
C 3.578535 2.078319 4 1.060812 4 0 
C 4 -1.060812 3.578535 -2.078319 2.828427 -2.828427 
C 2.078319 -3.578535 1.060812 -4 0 -4 
C -1.060812 -4 -2.078319 -3.578535 -2.828427 -2.828427 
C -3.578535 -2.078319 -4 -1.060812 -4 0 
C -4 1.060812 -3.578535 2.078319 -2.828427 2.828427 
C -2.078319 3.578535 -1.060812 4 0 4 
z
" style="stroke: #ffffff; stroke-width: 1.5"/>
    </defs>
    <g clip-path="url(#p977fa720b9)">
     <use xlink:href="#ma4367e8e0a" x="253.738438" y="229.663125" style="fill: #1a1a1a; stroke: #ffffff; stroke-width: 1.5"/>
    </g>
   </g>
   <g id="line2d_9">
    <g clip-path="url(#p977fa720b9)">
     <use xlink:href="#ma4367e8e0a" x="194.886875" y="184.185" style="fill: #1a1a1a; stroke: #ffffff; stroke-width: 1.5"/>
    </g>
   </g>
  </g>
 </g>
 <defs>
  <clipPath id="p977fa720b9">
   <rect x="37.949375" y="14.4" width="502.2" height="388.08"/>
  </clipPath>
 </defs>
</svg>
