<?xml version="1.0" encoding="utf-8" standalone="no"?>
<!DOCTYPE svg PUBLIC "-//W3C//DTD SVG 1.1//EN"
  "http://www.w3.org/Graphics/SVG/1.1/DTD/svg11.dtd">
<svg xmlns:xlink="http://www.w3.org/1999/xlink" width="554.549375pt" height="440.429375pt" viewBox="0 0 554.549375 440.429375" xmlns="http://www.w3.org/2000/svg" version="1.1">
 <metadata>
  <rdf:RDF xmlns:dc="http://purl.org/dc/elements/1.1/" xmlns:cc="http://creativecommons.org/ns#" xmlns:rdf="http://www.w3.org/1999/02/22-rdf-syntax-ns#">
   <cc:Work>
    <dc:type rdf:resource="http://purl.org/dc/dcmitype/StillImage"/>
    <dc:date>2026-06-01T18:31:56.836772</dc:date>
    <dc:format>image/svg+xml</dc:format>
    <dc:creator>
     <cc:Agent>
      <dc:title>Matplotlib v3.9.4, https://matplotlib.org/</dc:title>
     </cc:Agent>
    </dc:creator>
   </cc:Work>
  </rdf:RDF>
 </metadata>
 <defs>
  <style type="text/css">*{stroke-linejoin: round; stroke-linecap: butt}</style>
 </defs>
 <g id="figure_1">
  <g id="patch_1">
   <path d="M 0 440.429375 
L 554.549375 440.429375 
L 554.549375 0 
L 0 0 
z
" style="fill: #ffffff"/>
  </g>
  <g id="axes_1">
   <g id="patch_2">
    <path d="M 37.949375 402.48 
L 540.149375 402.48 
L 540.149375 14.4 
L 37.949375 14.4 
z
" style="fill: #ffffff"/>
   </g>
   <g id="line2d_1">
    <path d="M 202.360089 402.48 
L 202.360089 253.485 
" clip-path="url(#pf7e4f7f9b5)" style="fill: none; stroke-dasharray: 2.59,1.12; stroke-dashoffset: 0; stroke: #999999; stroke-opacity: 0.4; stroke-width: 0.7"/>
   </g>
   <g id="line2d_2">
    <path d="M 37.949375 253.485 
L 202.360089 253.485 
" clip-path="url(#pf7e4f7f9b5)" style="fill: none; stroke-dasharray: 2.59,1.12; stroke-dashoffset: 0; stroke: #999999; stroke-opacity: 0.4; stroke-width: 0.7"/>
   </g>
   <g id="matplotlib.axis_1">
    <g id="xtick_1"/>
    <g id="xtick_2"/>
    <g id="xtick_3"/>
    <g id="xtick_4"/>
    <g id="xtick_5"/>
    <g id="xtick_6"/>
    <g id="xtick_7"/>
    <g id="xtick_8"/>
    <g id="xtick_9"/>
    <g id="text_1">
     <!-- Q -->
     <g transform="translate(283.539063 423.117812) scale(0.14 -0.14)">
      <defs>
       <path id="DejaVuSans-51" d="M 2522 4238 
Q 1834 4238 1429 3725 
Q 1025 3213 1025 2328 
Q 1025 1447 1429 934 
Q 1834 422 2522 422 
Q 3209 422 3611 934 
Q 4013 1447 4013 2328 
Q 4013 3213 3611 3725 
Q 3209 4238 2522 4238 
z
M 3406 84 
L 4238 -825 
L 3475 -825 
L 2784 -78 
Q 2681 -84 2626 -87 
Q 2572 -91 2522 -91 
Q 1538 -91 948 567 
Q 359 1225 359 2328 
Q 359 3434 948 4092 
Q 1538 4750 2522 4750 
Q 3503 4750 4090 4092 
Q 4678 3434 4678 2328 
Q 4678 1516 4351 937 
Q 4025 359 3406 84 
z
" transform="scale(0.015625)"/>
      </defs>
      <use xlink:href="#DejaVuSans-51"/>
     </g>
    </g>
   </g>
   <g id="matplotlib.axis_2">
    <g id="ytick_1"/>
    <g id="ytick_2"/>
    <g id="ytick_3"/>
    <g id="ytick_4"/>
    <g id="ytick_5"/>
    <g id="ytick_6"/>
    <g id="ytick_7"/>
    <g id="ytick_8"/>
    <g id="ytick_9"/>
    <g id="text_2">
     <!-- P -->
     <g transform="translate(25.037813 212.660781) rotate(-90) scale(0.14 -0.14)">
      <defs>
       <path id="DejaVuSans-50" d="M 1259 4147 
L 1259 2394 
L 2053 2394 
Q 2494 2394 2734 2622 
Q 2975 2850 2975 3272 
Q 2975 3691 2734 3919 
Q 2494 4147 2053 4147 
L 1259 4147 
z
M 628 4666 
L 2053 4666 
Q 2838 4666 3239 4311 
Q 3641 3956 3641 3272 
Q 3641 2581 3239 2228 
Q 2838 1875 2053 1875 
L 1259 1875 
L 1259 0 
L 628 0 
L 628 4666 
z
" transform="scale(0.015625)"/>
      </defs>
      <use xlink:href="#DejaVuSans-50"/>
     </g>
    </g>
   </g>
   <g id="line2d_3">
    <path d="M 37.949375 62.91 
L 40.472993 65.835226 
L 42.996611 68.760452 
L 45.520229 71.685678 
L 48.043847 74.610905 
L 50.567465 77.536131 
L 53.091084 80.461357 
L 55.614702 83.386583 
L 58.13832 86.311809 
L 60.661938 89.237035 
L 63.185556 92.162261 
L 65.709174 95.087487 
L 68.232792 98.012714 
L 70.75641 100.93794 
L 73.280028 103.863166 
L 75.803646 106.788392 
L 78.327264 109.713618 
L 80.850883 112.638844 
L 83.374501 115.56407 
L 85.898119 118.489296 
L 88.421737 121.414523 
L 90.945355 124.339749 
L 93.468973 127.264975 
L 95.992591 130.190201 
L 98.516209 133.115427 
L 101.039827 136.040653 
L 103.563445 138.965879 
L 106.087063 141.891106 
L 108.610682 144.816332 
L 111.1343 147.741558 
L 113.657918 150.666784 
L 116.181536 153.59201 
L 118.705154 156.517236 
L 121.228772 159.442462 
L 123.75239 162.367688 
L 126.276008 165.292915 
L 128.799626 168.218141 
L 131.323244 171.143367 
L 133.846862 174.068593 
L 136.370481 176.993819 
L 138.894099 179.919045 
L 141.417717 182.844271 
L 143.941335 185.769497 
L 146.464953 188.694724 
L 148.988571 191.61995 
L 151.512189 194.545176 
L 154.035807 197.470402 
L 156.559425 200.395628 
L 159.083043 203.320854 
L 161.606661 206.24608 
L 164.13028 209.171307 
L 166.653898 212.096533 
L 169.177516 215.021759 
L 171.701134 217.946985 
L 174.224752 220.872211 
L 176.74837 223.797437 
L 179.271988 226.722663 
L 181.795606 229.647889 
L 184.319224 232.573116 
L 186.842842 235.498342 
L 189.36646 238.423568 
L 191.890079 241.348794 
L 194.413697 244.27402 
L 196.937315 247.199246 
L 199.460933 250.124472 
L 201.984551 253.049698 
L 204.508169 255.974925 
L 207.031787 258.900151 
L 209.555405 261.825377 
L 212.079023 264.750603 
L 214.602641 267.675829 
L 217.126259 270.601055 
L 219.649878 273.526281 
L 222.173496 276.451508 
L 224.697114 279.376734 
L 227.220732 282.30196 
L 229.74435 285.227186 
L 232.267968 288.152412 
L 234.791586 291.077638 
L 237.315204 294.002864 
L 239.838822 296.92809 
L 242.36244 299.853317 
L 244.886058 302.778543 
L 247.409677 305.703769 
L 249.933295 308.628995 
L 252.456913 311.554221 
L 254.980531 314.479447 
L 257.504149 317.404673 
L 260.027767 320.329899 
L 262.551385 323.255126 
L 265.075003 326.180352 
L 267.598621 329.105578 
L 270.122239 332.030804 
L 272.645857 334.95603 
L 275.169476 337.881256 
L 277.693094 340.806482 
L 280.216712 343.731709 
L 282.74033 346.656935 
L 285.263948 349.582161 
L 287.787566 352.507387 
L 290.311184 355.432613 
L 292.834802 358.357839 
L 295.35842 361.283065 
L 297.882038 364.208291 
L 300.405656 367.133518 
L 302.929274 370.058744 
L 305.452893 372.98397 
L 307.976511 375.909196 
L 310.500129 378.834422 
L 313.023747 381.759648 
L 315.547365 384.684874 
L 318.070983 387.610101 
L 320.594601 390.535327 
L 323.118219 393.460553 
L 325.641837 396.385779 
L 328.165455 399.311005 
L 330.689073 402.236231 
" clip-path="url(#pf7e4f7f9b5)" style="fill: none; stroke: #2b5b84; stroke-width: 2; stroke-linecap: square"/>
   </g>
   <g id="line2d_4">
    <path d="M 37.949375 329.715 
L 540.149375 96.867 
L 540.149375 96.867 
" clip-path="url(#pf7e4f7f9b5)" style="fill: none; stroke: #c44e52; stroke-width: 2; stroke-linecap: square"/>
   </g>
   <g id="patch_3">
    <path d="M 37.949375 402.48 
L 37.949375 14.4 
" style="fill: none; stroke: #000000; stroke-width: 0.8; stroke-linejoin: miter; stroke-linecap: square"/>
   </g>
   <g id="patch_4">
    <path d="M 37.949375 402.48 
L 540.149375 402.48 
" style="fill: none; stroke: #000000; stroke-width: 0.8; stroke-linejoin: miter; stroke-linecap: square"/>
   </g>
   <g id="text_3">
    <g id="patch_5">
     <path d="M 248.36244 296.933004 
L 316.879628 296.933004 
Q 317.879628 296.933004 317.879628 295.933004 
L 317.879628 286.254879 
Q 317.879628 285.254879 316.879628 285.254879 
L 248.36244 285.254879 
Q 247.36244 285.254879 247.36244 286.254879 
L 247.36244 295.933004 
Q 247.36244 296.933004 248.36244 296.933004 
z
" style="fill: #ffffff; opacity: 0.85"/>
    </g>
    <!-- D (inelastic) -->
    <g style="fill: #2b5b84" transform="translate(248.36244 293.853317) scale(0.1 -0.1)">
     <defs>
      <path id="DejaVuSans-Bold-44" d="M 1791 3756 
L 1791 909 
L 2222 909 
Q 2959 909 3348 1275 
Q 3738 1641 3738 2338 
Q 3738 3031 3350 3393 
Q 2963 3756 2222 3756 
L 1791 3756 
z
M 588 4666 
L 1856 4666 
Q 2919 4666 3439 4514 
Q 3959 4363 4331 4000 
Q 4659 3684 4818 3271 
Q 4978 2859 4978 2338 
Q 4978 1809 4818 1395 
Q 4659 981 4331 666 
Q 3956 303 3431 151 
Q 2906 0 1856 0 
L 588 0 
L 588 4666 
z
" transform="scale(0.015625)"/>
      <path id="DejaVuSans-Bold-20" transform="scale(0.015625)"/>
      <path id="DejaVuSans-Bold-28" d="M 2413 -844 
L 1484 -844 
Q 1006 -72 778 623 
Q 550 1319 550 2003 
Q 550 2688 779 3389 
Q 1009 4091 1484 4856 
L 2413 4856 
Q 2013 4116 1813 3408 
Q 1613 2700 1613 2009 
Q 1613 1319 1811 609 
Q 2009 -100 2413 -844 
z
" transform="scale(0.015625)"/>
      <path id="DejaVuSans-Bold-69" d="M 538 3500 
L 1656 3500 
L 1656 0 
L 538 0 
L 538 3500 
z
M 538 4863 
L 1656 4863 
L 1656 3950 
L 538 3950 
L 538 4863 
z
" transform="scale(0.015625)"/>
      <path id="DejaVuSans-Bold-6e" d="M 4056 2131 
L 4056 0 
L 2931 0 
L 2931 347 
L 2931 1631 
Q 2931 2084 2911 2256 
Q 2891 2428 2841 2509 
Q 2775 2619 2662 2680 
Q 2550 2741 2406 2741 
Q 2056 2741 1856 2470 
Q 1656 2200 1656 1722 
L 1656 0 
L 538 0 
L 538 3500 
L 1656 3500 
L 1656 2988 
Q 1909 3294 2193 3439 
Q 2478 3584 2822 3584 
Q 3428 3584 3742 3212 
Q 4056 2841 4056 2131 
z
" transform="scale(0.015625)"/>
      <path id="DejaVuSans-Bold-65" d="M 4031 1759 
L 4031 1441 
L 1416 1441 
Q 1456 1047 1700 850 
Q 1944 653 2381 653 
Q 2734 653 3104 758 
Q 3475 863 3866 1075 
L 3866 213 
Q 3469 63 3072 -14 
Q 2675 -91 2278 -91 
Q 1328 -91 801 392 
Q 275 875 275 1747 
Q 275 2603 792 3093 
Q 1309 3584 2216 3584 
Q 3041 3584 3536 3087 
Q 4031 2591 4031 1759 
z
M 2881 2131 
Q 2881 2450 2695 2645 
Q 2509 2841 2209 2841 
Q 1884 2841 1681 2658 
Q 1478 2475 1428 2131 
L 2881 2131 
z
" transform="scale(0.015625)"/>
      <path id="DejaVuSans-Bold-6c" d="M 538 4863 
L 1656 4863 
L 1656 0 
L 538 0 
L 538 4863 
z
" transform="scale(0.015625)"/>
      <path id="DejaVuSans-Bold-61" d="M 2106 1575 
Q 1756 1575 1579 1456 
Q 1403 1338 1403 1106 
Q 1403 894 1545 773 
Q 1688 653 1941 653 
Q 2256 653 2472 879 
Q 2688 1106 2688 1447 
L 2688 1575 
L 2106 1575 
z
M 3816 1997 
L 3816 0 
L 2688 0 
L 2688 519 
Q 2463 200 2181 54 
Q 1900 -91 1497 -91 
Q 953 -91 614 226 
Q 275 544 275 1050 
Q 275 1666 698 1953 
Q 1122 2241 2028 2241 
L 2688 2241 
L 2688 2328 
Q 2688 2594 2478 2717 
Q 2269 2841 1825 2841 
Q 1466 2841 1156 2769 
Q 847 2697 581 2553 
L 581 3406 
Q 941 3494 1303 3539 
Q 1666 3584 2028 3584 
Q 2975 3584 3395 3211 
Q 3816 2838 3816 1997 
z
" transform="scale(0.015625)"/>
      <path id="DejaVuSans-Bold-73" d="M 3272 3391 
L 3272 2541 
Q 2913 2691 2578 2766 
Q 2244 2841 1947 2841 
Q 1628 2841 1473 2761 
Q 1319 2681 1319 2516 
Q 1319 2381 1436 2309 
Q 1553 2238 1856 2203 
L 2053 2175 
Q 2913 2066 3209 1816 
Q 3506 1566 3506 1031 
Q 3506 472 3093 190 
Q 2681 -91 1863 -91 
Q 1516 -91 1145 -36 
Q 775 19 384 128 
L 384 978 
Q 719 816 1070 734 
Q 1422 653 1784 653 
Q 2113 653 2278 743 
Q 2444 834 2444 1013 
Q 2444 1163 2330 1236 
Q 2216 1309 1875 1350 
L 1678 1375 
Q 931 1469 631 1722 
Q 331 1975 331 2491 
Q 331 3047 712 3315 
Q 1094 3584 1881 3584 
Q 2191 3584 2531 3537 
Q 2872 3491 3272 3391 
z
" transform="scale(0.015625)"/>
      <path id="DejaVuSans-Bold-74" d="M 1759 4494 
L 1759 3500 
L 2913 3500 
L 2913 2700 
L 1759 2700 
L 1759 1216 
Q 1759 972 1856 886 
Q 1953 800 2241 800 
L 2816 800 
L 2816 0 
L 1856 0 
Q 1194 0 917 276 
Q 641 553 641 1216 
L 641 2700 
L 84 2700 
L 84 3500 
L 641 3500 
L 641 4494 
L 1759 4494 
z
" transform="scale(0.015625)"/>
      <path id="DejaVuSans-Bold-63" d="M 3366 3391 
L 3366 2478 
Q 3138 2634 2908 2709 
Q 2678 2784 2431 2784 
Q 1963 2784 1702 2511 
Q 1441 2238 1441 1747 
Q 1441 1256 1702 982 
Q 1963 709 2431 709 
Q 2694 709 2930 787 
Q 3166 866 3366 1019 
L 3366 103 
Q 3103 6 2833 -42 
Q 2563 -91 2291 -91 
Q 1344 -91 809 395 
Q 275 881 275 1747 
Q 275 2613 809 3098 
Q 1344 3584 2291 3584 
Q 2566 3584 2833 3536 
Q 3100 3488 3366 3391 
z
" transform="scale(0.015625)"/>
      <path id="DejaVuSans-Bold-29" d="M 513 -844 
Q 913 -100 1113 609 
Q 1313 1319 1313 2009 
Q 1313 2700 1113 3408 
Q 913 4116 513 4856 
L 1441 4856 
Q 1916 4091 2145 3389 
Q 2375 2688 2375 2003 
Q 2375 1319 2147 623 
Q 1919 -72 1441 -844 
L 513 -844 
z
" transform="scale(0.015625)"/>
     </defs>
     <use xlink:href="#DejaVuSans-Bold-44"/>
     <use xlink:href="#DejaVuSans-Bold-20" x="83.007812"/>
     <use xlink:href="#DejaVuSans-Bold-28" x="117.822266"/>
     <use xlink:href="#DejaVuSans-Bold-69" x="163.525391"/>
     <use xlink:href="#DejaVuSans-Bold-6e" x="197.802734"/>
     <use xlink:href="#DejaVuSans-Bold-65" x="268.994141"/>
     <use xlink:href="#DejaVuSans-Bold-6c" x="336.816406"/>
     <use xlink:href="#DejaVuSans-Bold-61" x="371.09375"/>
     <use xlink:href="#DejaVuSans-Bold-73" x="438.574219"/>
     <use xlink:href="#DejaVuSans-Bold-74" x="498.095703"/>
     <use xlink:href="#DejaVuSans-Bold-69" x="545.898438"/>
     <use xlink:href="#DejaVuSans-Bold-63" x="580.175781"/>
     <use xlink:href="#DejaVuSans-Bold-29" x="639.453125"/>
    </g>
   </g>
   <g id="text_4">
    <g id="patch_6">
     <path d="M 397.255908 162.982024 
L 404.45747 162.982024 
Q 405.45747 162.982024 405.45747 161.982024 
L 405.45747 152.303899 
Q 405.45747 151.303899 404.45747 151.303899 
L 397.255908 151.303899 
Q 396.255908 151.303899 396.255908 152.303899 
L 396.255908 161.982024 
Q 396.255908 162.982024 397.255908 162.982024 
z
" style="fill: #ffffff; opacity: 0.85"/>
    </g>
    <!-- S -->
    <g style="fill: #c44e52" transform="translate(397.255908 159.902337) scale(0.1 -0.1)">
     <defs>
      <path id="DejaVuSans-Bold-53" d="M 3834 4519 
L 3834 3531 
Q 3450 3703 3084 3790 
Q 2719 3878 2394 3878 
Q 1963 3878 1756 3759 
Q 1550 3641 1550 3391 
Q 1550 3203 1689 3098 
Q 1828 2994 2194 2919 
L 2706 2816 
Q 3484 2659 3812 2340 
Q 4141 2022 4141 1434 
Q 4141 663 3683 286 
Q 3225 -91 2284 -91 
Q 1841 -91 1394 -6 
Q 947 78 500 244 
L 500 1259 
Q 947 1022 1364 901 
Q 1781 781 2169 781 
Q 2563 781 2772 912 
Q 2981 1044 2981 1288 
Q 2981 1506 2839 1625 
Q 2697 1744 2272 1838 
L 1806 1941 
Q 1106 2091 782 2419 
Q 459 2747 459 3303 
Q 459 4000 909 4375 
Q 1359 4750 2203 4750 
Q 2588 4750 2994 4692 
Q 3400 4634 3834 4519 
z
" transform="scale(0.015625)"/>
     </defs>
     <use xlink:href="#DejaVuSans-Bold-53"/>
    </g>
   </g>
   <g id="text_5">
    <g id="patch_7">
     <path d="M 212.360089 247.972656 
L 219.874464 247.972656 
Q 222.074464 247.972656 222.074464 245.772656 
L 222.074464 235.126719 
Q 222.074464 232.926719 219.874464 232.926719 
L 212.360089 232.926719 
Q 210.160089 232.926719 210.160089 235.126719 
L 210.160089 245.772656 
Q 210.160089 247.972656 212.360089 247.972656 
z
" style="fill: #ffffff; opacity: 0.8"/>
    </g>
    <!-- E -->
    <g transform="translate(212.360089 243.485) scale(0.11 -0.11)">
     <defs>
      <path id="DejaVuSans-Bold-45" d="M 588 4666 
L 3834 4666 
L 3834 3756 
L 1791 3756 
L 1791 2888 
L 3713 2888 
L 3713 1978 
L 1791 1978 
L 1791 909 
L 3903 909 
L 3903 0 
L 588 0 
L 588 4666 
z
" transform="scale(0.015625)"/>
     </defs>
     <use xlink:href="#DejaVuSans-Bold-45"/>
    </g>
   </g>
   <g id="line2d_5">
    <defs>
     <path id="m0119ddceb6" d="M 0 4 
C 1.060812 4 2.078319 3.578535 2.828427 2.828427 
C 3.578535 2.078319 4 1.060812 4 0 
C 4 -1.060812 3.578535 -2.078319 2.828427 -2.828427 
C 2.078319 -3.578535 1.060812 -4 0 -4 
C -1.060812 -4 -2.078319 -3.578535 -2.828427 -2.828427 
C -3.578535 -2.078319 -4 -1.060812 -4 0 
C -4 1.060812 -3.578535 2.078319 -2.828427 2.828427 
C -2.078319 3.578535 -1.060812 4 0 4 
z
" style="stroke: #ffffff; stroke-width: 1.5"/>
    </defs>
    <g clip-path="url(#pf7e4f7f9b5)">
     <use xlink:href="#m0119ddceb6" x="202.360089" y="253.485" style="fill: #1a1a1a; stroke: #ffffff; stroke-width: 1.5"/>
    </g>
   </g>
  </g>
 </g>
 <defs>
  <clipPath id="pf7e4f7f9b5">
   <rect x="37.949375" y="14.4" width="502.2" height="388.08"/>
  </clipPath>
 </defs>
</svg>
