<?xml version="1.0" encoding="utf-8" standalone="no"?>
<!DOCTYPE svg PUBLIC "-//W3C//DTD SVG 1.1//EN"
  "http://www.w3.org/Graphics/SVG/1.1/DTD/svg11.dtd">
<svg xmlns:xlink="http://www.w3.org/1999/xlink" width="517.489062pt" height="377.05375pt" viewBox="0 0 517.489062 377.05375" xmlns="http://www.w3.org/2000/svg" version="1.1">
 <metadata>
  <rdf:RDF xmlns:dc="http://purl.org/dc/elements/1.1/" xmlns:cc="http://creativecommons.org/ns#" xmlns:rdf="http://www.w3.org/1999/02/22-rdf-syntax-ns#">
   <cc:Work>
    <dc:type rdf:resource="http://purl.org/dc/dcmitype/StillImage"/>
    <dc:date>2026-06-01T20:07:41.276424</dc:date>
    <dc:format>image/svg+xml</dc:format>
    <dc:creator>
     <cc:Agent>
      <dc:title>Matplotlib v3.9.4, https://matplotlib.org/</dc:title>
     </cc:Agent>
    </dc:creator>
   </cc:Work>
  </rdf:RDF>
 </metadata>
 <defs>
  <style type="text/css">*{stroke-linejoin: round; stroke-linecap: butt}</style>
 </defs>
 <g id="figure_1">
  <g id="patch_1">
   <path d="M 0 377.05375 
L 517.489062 377.05375 
L 517.489062 0 
L 0 0 
z
" style="fill: #ffffff"/>
  </g>
  <g id="axes_1">
   <g id="patch_2">
    <path d="M 30.01375 347.04 
L 476.41375 347.04 
L 476.41375 14.4 
L 30.01375 14.4 
z
" style="fill: #ffffff"/>
   </g>
   <g id="line2d_1">
    <path d="M 197.41375 347.04 
L 197.41375 247.248 
" clip-path="url(#pb95d13123c)" style="fill: none; stroke-dasharray: 2.59,1.12; stroke-dashoffset: 0; stroke: #999999; stroke-opacity: 0.4; stroke-width: 0.7"/>
   </g>
   <g id="line2d_2">
    <path d="M 30.01375 247.248 
L 197.41375 247.248 
" clip-path="url(#pb95d13123c)" style="fill: none; stroke-dasharray: 2.59,1.12; stroke-dashoffset: 0; stroke: #999999; stroke-opacity: 0.4; stroke-width: 0.7"/>
   </g>
   <g id="line2d_3">
    <path d="M 364.81375 347.04 
L 364.81375 247.248 
" clip-path="url(#pb95d13123c)" style="fill: none; stroke-dasharray: 2.59,1.12; stroke-dashoffset: 0; stroke: #999999; stroke-opacity: 0.4; stroke-width: 0.7"/>
   </g>
   <g id="line2d_4">
    <path d="M 30.01375 247.248 
L 364.81375 247.248 
" clip-path="url(#pb95d13123c)" style="fill: none; stroke-dasharray: 2.59,1.12; stroke-dashoffset: 0; stroke: #999999; stroke-opacity: 0.4; stroke-width: 0.7"/>
   </g>
   <g id="matplotlib.axis_1">
    <g id="xtick_1"/>
    <g id="xtick_2"/>
    <g id="xtick_3"/>
    <g id="xtick_4"/>
    <g id="xtick_5"/>
    <g id="xtick_6"/>
    <g id="text_1">
     <!-- Quantity -->
     <g transform="translate(227.28625 360.158125) scale(0.12 -0.12)">
      <defs>
       <path id="DejaVuSans-51" d="M 2522 4238 
Q 1834 4238 1429 3725 
Q 1025 3213 1025 2328 
Q 1025 1447 1429 934 
Q 1834 422 2522 422 
Q 3209 422 3611 934 
Q 4013 1447 4013 2328 
Q 4013 3213 3611 3725 
Q 3209 4238 2522 4238 
z
M 3406 84 
L 4238 -825 
L 3475 -825 
L 2784 -78 
Q 2681 -84 2626 -87 
Q 2572 -91 2522 -91 
Q 1538 -91 948 567 
Q 359 1225 359 2328 
Q 359 3434 948 4092 
Q 1538 4750 2522 4750 
Q 3503 4750 4090 4092 
Q 4678 3434 4678 2328 
Q 4678 1516 4351 937 
Q 4025 359 3406 84 
z
" transform="scale(0.015625)"/>
       <path id="DejaVuSans-75" d="M 544 1381 
L 544 3500 
L 1119 3500 
L 1119 1403 
Q 1119 906 1312 657 
Q 1506 409 1894 409 
Q 2359 409 2629 706 
Q 2900 1003 2900 1516 
L 2900 3500 
L 3475 3500 
L 3475 0 
L 2900 0 
L 2900 538 
Q 2691 219 2414 64 
Q 2138 -91 1772 -91 
Q 1169 -91 856 284 
Q 544 659 544 1381 
z
M 1991 3584 
L 1991 3584 
z
" transform="scale(0.015625)"/>
       <path id="DejaVuSans-61" d="M 2194 1759 
Q 1497 1759 1228 1600 
Q 959 1441 959 1056 
Q 959 750 1161 570 
Q 1363 391 1709 391 
Q 2188 391 2477 730 
Q 2766 1069 2766 1631 
L 2766 1759 
L 2194 1759 
z
M 3341 1997 
L 3341 0 
L 2766 0 
L 2766 531 
Q 2569 213 2275 61 
Q 1981 -91 1556 -91 
Q 1019 -91 701 211 
Q 384 513 384 1019 
Q 384 1609 779 1909 
Q 1175 2209 1959 2209 
L 2766 2209 
L 2766 2266 
Q 2766 2663 2505 2880 
Q 2244 3097 1772 3097 
Q 1472 3097 1187 3025 
Q 903 2953 641 2809 
L 641 3341 
Q 956 3463 1253 3523 
Q 1550 3584 1831 3584 
Q 2591 3584 2966 3190 
Q 3341 2797 3341 1997 
z
" transform="scale(0.015625)"/>
       <path id="DejaVuSans-6e" d="M 3513 2113 
L 3513 0 
L 2938 0 
L 2938 2094 
Q 2938 2591 2744 2837 
Q 2550 3084 2163 3084 
Q 1697 3084 1428 2787 
Q 1159 2491 1159 1978 
L 1159 0 
L 581 0 
L 581 3500 
L 1159 3500 
L 1159 2956 
Q 1366 3272 1645 3428 
Q 1925 3584 2291 3584 
Q 2894 3584 3203 3211 
Q 3513 2838 3513 2113 
z
" transform="scale(0.015625)"/>
       <path id="DejaVuSans-74" d="M 1172 4494 
L 1172 3500 
L 2356 3500 
L 2356 3053 
L 1172 3053 
L 1172 1153 
Q 1172 725 1289 603 
Q 1406 481 1766 481 
L 2356 481 
L 2356 0 
L 1766 0 
Q 1100 0 847 248 
Q 594 497 594 1153 
L 594 3053 
L 172 3053 
L 172 3500 
L 594 3500 
L 594 4494 
L 1172 4494 
z
" transform="scale(0.015625)"/>
       <path id="DejaVuSans-69" d="M 603 3500 
L 1178 3500 
L 1178 0 
L 603 0 
L 603 3500 
z
M 603 4863 
L 1178 4863 
L 1178 4134 
L 603 4134 
L 603 4863 
z
" transform="scale(0.015625)"/>
       <path id="DejaVuSans-79" d="M 2059 -325 
Q 1816 -950 1584 -1140 
Q 1353 -1331 966 -1331 
L 506 -1331 
L 506 -850 
L 844 -850 
Q 1081 -850 1212 -737 
Q 1344 -625 1503 -206 
L 1606 56 
L 191 3500 
L 800 3500 
L 1894 763 
L 2988 3500 
L 3597 3500 
L 2059 -325 
z
" transform="scale(0.015625)"/>
      </defs>
      <use xlink:href="#DejaVuSans-51"/>
      <use xlink:href="#DejaVuSans-75" x="78.710938"/>
      <use xlink:href="#DejaVuSans-61" x="142.089844"/>
      <use xlink:href="#DejaVuSans-6e" x="203.369141"/>
      <use xlink:href="#DejaVuSans-74" x="266.748047"/>
      <use xlink:href="#DejaVuSans-69" x="305.957031"/>
      <use xlink:href="#DejaVuSans-74" x="333.740234"/>
      <use xlink:href="#DejaVuSans-79" x="372.949219"/>
     </g>
    </g>
   </g>
   <g id="matplotlib.axis_2">
    <g id="ytick_1"/>
    <g id="ytick_2"/>
    <g id="ytick_3"/>
    <g id="ytick_4"/>
    <g id="ytick_5"/>
    <g id="ytick_6"/>
    <g id="text_2">
     <!-- Price/Cost -->
     <g transform="translate(23.518125 210.717188) rotate(-90) scale(0.12 -0.12)">
      <defs>
       <path id="DejaVuSans-50" d="M 1259 4147 
L 1259 2394 
L 2053 2394 
Q 2494 2394 2734 2622 
Q 2975 2850 2975 3272 
Q 2975 3691 2734 3919 
Q 2494 4147 2053 4147 
L 1259 4147 
z
M 628 4666 
L 2053 4666 
Q 2838 4666 3239 4311 
Q 3641 3956 3641 3272 
Q 3641 2581 3239 2228 
Q 2838 1875 2053 1875 
L 1259 1875 
L 1259 0 
L 628 0 
L 628 4666 
z
" transform="scale(0.015625)"/>
       <path id="DejaVuSans-72" d="M 2631 2963 
Q 2534 3019 2420 3045 
Q 2306 3072 2169 3072 
Q 1681 3072 1420 2755 
Q 1159 2438 1159 1844 
L 1159 0 
L 581 0 
L 581 3500 
L 1159 3500 
L 1159 2956 
Q 1341 3275 1631 3429 
Q 1922 3584 2338 3584 
Q 2397 3584 2469 3576 
Q 2541 3569 2628 3553 
L 2631 2963 
z
" transform="scale(0.015625)"/>
       <path id="DejaVuSans-63" d="M 3122 3366 
L 3122 2828 
Q 2878 2963 2633 3030 
Q 2388 3097 2138 3097 
Q 1578 3097 1268 2742 
Q 959 2388 959 1747 
Q 959 1106 1268 751 
Q 1578 397 2138 397 
Q 2388 397 2633 464 
Q 2878 531 3122 666 
L 3122 134 
Q 2881 22 2623 -34 
Q 2366 -91 2075 -91 
Q 1284 -91 818 406 
Q 353 903 353 1747 
Q 353 2603 823 3093 
Q 1294 3584 2113 3584 
Q 2378 3584 2631 3529 
Q 2884 3475 3122 3366 
z
" transform="scale(0.015625)"/>
       <path id="DejaVuSans-65" d="M 3597 1894 
L 3597 1613 
L 953 1613 
Q 991 1019 1311 708 
Q 1631 397 2203 397 
Q 2534 397 2845 478 
Q 3156 559 3463 722 
L 3463 178 
Q 3153 47 2828 -22 
Q 2503 -91 2169 -91 
Q 1331 -91 842 396 
Q 353 884 353 1716 
Q 353 2575 817 3079 
Q 1281 3584 2069 3584 
Q 2775 3584 3186 3129 
Q 3597 2675 3597 1894 
z
M 3022 2063 
Q 3016 2534 2758 2815 
Q 2500 3097 2075 3097 
Q 1594 3097 1305 2825 
Q 1016 2553 972 2059 
L 3022 2063 
z
" transform="scale(0.015625)"/>
       <path id="DejaVuSans-2f" d="M 1625 4666 
L 2156 4666 
L 531 -594 
L 0 -594 
L 1625 4666 
z
" transform="scale(0.015625)"/>
       <path id="DejaVuSans-43" d="M 4122 4306 
L 4122 3641 
Q 3803 3938 3442 4084 
Q 3081 4231 2675 4231 
Q 1875 4231 1450 3742 
Q 1025 3253 1025 2328 
Q 1025 1406 1450 917 
Q 1875 428 2675 428 
Q 3081 428 3442 575 
Q 3803 722 4122 1019 
L 4122 359 
Q 3791 134 3420 21 
Q 3050 -91 2638 -91 
Q 1578 -91 968 557 
Q 359 1206 359 2328 
Q 359 3453 968 4101 
Q 1578 4750 2638 4750 
Q 3056 4750 3426 4639 
Q 3797 4528 4122 4306 
z
" transform="scale(0.015625)"/>
       <path id="DejaVuSans-6f" d="M 1959 3097 
Q 1497 3097 1228 2736 
Q 959 2375 959 1747 
Q 959 1119 1226 758 
Q 1494 397 1959 397 
Q 2419 397 2687 759 
Q 2956 1122 2956 1747 
Q 2956 2369 2687 2733 
Q 2419 3097 1959 3097 
z
M 1959 3584 
Q 2709 3584 3137 3096 
Q 3566 2609 3566 1747 
Q 3566 888 3137 398 
Q 2709 -91 1959 -91 
Q 1206 -91 779 398 
Q 353 888 353 1747 
Q 353 2609 779 3096 
Q 1206 3584 1959 3584 
z
" transform="scale(0.015625)"/>
       <path id="DejaVuSans-73" d="M 2834 3397 
L 2834 2853 
Q 2591 2978 2328 3040 
Q 2066 3103 1784 3103 
Q 1356 3103 1142 2972 
Q 928 2841 928 2578 
Q 928 2378 1081 2264 
Q 1234 2150 1697 2047 
L 1894 2003 
Q 2506 1872 2764 1633 
Q 3022 1394 3022 966 
Q 3022 478 2636 193 
Q 2250 -91 1575 -91 
Q 1294 -91 989 -36 
Q 684 19 347 128 
L 347 722 
Q 666 556 975 473 
Q 1284 391 1588 391 
Q 1994 391 2212 530 
Q 2431 669 2431 922 
Q 2431 1156 2273 1281 
Q 2116 1406 1581 1522 
L 1381 1569 
Q 847 1681 609 1914 
Q 372 2147 372 2553 
Q 372 3047 722 3315 
Q 1072 3584 1716 3584 
Q 2034 3584 2315 3537 
Q 2597 3491 2834 3397 
z
" transform="scale(0.015625)"/>
      </defs>
      <use xlink:href="#DejaVuSans-50"/>
      <use xlink:href="#DejaVuSans-72" x="58.552734"/>
      <use xlink:href="#DejaVuSans-69" x="99.666016"/>
      <use xlink:href="#DejaVuSans-63" x="127.449219"/>
      <use xlink:href="#DejaVuSans-65" x="182.429688"/>
      <use xlink:href="#DejaVuSans-2f" x="243.953125"/>
      <use xlink:href="#DejaVuSans-43" x="277.644531"/>
      <use xlink:href="#DejaVuSans-6f" x="347.46875"/>
      <use xlink:href="#DejaVuSans-73" x="408.650391"/>
      <use xlink:href="#DejaVuSans-74" x="460.75"/>
     </g>
    </g>
   </g>
   <g id="line2d_5">
    <path d="M 30.01375 47.664 
L 476.41375 313.776 
L 476.41375 313.776 
" clip-path="url(#pb95d13123c)" style="fill: none; stroke: #2b5b84; stroke-width: 2; stroke-linecap: square"/>
   </g>
   <g id="line2d_6">
    <path d="M 30.01375 47.664 
L 32.256966 50.338492 
L 34.500182 53.012985 
L 36.743398 55.687477 
L 38.986614 58.36197 
L 41.22983 61.036462 
L 43.473046 63.710955 
L 45.716263 66.385447 
L 47.959479 69.05994 
L 50.202695 71.734432 
L 52.445911 74.408925 
L 54.689127 77.083417 
L 56.932343 79.75791 
L 59.175559 82.432402 
L 61.418775 85.106894 
L 63.661991 87.781387 
L 65.905207 90.455879 
L 68.148423 93.130372 
L 70.391639 95.804864 
L 72.634856 98.479357 
L 74.878072 101.153849 
L 77.121288 103.828342 
L 79.364504 106.502834 
L 81.60772 109.177327 
L 83.850936 111.851819 
L 86.094152 114.526312 
L 88.337368 117.200804 
L 90.580584 119.875296 
L 92.8238 122.549789 
L 95.067016 125.224281 
L 97.310232 127.898774 
L 99.553448 130.573266 
L 101.796665 133.247759 
L 104.039881 135.922251 
L 106.283097 138.596744 
L 108.526313 141.271236 
L 110.769529 143.945729 
L 113.012745 146.620221 
L 115.255961 149.294714 
L 117.499177 151.969206 
L 119.742393 154.643698 
L 121.985609 157.318191 
L 124.228825 159.992683 
L 126.472041 162.667176 
L 128.715258 165.341668 
L 130.958474 168.016161 
L 133.20169 170.690653 
L 135.444906 173.365146 
L 137.688122 176.039638 
L 139.931338 178.714131 
L 142.174554 181.388623 
L 144.41777 184.063116 
L 146.660986 186.737608 
L 148.904202 189.412101 
L 151.147418 192.086593 
L 153.390634 194.761085 
L 155.633851 197.435578 
L 157.877067 200.11007 
L 160.120283 202.784563 
L 162.363499 205.459055 
L 164.606715 208.133548 
L 166.849931 210.80804 
L 169.093147 213.482533 
L 171.336363 216.157025 
L 173.579579 218.831518 
L 175.822795 221.50601 
L 178.066011 224.180503 
L 180.309227 226.854995 
L 182.552443 229.529487 
L 184.79566 232.20398 
L 187.038876 234.878472 
L 189.282092 237.552965 
L 191.525308 240.227457 
L 193.768524 242.90195 
L 196.01174 245.576442 
L 198.254956 248.250935 
L 200.498172 250.925427 
L 202.741388 253.59992 
L 204.984604 256.274412 
L 207.22782 258.948905 
L 209.471036 261.623397 
L 211.714253 264.297889 
L 213.957469 266.972382 
L 216.200685 269.646874 
L 218.443901 272.321367 
L 220.687117 274.995859 
L 222.930333 277.670352 
L 225.173549 280.344844 
L 227.416765 283.019337 
L 229.659981 285.693829 
L 231.903197 288.368322 
L 234.146413 291.042814 
L 236.389629 293.717307 
L 238.632845 296.391799 
L 240.876062 299.066291 
L 243.119278 301.740784 
L 245.362494 304.415276 
L 247.60571 307.089769 
L 249.848926 309.764261 
L 252.092142 312.438754 
L 254.335358 315.113246 
L 256.578574 317.787739 
L 258.82179 320.462231 
L 261.065006 323.136724 
L 263.308222 325.811216 
L 265.551438 328.485709 
L 267.794655 331.160201 
L 270.037871 333.834693 
L 272.281087 336.509186 
L 274.524303 339.183678 
L 276.767519 341.858171 
L 279.010735 344.532663 
" clip-path="url(#pb95d13123c)" style="fill: none; stroke: #e67e22; stroke-width: 2; stroke-linecap: square"/>
   </g>
   <g id="line2d_7">
    <path d="M 30.01375 247.248 
L 476.41375 247.248 
" clip-path="url(#pb95d13123c)" style="fill: none; stroke-dasharray: 5.55,2.4; stroke-dashoffset: 0; stroke: #c44e52; stroke-width: 1.5"/>
   </g>
   <g id="patch_3">
    <path d="M 30.01375 347.04 
L 30.01375 14.4 
" style="fill: none; stroke: #000000; stroke-width: 0.8; stroke-linejoin: miter; stroke-linecap: square"/>
   </g>
   <g id="patch_4">
    <path d="M 30.01375 347.04 
L 476.41375 347.04 
" style="fill: none; stroke: #000000; stroke-width: 0.8; stroke-linejoin: miter; stroke-linecap: square"/>
   </g>
   <g id="text_3">
    <g id="patch_5">
     <path d="M 350.064001 231.95816 
L 389.146814 231.95816 
Q 390.146814 231.95816 390.146814 230.95816 
L 390.146814 221.280035 
Q 390.146814 220.280035 389.146814 220.280035 
L 350.064001 220.280035 
Q 349.064001 220.280035 349.064001 221.280035 
L 349.064001 230.95816 
Q 349.064001 231.95816 350.064001 231.95816 
z
" style="fill: #ffffff; opacity: 0.85"/>
    </g>
    <!-- AR = D -->
    <g style="fill: #2b5b84" transform="translate(350.064001 228.878472) scale(0.1 -0.1)">
     <defs>
      <path id="DejaVuSans-Bold-41" d="M 3419 850 
L 1538 850 
L 1241 0 
L 31 0 
L 1759 4666 
L 3194 4666 
L 4922 0 
L 3713 0 
L 3419 850 
z
M 1838 1716 
L 3116 1716 
L 2478 3572 
L 1838 1716 
z
" transform="scale(0.015625)"/>
      <path id="DejaVuSans-Bold-52" d="M 2297 2597 
Q 2675 2597 2839 2737 
Q 3003 2878 3003 3200 
Q 3003 3519 2839 3656 
Q 2675 3794 2297 3794 
L 1791 3794 
L 1791 2597 
L 2297 2597 
z
M 1791 1766 
L 1791 0 
L 588 0 
L 588 4666 
L 2425 4666 
Q 3347 4666 3776 4356 
Q 4206 4047 4206 3378 
Q 4206 2916 3982 2619 
Q 3759 2322 3309 2181 
Q 3556 2125 3751 1926 
Q 3947 1728 4147 1325 
L 4800 0 
L 3519 0 
L 2950 1159 
Q 2778 1509 2601 1637 
Q 2425 1766 2131 1766 
L 1791 1766 
z
" transform="scale(0.015625)"/>
      <path id="DejaVuSans-Bold-20" transform="scale(0.015625)"/>
      <path id="DejaVuSans-Bold-3d" d="M 678 3084 
L 4684 3084 
L 4684 2350 
L 678 2350 
L 678 3084 
z
M 678 1663 
L 4684 1663 
L 4684 922 
L 678 922 
L 678 1663 
z
" transform="scale(0.015625)"/>
      <path id="DejaVuSans-Bold-44" d="M 1791 3756 
L 1791 909 
L 2222 909 
Q 2959 909 3348 1275 
Q 3738 1641 3738 2338 
Q 3738 3031 3350 3393 
Q 2963 3756 2222 3756 
L 1791 3756 
z
M 588 4666 
L 1856 4666 
Q 2919 4666 3439 4514 
Q 3959 4363 4331 4000 
Q 4659 3684 4818 3271 
Q 4978 2859 4978 2338 
Q 4978 1809 4818 1395 
Q 4659 981 4331 666 
Q 3956 303 3431 151 
Q 2906 0 1856 0 
L 588 0 
L 588 4666 
z
" transform="scale(0.015625)"/>
     </defs>
     <use xlink:href="#DejaVuSans-Bold-41"/>
     <use xlink:href="#DejaVuSans-Bold-52" x="77.392578"/>
     <use xlink:href="#DejaVuSans-Bold-20" x="154.394531"/>
     <use xlink:href="#DejaVuSans-Bold-3d" x="189.208984"/>
     <use xlink:href="#DejaVuSans-Bold-20" x="272.998047"/>
     <use xlink:href="#DejaVuSans-Bold-44" x="307.8125"/>
    </g>
   </g>
   <g id="text_4">
    <g id="patch_6">
     <path d="M 210.984604 253.3541 
L 228.636167 253.3541 
Q 229.636167 253.3541 229.636167 252.3541 
L 229.636167 242.675975 
Q 229.636167 241.675975 228.636167 241.675975 
L 210.984604 241.675975 
Q 209.984604 241.675975 209.984604 242.675975 
L 209.984604 252.3541 
Q 209.984604 253.3541 210.984604 253.3541 
z
" style="fill: #ffffff; opacity: 0.85"/>
    </g>
    <!-- MR -->
    <g style="fill: #e67e22" transform="translate(210.984604 250.274412) scale(0.1 -0.1)">
     <defs>
      <path id="DejaVuSans-Bold-4d" d="M 588 4666 
L 2119 4666 
L 3181 2169 
L 4250 4666 
L 5778 4666 
L 5778 0 
L 4641 0 
L 4641 3413 
L 3566 897 
L 2803 897 
L 1728 3413 
L 1728 0 
L 588 0 
L 588 4666 
z
" transform="scale(0.015625)"/>
     </defs>
     <use xlink:href="#DejaVuSans-Bold-4d"/>
     <use xlink:href="#DejaVuSans-Bold-52" x="99.511719"/>
    </g>
   </g>
   <g id="text_5">
    <!-- MC = AC -->
    <g style="fill: #c44e52" transform="translate(459.09375 244.248) scale(0.1 -0.1)">
     <defs>
      <path id="DejaVuSans-4d" d="M 628 4666 
L 1569 4666 
L 2759 1491 
L 3956 4666 
L 4897 4666 
L 4897 0 
L 4281 0 
L 4281 4097 
L 3078 897 
L 2444 897 
L 1241 4097 
L 1241 0 
L 628 0 
L 628 4666 
z
" transform="scale(0.015625)"/>
      <path id="DejaVuSans-20" transform="scale(0.015625)"/>
      <path id="DejaVuSans-3d" d="M 678 2906 
L 4684 2906 
L 4684 2381 
L 678 2381 
L 678 2906 
z
M 678 1631 
L 4684 1631 
L 4684 1100 
L 678 1100 
L 678 1631 
z
" transform="scale(0.015625)"/>
      <path id="DejaVuSans-41" d="M 2188 4044 
L 1331 1722 
L 3047 1722 
L 2188 4044 
z
M 1831 4666 
L 2547 4666 
L 4325 0 
L 3669 0 
L 3244 1197 
L 1141 1197 
L 716 0 
L 50 0 
L 1831 4666 
z
" transform="scale(0.015625)"/>
     </defs>
     <use xlink:href="#DejaVuSans-4d"/>
     <use xlink:href="#DejaVuSans-43" x="86.279297"/>
     <use xlink:href="#DejaVuSans-20" x="156.103516"/>
     <use xlink:href="#DejaVuSans-3d" x="187.890625"/>
     <use xlink:href="#DejaVuSans-20" x="271.679688"/>
     <use xlink:href="#DejaVuSans-41" x="303.466797"/>
     <use xlink:href="#DejaVuSans-43" x="370.125"/>
    </g>
   </g>
   <g id="text_6">
    <g id="patch_7">
     <path d="M 207.41375 261.735656 
L 257.489531 261.735656 
Q 259.689531 261.735656 259.689531 259.535656 
L 259.689531 248.889719 
Q 259.689531 246.689719 257.489531 246.689719 
L 207.41375 246.689719 
Q 205.21375 246.689719 205.21375 248.889719 
L 205.21375 259.535656 
Q 205.21375 261.735656 207.41375 261.735656 
z
" style="fill: #ffffff; opacity: 0.8"/>
    </g>
    <!-- (Qₘ, Pₘ) -->
    <g transform="translate(207.41375 257.248) scale(0.11 -0.11)">
     <defs>
      <path id="DejaVuSans-Bold-28" d="M 2413 -844 
L 1484 -844 
Q 1006 -72 778 623 
Q 550 1319 550 2003 
Q 550 2688 779 3389 
Q 1009 4091 1484 4856 
L 2413 4856 
Q 2013 4116 1813 3408 
Q 1613 2700 1613 2009 
Q 1613 1319 1811 609 
Q 2009 -100 2413 -844 
z
" transform="scale(0.015625)"/>
      <path id="DejaVuSans-Bold-51" d="M 2847 -84 
L 2753 -84 
Q 1600 -84 959 553 
Q 319 1191 319 2328 
Q 319 3463 958 4106 
Q 1597 4750 2719 4750 
Q 3853 4750 4486 4112 
Q 5119 3475 5119 2328 
Q 5119 1541 4783 972 
Q 4447 403 3816 116 
L 4756 -934 
L 3609 -934 
L 2847 -84 
z
M 2719 3878 
Q 2169 3878 1866 3472 
Q 1563 3066 1563 2328 
Q 1563 1578 1859 1179 
Q 2156 781 2719 781 
Q 3272 781 3575 1187 
Q 3878 1594 3878 2328 
Q 3878 3066 3575 3472 
Q 3272 3878 2719 3878 
z
" transform="scale(0.015625)"/>
      <path id="DejaVuSans-Bold-2098" d="M 2388 1610 
Q 2522 1791 2706 1888 
Q 2891 1982 3109 1982 
Q 3491 1982 3691 1776 
Q 3888 1566 3888 1169 
L 3888 -24 
L 3178 -24 
L 3178 997 
Q 3181 1019 3181 1044 
Q 3184 1069 3184 1116 
Q 3184 1322 3115 1416 
Q 3047 1510 2891 1510 
Q 2691 1510 2581 1363 
Q 2472 1216 2469 938 
L 2469 -24 
L 1759 -24 
L 1759 997 
Q 1759 1322 1696 1416 
Q 1634 1510 1472 1510 
Q 1269 1510 1159 1363 
Q 1050 1213 1050 941 
L 1050 -24 
L 341 -24 
L 341 1935 
L 1050 1935 
L 1050 1647 
Q 1178 1816 1347 1897 
Q 1516 1982 1719 1982 
Q 1947 1982 2122 1885 
Q 2297 1788 2388 1610 
z
" transform="scale(0.015625)"/>
      <path id="DejaVuSans-Bold-2c" d="M 653 1209 
L 1778 1209 
L 1778 256 
L 1006 -909 
L 341 -909 
L 653 256 
L 653 1209 
z
" transform="scale(0.015625)"/>
      <path id="DejaVuSans-Bold-50" d="M 588 4666 
L 2584 4666 
Q 3475 4666 3951 4270 
Q 4428 3875 4428 3144 
Q 4428 2409 3951 2014 
Q 3475 1619 2584 1619 
L 1791 1619 
L 1791 0 
L 588 0 
L 588 4666 
z
M 1791 3794 
L 1791 2491 
L 2456 2491 
Q 2806 2491 2997 2661 
Q 3188 2831 3188 3144 
Q 3188 3456 2997 3625 
Q 2806 3794 2456 3794 
L 1791 3794 
z
" transform="scale(0.015625)"/>
      <path id="DejaVuSans-Bold-29" d="M 513 -844 
Q 913 -100 1113 609 
Q 1313 1319 1313 2009 
Q 1313 2700 1113 3408 
Q 913 4116 513 4856 
L 1441 4856 
Q 1916 4091 2145 3389 
Q 2375 2688 2375 2003 
Q 2375 1319 2147 623 
Q 1919 -72 1441 -844 
L 513 -844 
z
" transform="scale(0.015625)"/>
     </defs>
     <use xlink:href="#DejaVuSans-Bold-28"/>
     <use xlink:href="#DejaVuSans-Bold-51" x="45.703125"/>
     <use xlink:href="#DejaVuSans-Bold-2098" x="130.712891"/>
     <use xlink:href="#DejaVuSans-Bold-2c" x="197.070312"/>
     <use xlink:href="#DejaVuSans-Bold-20" x="235.058594"/>
     <use xlink:href="#DejaVuSans-Bold-50" x="269.873047"/>
     <use xlink:href="#DejaVuSans-Bold-2098" x="343.164062"/>
     <use xlink:href="#DejaVuSans-Bold-29" x="409.521484"/>
    </g>
   </g>
   <g id="text_7">
    <g id="patch_8">
     <path d="M 374.81375 241.735656 
L 423.493906 241.735656 
Q 425.693906 241.735656 425.693906 239.535656 
L 425.693906 228.889719 
Q 425.693906 226.689719 423.493906 226.689719 
L 374.81375 226.689719 
Q 372.61375 226.689719 372.61375 228.889719 
L 372.61375 239.535656 
Q 372.61375 241.735656 374.81375 241.735656 
z
" style="fill: #ffffff; opacity: 0.8"/>
    </g>
    <!-- (Q꜀, P꜀) -->
    <g transform="translate(374.81375 237.248) scale(0.11 -0.11)">
     <defs>
      <path id="DejaVuSans-Bold-a700" d="M 319 -1131 
L 319 4513 
L 3519 4513 
L 3519 -1131 
L 319 -1131 
z
M 678 -775 
L 3163 -775 
L 3163 4153 
L 678 4153 
L 678 -775 
z
" transform="scale(0.015625)"/>
     </defs>
     <use xlink:href="#DejaVuSans-Bold-28"/>
     <use xlink:href="#DejaVuSans-Bold-51" x="45.703125"/>
     <use xlink:href="#DejaVuSans-Bold-a700" x="130.712891"/>
     <use xlink:href="#DejaVuSans-Bold-2c" x="190.722656"/>
     <use xlink:href="#DejaVuSans-Bold-20" x="228.710938"/>
     <use xlink:href="#DejaVuSans-Bold-50" x="263.525391"/>
     <use xlink:href="#DejaVuSans-Bold-a700" x="336.816406"/>
     <use xlink:href="#DejaVuSans-Bold-29" x="396.826172"/>
    </g>
   </g>
   <g id="line2d_8">
    <defs>
     <path id="m72c6ae025f" d="M 0 4 
C 1.060812 4 2.078319 3.578535 2.828427 2.828427 
C 3.578535 2.078319 4 1.060812 4 0 
C 4 -1.060812 3.578535 -2.078319 2.828427 -2.828427 
C 2.078319 -3.578535 1.060812 -4 0 -4 
C -1.060812 -4 -2.078319 -3.578535 -2.828427 -2.828427 
C -3.578535 -2.078319 -4 -1.060812 -4 0 
C -4 1.060812 -3.578535 2.078319 -2.828427 2.828427 
C -2.078319 3.578535 -1.060812 4 0 4 
z
" style="stroke: #ffffff; stroke-width: 1.5"/>
    </defs>
    <g clip-path="url(#pb95d13123c)">
     <use xlink:href="#m72c6ae025f" x="197.41375" y="247.248" style="fill: #1a1a1a; stroke: #ffffff; stroke-width: 1.5"/>
    </g>
   </g>
   <g id="line2d_9">
    <g clip-path="url(#pb95d13123c)">
     <use xlink:href="#m72c6ae025f" x="364.81375" y="247.248" style="fill: #1a1a1a; stroke: #ffffff; stroke-width: 1.5"/>
    </g>
   </g>
  </g>
 </g>
 <defs>
  <clipPath id="pb95d13123c">
   <rect x="30.01375" y="14.4" width="446.4" height="332.64"/>
  </clipPath>
 </defs>
</svg>
