<?xml version="1.0" encoding="utf-8" standalone="no"?>
<!DOCTYPE svg PUBLIC "-//W3C//DTD SVG 1.1//EN"
  "http://www.w3.org/Graphics/SVG/1.1/DTD/svg11.dtd">
<svg xmlns:xlink="http://www.w3.org/1999/xlink" width="554.549375pt" height="440.429375pt" viewBox="0 0 554.549375 440.429375" xmlns="http://www.w3.org/2000/svg" version="1.1">
 <metadata>
  <rdf:RDF xmlns:dc="http://purl.org/dc/elements/1.1/" xmlns:cc="http://creativecommons.org/ns#" xmlns:rdf="http://www.w3.org/1999/02/22-rdf-syntax-ns#">
   <cc:Work>
    <dc:type rdf:resource="http://purl.org/dc/dcmitype/StillImage"/>
    <dc:date>2026-06-01T18:31:56.881742</dc:date>
    <dc:format>image/svg+xml</dc:format>
    <dc:creator>
     <cc:Agent>
      <dc:title>Matplotlib v3.9.4, https://matplotlib.org/</dc:title>
     </cc:Agent>
    </dc:creator>
   </cc:Work>
  </rdf:RDF>
 </metadata>
 <defs>
  <style type="text/css">*{stroke-linejoin: round; stroke-linecap: butt}</style>
 </defs>
 <g id="figure_1">
  <g id="patch_1">
   <path d="M 0 440.429375 
L 554.549375 440.429375 
L 554.549375 0 
L 0 0 
z
" style="fill: #ffffff"/>
  </g>
  <g id="axes_1">
   <g id="patch_2">
    <path d="M 37.949375 402.48 
L 540.149375 402.48 
L 540.149375 14.4 
L 37.949375 14.4 
z
" style="fill: #ffffff"/>
   </g>
   <g id="line2d_1">
    <path d="M 229.761875 402.48 
L 229.761875 248.865 
" clip-path="url(#p49d300f391)" style="fill: none; stroke-dasharray: 2.59,1.12; stroke-dashoffset: 0; stroke: #999999; stroke-opacity: 0.4; stroke-width: 0.7"/>
   </g>
   <g id="line2d_2">
    <path d="M 37.949375 248.865 
L 229.761875 248.865 
" clip-path="url(#p49d300f391)" style="fill: none; stroke-dasharray: 2.59,1.12; stroke-dashoffset: 0; stroke: #999999; stroke-opacity: 0.4; stroke-width: 0.7"/>
   </g>
   <g id="line2d_3">
    <path d="M 282.074375 402.48 
L 282.074375 224.61 
" clip-path="url(#p49d300f391)" style="fill: none; stroke-dasharray: 2.59,1.12; stroke-dashoffset: 0; stroke: #999999; stroke-opacity: 0.4; stroke-width: 0.7"/>
   </g>
   <g id="line2d_4">
    <path d="M 37.949375 224.61 
L 282.074375 224.61 
" clip-path="url(#p49d300f391)" style="fill: none; stroke-dasharray: 2.59,1.12; stroke-dashoffset: 0; stroke: #999999; stroke-opacity: 0.4; stroke-width: 0.7"/>
   </g>
   <g id="matplotlib.axis_1">
    <g id="xtick_1"/>
    <g id="xtick_2"/>
    <g id="xtick_3"/>
    <g id="xtick_4"/>
    <g id="xtick_5"/>
    <g id="xtick_6"/>
    <g id="xtick_7"/>
    <g id="xtick_8"/>
    <g id="xtick_9"/>
    <g id="xtick_10"/>
    <g id="text_1">
     <!-- Q -->
     <g transform="translate(283.539063 423.117812) scale(0.14 -0.14)">
      <defs>
       <path id="DejaVuSans-51" d="M 2522 4238 
Q 1834 4238 1429 3725 
Q 1025 3213 1025 2328 
Q 1025 1447 1429 934 
Q 1834 422 2522 422 
Q 3209 422 3611 934 
Q 4013 1447 4013 2328 
Q 4013 3213 3611 3725 
Q 3209 4238 2522 4238 
z
M 3406 84 
L 4238 -825 
L 3475 -825 
L 2784 -78 
Q 2681 -84 2626 -87 
Q 2572 -91 2522 -91 
Q 1538 -91 948 567 
Q 359 1225 359 2328 
Q 359 3434 948 4092 
Q 1538 4750 2522 4750 
Q 3503 4750 4090 4092 
Q 4678 3434 4678 2328 
Q 4678 1516 4351 937 
Q 4025 359 3406 84 
z
" transform="scale(0.015625)"/>
      </defs>
      <use xlink:href="#DejaVuSans-51"/>
     </g>
    </g>
   </g>
   <g id="matplotlib.axis_2">
    <g id="ytick_1"/>
    <g id="ytick_2"/>
    <g id="ytick_3"/>
    <g id="ytick_4"/>
    <g id="ytick_5"/>
    <g id="ytick_6"/>
    <g id="ytick_7"/>
    <g id="ytick_8"/>
    <g id="ytick_9"/>
    <g id="ytick_10"/>
    <g id="text_2">
     <!-- P -->
     <g transform="translate(25.037813 212.660781) rotate(-90) scale(0.14 -0.14)">
      <defs>
       <path id="DejaVuSans-50" d="M 1259 4147 
L 1259 2394 
L 2053 2394 
Q 2494 2394 2734 2622 
Q 2975 2850 2975 3272 
Q 2975 3691 2734 3919 
Q 2494 4147 2053 4147 
L 1259 4147 
z
M 628 4666 
L 2053 4666 
Q 2838 4666 3239 4311 
Q 3641 3956 3641 3272 
Q 3641 2581 3239 2228 
Q 2838 1875 2053 1875 
L 1259 1875 
L 1259 0 
L 628 0 
L 628 4666 
z
" transform="scale(0.015625)"/>
      </defs>
      <use xlink:href="#DejaVuSans-50"/>
     </g>
    </g>
   </g>
   <g id="line2d_5">
    <path d="M 37.949375 100.64 
L 426.586561 400.963216 
L 426.586561 400.963216 
" clip-path="url(#p49d300f391)" style="fill: none; stroke: #2b5b84; stroke-width: 2; stroke-linecap: square"/>
   </g>
   <g id="line2d_6">
    <path d="M 37.949375 35.96 
L 509.865958 400.638191 
L 509.865958 400.638191 
" clip-path="url(#p49d300f391)" style="fill: none; stroke: #4c9bcf; stroke-width: 2; stroke-linecap: square"/>
   </g>
   <g id="line2d_7">
    <path d="M 37.949375 337.8 
L 540.149375 104.952 
L 540.149375 104.952 
" clip-path="url(#p49d300f391)" style="fill: none; stroke: #c44e52; stroke-width: 2; stroke-linecap: square"/>
   </g>
   <g id="patch_3">
    <path d="M 37.949375 402.48 
L 37.949375 14.4 
" style="fill: none; stroke: #000000; stroke-width: 0.8; stroke-linejoin: miter; stroke-linecap: square"/>
   </g>
   <g id="patch_4">
    <path d="M 37.949375 402.48 
L 540.149375 402.48 
" style="fill: none; stroke: #000000; stroke-width: 0.8; stroke-linejoin: miter; stroke-linecap: square"/>
   </g>
   <g id="text_3">
    <g id="patch_5">
     <path d="M 316.500129 308.335969 
L 329.181379 308.335969 
Q 330.181379 308.335969 330.181379 307.335969 
L 330.181379 297.657844 
Q 330.181379 296.657844 329.181379 296.657844 
L 316.500129 296.657844 
Q 315.500129 296.657844 315.500129 297.657844 
L 315.500129 307.335969 
Q 315.500129 308.335969 316.500129 308.335969 
z
" style="fill: #ffffff; opacity: 0.85"/>
    </g>
    <!-- D₁ -->
    <g style="fill: #2b5b84" transform="translate(316.500129 305.256281) scale(0.1 -0.1)">
     <defs>
      <path id="DejaVuSans-Bold-44" d="M 1791 3756 
L 1791 909 
L 2222 909 
Q 2959 909 3348 1275 
Q 3738 1641 3738 2338 
Q 3738 3031 3350 3393 
Q 2963 3756 2222 3756 
L 1791 3756 
z
M 588 4666 
L 1856 4666 
Q 2919 4666 3439 4514 
Q 3959 4363 4331 4000 
Q 4659 3684 4818 3271 
Q 4978 2859 4978 2338 
Q 4978 1809 4818 1395 
Q 4659 981 4331 666 
Q 3956 303 3431 151 
Q 2906 0 1856 0 
L 588 0 
L 588 4666 
z
" transform="scale(0.015625)"/>
      <path id="DejaVuSans-Bold-2081" d="M 441 466 
L 1088 466 
L 1088 2094 
L 384 1932 
L 384 2432 
L 1100 2585 
L 1806 2585 
L 1806 466 
L 2444 466 
L 2444 -24 
L 441 -24 
L 441 466 
z
" transform="scale(0.015625)"/>
     </defs>
     <use xlink:href="#DejaVuSans-Bold-44"/>
     <use xlink:href="#DejaVuSans-Bold-2081" x="83.007812"/>
    </g>
   </g>
   <g id="text_4">
    <g id="patch_6">
     <path d="M 374.543345 288.509436 
L 387.224595 288.509436 
Q 388.224595 288.509436 388.224595 287.509436 
L 388.224595 277.831311 
Q 388.224595 276.831311 387.224595 276.831311 
L 374.543345 276.831311 
Q 373.543345 276.831311 373.543345 277.831311 
L 373.543345 287.509436 
Q 373.543345 288.509436 374.543345 288.509436 
z
" style="fill: #ffffff; opacity: 0.85"/>
    </g>
    <!-- D₂ -->
    <g style="fill: #4c9bcf" transform="translate(374.543345 285.429749) scale(0.1 -0.1)">
     <defs>
      <path id="DejaVuSans-Bold-2082" d="M 1288 501 
L 2444 501 
L 2444 -24 
L 341 -24 
L 341 454 
L 1319 1285 
Q 1509 1451 1590 1576 
Q 1672 1701 1672 1826 
Q 1672 1982 1558 2079 
Q 1444 2176 1259 2176 
Q 1066 2176 844 2105 
Q 622 2035 359 1888 
L 359 2469 
Q 631 2554 886 2596 
Q 1141 2638 1375 2638 
Q 1869 2638 2150 2436 
Q 2431 2235 2431 1888 
Q 2431 1663 2320 1474 
Q 2209 1285 1894 1016 
L 1288 501 
z
" transform="scale(0.015625)"/>
     </defs>
     <use xlink:href="#DejaVuSans-Bold-44"/>
     <use xlink:href="#DejaVuSans-Bold-2082" x="83.007812"/>
    </g>
   </g>
   <g id="text_5">
    <g id="patch_7">
     <path d="M 397.255908 171.067024 
L 404.45747 171.067024 
Q 405.45747 171.067024 405.45747 170.067024 
L 405.45747 160.388899 
Q 405.45747 159.388899 404.45747 159.388899 
L 397.255908 159.388899 
Q 396.255908 159.388899 396.255908 160.388899 
L 396.255908 170.067024 
Q 396.255908 171.067024 397.255908 171.067024 
z
" style="fill: #ffffff; opacity: 0.85"/>
    </g>
    <!-- S -->
    <g style="fill: #c44e52" transform="translate(397.255908 167.987337) scale(0.1 -0.1)">
     <defs>
      <path id="DejaVuSans-Bold-53" d="M 3834 4519 
L 3834 3531 
Q 3450 3703 3084 3790 
Q 2719 3878 2394 3878 
Q 1963 3878 1756 3759 
Q 1550 3641 1550 3391 
Q 1550 3203 1689 3098 
Q 1828 2994 2194 2919 
L 2706 2816 
Q 3484 2659 3812 2340 
Q 4141 2022 4141 1434 
Q 4141 663 3683 286 
Q 3225 -91 2284 -91 
Q 1841 -91 1394 -6 
Q 947 78 500 244 
L 500 1259 
Q 947 1022 1364 901 
Q 1781 781 2169 781 
Q 2563 781 2772 912 
Q 2981 1044 2981 1288 
Q 2981 1506 2839 1625 
Q 2697 1744 2272 1838 
L 1806 1941 
Q 1106 2091 782 2419 
Q 459 2747 459 3303 
Q 459 4000 909 4375 
Q 1359 4750 2203 4750 
Q 2588 4750 2994 4692 
Q 3400 4634 3834 4519 
z
" transform="scale(0.015625)"/>
     </defs>
     <use xlink:href="#DejaVuSans-Bold-53"/>
    </g>
   </g>
   <g id="text_6">
    <g id="patch_8">
     <path d="M 214.761875 245.352656 
L 227.093906 245.352656 
Q 229.293906 245.352656 229.293906 243.152656 
L 229.293906 232.506719 
Q 229.293906 230.306719 227.093906 230.306719 
L 214.761875 230.306719 
Q 212.561875 230.306719 212.561875 232.506719 
L 212.561875 243.152656 
Q 212.561875 245.352656 214.761875 245.352656 
z
" style="fill: #ffffff; opacity: 0.8"/>
    </g>
    <!-- E₁ -->
    <g transform="translate(214.761875 240.865) scale(0.11 -0.11)">
     <defs>
      <path id="DejaVuSans-Bold-45" d="M 588 4666 
L 3834 4666 
L 3834 3756 
L 1791 3756 
L 1791 2888 
L 3713 2888 
L 3713 1978 
L 1791 1978 
L 1791 909 
L 3903 909 
L 3903 0 
L 588 0 
L 588 4666 
z
" transform="scale(0.015625)"/>
     </defs>
     <use xlink:href="#DejaVuSans-Bold-45"/>
     <use xlink:href="#DejaVuSans-Bold-2081" x="68.310547"/>
    </g>
   </g>
   <g id="text_7">
    <g id="patch_9">
     <path d="M 290.074375 221.097656 
L 302.406406 221.097656 
Q 304.606406 221.097656 304.606406 218.897656 
L 304.606406 208.251719 
Q 304.606406 206.051719 302.406406 206.051719 
L 290.074375 206.051719 
Q 287.874375 206.051719 287.874375 208.251719 
L 287.874375 218.897656 
Q 287.874375 221.097656 290.074375 221.097656 
z
" style="fill: #ffffff; opacity: 0.8"/>
    </g>
    <!-- E₂ -->
    <g transform="translate(290.074375 216.61) scale(0.11 -0.11)">
     <use xlink:href="#DejaVuSans-Bold-45"/>
     <use xlink:href="#DejaVuSans-Bold-2082" x="68.310547"/>
    </g>
   </g>
   <g id="line2d_8">
    <defs>
     <path id="m934a39d143" d="M 0 4 
C 1.060812 4 2.078319 3.578535 2.828427 2.828427 
C 3.578535 2.078319 4 1.060812 4 0 
C 4 -1.060812 3.578535 -2.078319 2.828427 -2.828427 
C 2.078319 -3.578535 1.060812 -4 0 -4 
C -1.060812 -4 -2.078319 -3.578535 -2.828427 -2.828427 
C -3.578535 -2.078319 -4 -1.060812 -4 0 
C -4 1.060812 -3.578535 2.078319 -2.828427 2.828427 
C -2.078319 3.578535 -1.060812 4 0 4 
z
" style="stroke: #ffffff; stroke-width: 1.5"/>
    </defs>
    <g clip-path="url(#p49d300f391)">
     <use xlink:href="#m934a39d143" x="229.761875" y="248.865" style="fill: #1a1a1a; stroke: #ffffff; stroke-width: 1.5"/>
    </g>
   </g>
   <g id="line2d_9">
    <g clip-path="url(#p49d300f391)">
     <use xlink:href="#m934a39d143" x="282.074375" y="224.61" style="fill: #1a1a1a; stroke: #ffffff; stroke-width: 1.5"/>
    </g>
   </g>
  </g>
 </g>
 <defs>
  <clipPath id="p49d300f391">
   <rect x="37.949375" y="14.4" width="502.2" height="388.08"/>
  </clipPath>
 </defs>
</svg>
