<?xml version="1.0" encoding="utf-8" standalone="no"?>
<!DOCTYPE svg PUBLIC "-//W3C//DTD SVG 1.1//EN"
  "http://www.w3.org/Graphics/SVG/1.1/DTD/svg11.dtd">
<svg xmlns:xlink="http://www.w3.org/1999/xlink" width="614.285pt" height="499.805pt" viewBox="0 0 614.285 499.805" xmlns="http://www.w3.org/2000/svg" version="1.1">
 <metadata>
  <rdf:RDF xmlns:dc="http://purl.org/dc/elements/1.1/" xmlns:cc="http://creativecommons.org/ns#" xmlns:rdf="http://www.w3.org/1999/02/22-rdf-syntax-ns#">
   <cc:Work>
    <dc:type rdf:resource="http://purl.org/dc/dcmitype/StillImage"/>
    <dc:date>2026-06-01T21:19:47.497651</dc:date>
    <dc:format>image/svg+xml</dc:format>
    <dc:creator>
     <cc:Agent>
      <dc:title>Matplotlib v3.9.4, https://matplotlib.org/</dc:title>
     </cc:Agent>
    </dc:creator>
   </cc:Work>
  </rdf:RDF>
 </metadata>
 <defs>
  <style type="text/css">*{stroke-linejoin: round; stroke-linecap: butt}</style>
 </defs>
 <g id="figure_1">
  <g id="patch_1">
   <path d="M 0 499.805 
L 614.285 499.805 
L 614.285 0 
L 0 0 
z
" style="fill: #ffffff"/>
  </g>
  <g id="axes_1">
   <g id="patch_2">
    <path d="M 41.885 457.92 
L 599.885 457.92 
L 599.885 14.4 
L 41.885 14.4 
z
" style="fill: #ffffff"/>
   </g>
   <g id="line2d_1">
    <path d="M 255.01 457.92 
L 255.01 282.36 
" clip-path="url(#p5261bd40a4)" style="fill: none; stroke-dasharray: 3.7,1.6; stroke-dashoffset: 0; stroke: #666666; stroke-opacity: 0.5"/>
   </g>
   <g id="line2d_2">
    <path d="M 41.885 282.36 
L 255.01 282.36 
" clip-path="url(#p5261bd40a4)" style="fill: none; stroke-dasharray: 3.7,1.6; stroke-dashoffset: 0; stroke: #666666; stroke-opacity: 0.5"/>
   </g>
   <g id="line2d_3">
    <path d="M 313.135 457.92 
L 313.135 254.64 
" clip-path="url(#p5261bd40a4)" style="fill: none; stroke-dasharray: 3.7,1.6; stroke-dashoffset: 0; stroke: #666666; stroke-opacity: 0.5"/>
   </g>
   <g id="line2d_4">
    <path d="M 41.885 254.64 
L 313.135 254.64 
" clip-path="url(#p5261bd40a4)" style="fill: none; stroke-dasharray: 3.7,1.6; stroke-dashoffset: 0; stroke: #666666; stroke-opacity: 0.5"/>
   </g>
   <g id="matplotlib.axis_1">
    <g id="xtick_1"/>
    <g id="xtick_2"/>
    <g id="xtick_3"/>
    <g id="xtick_4"/>
    <g id="xtick_5"/>
    <g id="xtick_6"/>
    <g id="xtick_7"/>
    <g id="xtick_8"/>
    <g id="xtick_9"/>
    <g id="xtick_10"/>
    <g id="text_1">
     <!-- Q -->
     <g transform="translate(314.08375 482.0775) scale(0.16 -0.16)">
      <defs>
       <path id="DejaVuSans-Bold-51" d="M 2847 -84 
L 2753 -84 
Q 1600 -84 959 553 
Q 319 1191 319 2328 
Q 319 3463 958 4106 
Q 1597 4750 2719 4750 
Q 3853 4750 4486 4112 
Q 5119 3475 5119 2328 
Q 5119 1541 4783 972 
Q 4447 403 3816 116 
L 4756 -934 
L 3609 -934 
L 2847 -84 
z
M 2719 3878 
Q 2169 3878 1866 3472 
Q 1563 3066 1563 2328 
Q 1563 1578 1859 1179 
Q 2156 781 2719 781 
Q 3272 781 3575 1187 
Q 3878 1594 3878 2328 
Q 3878 3066 3575 3472 
Q 3272 3878 2719 3878 
z
" transform="scale(0.015625)"/>
      </defs>
      <use xlink:href="#DejaVuSans-Bold-51"/>
     </g>
    </g>
   </g>
   <g id="matplotlib.axis_2">
    <g id="ytick_1"/>
    <g id="ytick_2"/>
    <g id="ytick_3"/>
    <g id="ytick_4"/>
    <g id="ytick_5"/>
    <g id="ytick_6"/>
    <g id="ytick_7"/>
    <g id="ytick_8"/>
    <g id="ytick_9"/>
    <g id="ytick_10"/>
    <g id="text_2">
     <!-- P -->
     <g transform="translate(26.5575 242.02375) rotate(-90) scale(0.16 -0.16)">
      <defs>
       <path id="DejaVuSans-Bold-50" d="M 588 4666 
L 2584 4666 
Q 3475 4666 3951 4270 
Q 4428 3875 4428 3144 
Q 4428 2409 3951 2014 
Q 3475 1619 2584 1619 
L 1791 1619 
L 1791 0 
L 588 0 
L 588 4666 
z
M 1791 3794 
L 1791 2491 
L 2456 2491 
Q 2806 2491 2997 2661 
Q 3188 2831 3188 3144 
Q 3188 3456 2997 3625 
Q 2806 3794 2456 3794 
L 1791 3794 
z
" transform="scale(0.015625)"/>
      </defs>
      <use xlink:href="#DejaVuSans-Bold-50"/>
     </g>
    </g>
   </g>
   <g id="line2d_5">
    <path d="M 41.885 112.96 
L 473.704095 456.186533 
L 473.704095 456.186533 
" clip-path="url(#p5261bd40a4)" style="fill: none; stroke: #2b5b84; stroke-width: 2; stroke-linecap: square"/>
   </g>
   <g id="line2d_6">
    <path d="M 41.885 39.04 
L 566.236759 455.815075 
L 566.236759 455.815075 
" clip-path="url(#p5261bd40a4)" style="fill: none; stroke: #4c9bcf; stroke-width: 2; stroke-linecap: square"/>
   </g>
   <g id="line2d_7">
    <path d="M 41.885 384 
L 599.885 117.888 
L 599.885 117.888 
" clip-path="url(#p5261bd40a4)" style="fill: none; stroke: #c44e52; stroke-width: 2; stroke-linecap: square"/>
   </g>
   <g id="patch_3">
    <path d="M 41.885 457.92 
L 41.885 14.4 
" style="fill: none; stroke: #000000; stroke-width: 0.8; stroke-linejoin: miter; stroke-linecap: square"/>
   </g>
   <g id="patch_4">
    <path d="M 41.885 457.92 
L 599.885 457.92 
" style="fill: none; stroke: #000000; stroke-width: 0.8; stroke-linejoin: miter; stroke-linecap: square"/>
   </g>
   <g id="text_3">
    <g id="patch_5">
     <path d="M 352.719171 350.317915 
L 369.204796 350.317915 
Q 371.154796 350.317915 371.154796 348.367915 
L 371.154796 335.786353 
Q 371.154796 333.836353 369.204796 333.836353 
L 352.719171 333.836353 
Q 350.769171 333.836353 350.769171 335.786353 
L 350.769171 348.367915 
Q 350.769171 350.317915 352.719171 350.317915 
z
" style="fill: #ffffff; opacity: 0.9; stroke: #2b5b84; stroke-width: 0.8; stroke-linejoin: miter"/>
    </g>
    <!-- D₁ -->
    <g style="fill: #2b5b84" transform="translate(352.719171 345.664322) scale(0.13 -0.13)">
     <defs>
      <path id="DejaVuSans-Bold-44" d="M 1791 3756 
L 1791 909 
L 2222 909 
Q 2959 909 3348 1275 
Q 3738 1641 3738 2338 
Q 3738 3031 3350 3393 
Q 2963 3756 2222 3756 
L 1791 3756 
z
M 588 4666 
L 1856 4666 
Q 2919 4666 3439 4514 
Q 3959 4363 4331 4000 
Q 4659 3684 4818 3271 
Q 4978 2859 4978 2338 
Q 4978 1809 4818 1395 
Q 4659 981 4331 666 
Q 3956 303 3431 151 
Q 2906 0 1856 0 
L 588 0 
L 588 4666 
z
" transform="scale(0.015625)"/>
      <path id="DejaVuSans-Bold-2081" d="M 441 466 
L 1088 466 
L 1088 2094 
L 384 1932 
L 384 2432 
L 1100 2585 
L 1806 2585 
L 1806 466 
L 2444 466 
L 2444 -24 
L 441 -24 
L 441 466 
z
" transform="scale(0.015625)"/>
     </defs>
     <use xlink:href="#DejaVuSans-Bold-44"/>
     <use xlink:href="#DejaVuSans-Bold-2081" x="83.007812"/>
    </g>
   </g>
   <g id="text_4">
    <g id="patch_6">
     <path d="M 417.211633 327.659021 
L 433.697258 327.659021 
Q 435.647258 327.659021 435.647258 325.709021 
L 435.647258 313.127458 
Q 435.647258 311.177458 433.697258 311.177458 
L 417.211633 311.177458 
Q 415.261633 311.177458 415.261633 313.127458 
L 415.261633 325.709021 
Q 415.261633 327.659021 417.211633 327.659021 
z
" style="fill: #ffffff; opacity: 0.9; stroke: #4c9bcf; stroke-width: 0.8; stroke-linejoin: miter"/>
    </g>
    <!-- D₂ -->
    <g style="fill: #4c9bcf" transform="translate(417.211633 323.005427) scale(0.13 -0.13)">
     <defs>
      <path id="DejaVuSans-Bold-2082" d="M 1288 501 
L 2444 501 
L 2444 -24 
L 341 -24 
L 341 454 
L 1319 1285 
Q 1509 1451 1590 1576 
Q 1672 1701 1672 1826 
Q 1672 1982 1558 2079 
Q 1444 2176 1259 2176 
Q 1066 2176 844 2105 
Q 622 2035 359 1888 
L 359 2469 
Q 631 2554 886 2596 
Q 1141 2638 1375 2638 
Q 1869 2638 2150 2436 
Q 2431 2235 2431 1888 
Q 2431 1663 2320 1474 
Q 2209 1285 1894 1016 
L 1288 501 
z
" transform="scale(0.015625)"/>
     </defs>
     <use xlink:href="#DejaVuSans-Bold-44"/>
     <use xlink:href="#DejaVuSans-Bold-2082" x="83.007812"/>
    </g>
   </g>
   <g id="text_5">
    <g id="patch_7">
     <path d="M 442.447814 193.439121 
L 451.809845 193.439121 
Q 453.759845 193.439121 453.759845 191.489121 
L 453.759845 178.907559 
Q 453.759845 176.957559 451.809845 176.957559 
L 442.447814 176.957559 
Q 440.497814 176.957559 440.497814 178.907559 
L 440.497814 191.489121 
Q 440.497814 193.439121 442.447814 193.439121 
z
" style="fill: #ffffff; opacity: 0.9; stroke: #c44e52; stroke-width: 0.8; stroke-linejoin: miter"/>
    </g>
    <!-- S -->
    <g style="fill: #c44e52" transform="translate(442.447814 188.785528) scale(0.13 -0.13)">
     <defs>
      <path id="DejaVuSans-Bold-53" d="M 3834 4519 
L 3834 3531 
Q 3450 3703 3084 3790 
Q 2719 3878 2394 3878 
Q 1963 3878 1756 3759 
Q 1550 3641 1550 3391 
Q 1550 3203 1689 3098 
Q 1828 2994 2194 2919 
L 2706 2816 
Q 3484 2659 3812 2340 
Q 4141 2022 4141 1434 
Q 4141 663 3683 286 
Q 3225 -91 2284 -91 
Q 1841 -91 1394 -6 
Q 947 78 500 244 
L 500 1259 
Q 947 1022 1364 901 
Q 1781 781 2169 781 
Q 2563 781 2772 912 
Q 2981 1044 2981 1288 
Q 2981 1506 2839 1625 
Q 2697 1744 2272 1838 
L 1806 1941 
Q 1106 2091 782 2419 
Q 459 2747 459 3303 
Q 459 4000 909 4375 
Q 1359 4750 2203 4750 
Q 2588 4750 2994 4692 
Q 3400 4634 3834 4519 
z
" transform="scale(0.015625)"/>
     </defs>
     <use xlink:href="#DejaVuSans-Bold-53"/>
    </g>
   </g>
   <g id="text_6">
    <g id="patch_8">
     <path d="M 240.01 280.771562 
L 255.705312 280.771562 
Q 259.205312 280.771562 259.205312 277.271562 
L 259.205312 263.722187 
Q 259.205312 260.222187 255.705312 260.222187 
L 240.01 260.222187 
Q 236.51 260.222187 236.51 263.722187 
L 236.51 277.271562 
Q 236.51 280.771562 240.01 280.771562 
z
" style="fill: #ffffff; opacity: 0.9; stroke: #999999; stroke-width: 0.5; stroke-linejoin: miter"/>
    </g>
    <!-- E₁ -->
    <g transform="translate(240.01 274.36) scale(0.14 -0.14)">
     <defs>
      <path id="DejaVuSans-Bold-45" d="M 588 4666 
L 3834 4666 
L 3834 3756 
L 1791 3756 
L 1791 2888 
L 3713 2888 
L 3713 1978 
L 1791 1978 
L 1791 909 
L 3903 909 
L 3903 0 
L 588 0 
L 588 4666 
z
" transform="scale(0.015625)"/>
     </defs>
     <use xlink:href="#DejaVuSans-Bold-45"/>
     <use xlink:href="#DejaVuSans-Bold-2081" x="68.310547"/>
    </g>
   </g>
   <g id="text_7">
    <g id="patch_9">
     <path d="M 321.135 253.051562 
L 336.830312 253.051562 
Q 340.330312 253.051562 340.330312 249.551562 
L 340.330312 236.002187 
Q 340.330312 232.502187 336.830312 232.502187 
L 321.135 232.502187 
Q 317.635 232.502187 317.635 236.002187 
L 317.635 249.551562 
Q 317.635 253.051562 321.135 253.051562 
z
" style="fill: #ffffff; opacity: 0.9; stroke: #999999; stroke-width: 0.5; stroke-linejoin: miter"/>
    </g>
    <!-- E₂ -->
    <g transform="translate(321.135 246.64) scale(0.14 -0.14)">
     <use xlink:href="#DejaVuSans-Bold-45"/>
     <use xlink:href="#DejaVuSans-Bold-2082" x="68.310547"/>
    </g>
   </g>
   <g id="line2d_8">
    <defs>
     <path id="mc73e0c2135" d="M 0 5 
C 1.326016 5 2.597899 4.473168 3.535534 3.535534 
C 4.473168 2.597899 5 1.326016 5 0 
C 5 -1.326016 4.473168 -2.597899 3.535534 -3.535534 
C 2.597899 -4.473168 1.326016 -5 0 -5 
C -1.326016 -5 -2.597899 -4.473168 -3.535534 -3.535534 
C -4.473168 -2.597899 -5 -1.326016 -5 0 
C -5 1.326016 -4.473168 2.597899 -3.535534 3.535534 
C -2.597899 4.473168 -1.326016 5 0 5 
z
" style="stroke: #ffffff; stroke-width: 2"/>
    </defs>
    <g clip-path="url(#p5261bd40a4)">
     <use xlink:href="#mc73e0c2135" x="255.01" y="282.36" style="fill: #1a1a1a; stroke: #ffffff; stroke-width: 2"/>
    </g>
   </g>
   <g id="line2d_9">
    <g clip-path="url(#p5261bd40a4)">
     <use xlink:href="#mc73e0c2135" x="313.135" y="254.64" style="fill: #1a1a1a; stroke: #ffffff; stroke-width: 2"/>
    </g>
   </g>
  </g>
 </g>
 <defs>
  <clipPath id="p5261bd40a4">
   <rect x="41.885" y="14.4" width="558" height="443.52"/>
  </clipPath>
 </defs>
</svg>
