<?xml version="1.0" encoding="utf-8" standalone="no"?>
<!DOCTYPE svg PUBLIC "-//W3C//DTD SVG 1.1//EN"
  "http://www.w3.org/Graphics/SVG/1.1/DTD/svg11.dtd">
<svg xmlns:xlink="http://www.w3.org/1999/xlink" width="554.549375pt" height="440.429375pt" viewBox="0 0 554.549375 440.429375" xmlns="http://www.w3.org/2000/svg" version="1.1">
 <metadata>
  <rdf:RDF xmlns:dc="http://purl.org/dc/elements/1.1/" xmlns:cc="http://creativecommons.org/ns#" xmlns:rdf="http://www.w3.org/1999/02/22-rdf-syntax-ns#">
   <cc:Work>
    <dc:type rdf:resource="http://purl.org/dc/dcmitype/StillImage"/>
    <dc:date>2026-06-01T18:31:57.335794</dc:date>
    <dc:format>image/svg+xml</dc:format>
    <dc:creator>
     <cc:Agent>
      <dc:title>Matplotlib v3.9.4, https://matplotlib.org/</dc:title>
     </cc:Agent>
    </dc:creator>
   </cc:Work>
  </rdf:RDF>
 </metadata>
 <defs>
  <style type="text/css">*{stroke-linejoin: round; stroke-linecap: butt}</style>
 </defs>
 <g id="figure_1">
  <g id="patch_1">
   <path d="M 0 440.429375 
L 554.549375 440.429375 
L 554.549375 0 
L 0 0 
z
" style="fill: #ffffff"/>
  </g>
  <g id="axes_1">
   <g id="patch_2">
    <path d="M 37.949375 402.48 
L 540.149375 402.48 
L 540.149375 14.4 
L 37.949375 14.4 
z
" style="fill: #ffffff"/>
   </g>
   <g id="line2d_1">
    <path d="M 196.979375 402.48 
L 196.979375 197.7678 
" clip-path="url(#p579e948ea7)" style="fill: none; stroke-dasharray: 2.59,1.12; stroke-dashoffset: 0; stroke: #999999; stroke-opacity: 0.4; stroke-width: 0.7"/>
   </g>
   <g id="line2d_2">
    <path d="M 37.949375 197.7678 
L 196.979375 197.7678 
" clip-path="url(#p579e948ea7)" style="fill: none; stroke-dasharray: 2.59,1.12; stroke-dashoffset: 0; stroke: #999999; stroke-opacity: 0.4; stroke-width: 0.7"/>
   </g>
   <g id="line2d_3">
    <path d="M 265.135089 402.48 
L 265.135089 245.169 
" clip-path="url(#p579e948ea7)" style="fill: none; stroke-dasharray: 2.59,1.12; stroke-dashoffset: 0; stroke: #999999; stroke-opacity: 0.4; stroke-width: 0.7"/>
   </g>
   <g id="line2d_4">
    <path d="M 37.949375 245.169 
L 265.135089 245.169 
" clip-path="url(#p579e948ea7)" style="fill: none; stroke-dasharray: 2.59,1.12; stroke-dashoffset: 0; stroke: #999999; stroke-opacity: 0.4; stroke-width: 0.7"/>
   </g>
   <g id="matplotlib.axis_1">
    <g id="xtick_1"/>
    <g id="xtick_2"/>
    <g id="xtick_3"/>
    <g id="xtick_4"/>
    <g id="xtick_5"/>
    <g id="xtick_6"/>
    <g id="xtick_7"/>
    <g id="xtick_8"/>
    <g id="xtick_9"/>
    <g id="xtick_10"/>
    <g id="text_1">
     <!-- Labour -->
     <g transform="translate(264.818438 423.117812) scale(0.14 -0.14)">
      <defs>
       <path id="DejaVuSans-4c" d="M 628 4666 
L 1259 4666 
L 1259 531 
L 3531 531 
L 3531 0 
L 628 0 
L 628 4666 
z
" transform="scale(0.015625)"/>
       <path id="DejaVuSans-61" d="M 2194 1759 
Q 1497 1759 1228 1600 
Q 959 1441 959 1056 
Q 959 750 1161 570 
Q 1363 391 1709 391 
Q 2188 391 2477 730 
Q 2766 1069 2766 1631 
L 2766 1759 
L 2194 1759 
z
M 3341 1997 
L 3341 0 
L 2766 0 
L 2766 531 
Q 2569 213 2275 61 
Q 1981 -91 1556 -91 
Q 1019 -91 701 211 
Q 384 513 384 1019 
Q 384 1609 779 1909 
Q 1175 2209 1959 2209 
L 2766 2209 
L 2766 2266 
Q 2766 2663 2505 2880 
Q 2244 3097 1772 3097 
Q 1472 3097 1187 3025 
Q 903 2953 641 2809 
L 641 3341 
Q 956 3463 1253 3523 
Q 1550 3584 1831 3584 
Q 2591 3584 2966 3190 
Q 3341 2797 3341 1997 
z
" transform="scale(0.015625)"/>
       <path id="DejaVuSans-62" d="M 3116 1747 
Q 3116 2381 2855 2742 
Q 2594 3103 2138 3103 
Q 1681 3103 1420 2742 
Q 1159 2381 1159 1747 
Q 1159 1113 1420 752 
Q 1681 391 2138 391 
Q 2594 391 2855 752 
Q 3116 1113 3116 1747 
z
M 1159 2969 
Q 1341 3281 1617 3432 
Q 1894 3584 2278 3584 
Q 2916 3584 3314 3078 
Q 3713 2572 3713 1747 
Q 3713 922 3314 415 
Q 2916 -91 2278 -91 
Q 1894 -91 1617 61 
Q 1341 213 1159 525 
L 1159 0 
L 581 0 
L 581 4863 
L 1159 4863 
L 1159 2969 
z
" transform="scale(0.015625)"/>
       <path id="DejaVuSans-6f" d="M 1959 3097 
Q 1497 3097 1228 2736 
Q 959 2375 959 1747 
Q 959 1119 1226 758 
Q 1494 397 1959 397 
Q 2419 397 2687 759 
Q 2956 1122 2956 1747 
Q 2956 2369 2687 2733 
Q 2419 3097 1959 3097 
z
M 1959 3584 
Q 2709 3584 3137 3096 
Q 3566 2609 3566 1747 
Q 3566 888 3137 398 
Q 2709 -91 1959 -91 
Q 1206 -91 779 398 
Q 353 888 353 1747 
Q 353 2609 779 3096 
Q 1206 3584 1959 3584 
z
" transform="scale(0.015625)"/>
       <path id="DejaVuSans-75" d="M 544 1381 
L 544 3500 
L 1119 3500 
L 1119 1403 
Q 1119 906 1312 657 
Q 1506 409 1894 409 
Q 2359 409 2629 706 
Q 2900 1003 2900 1516 
L 2900 3500 
L 3475 3500 
L 3475 0 
L 2900 0 
L 2900 538 
Q 2691 219 2414 64 
Q 2138 -91 1772 -91 
Q 1169 -91 856 284 
Q 544 659 544 1381 
z
M 1991 3584 
L 1991 3584 
z
" transform="scale(0.015625)"/>
       <path id="DejaVuSans-72" d="M 2631 2963 
Q 2534 3019 2420 3045 
Q 2306 3072 2169 3072 
Q 1681 3072 1420 2755 
Q 1159 2438 1159 1844 
L 1159 0 
L 581 0 
L 581 3500 
L 1159 3500 
L 1159 2956 
Q 1341 3275 1631 3429 
Q 1922 3584 2338 3584 
Q 2397 3584 2469 3576 
Q 2541 3569 2628 3553 
L 2631 2963 
z
" transform="scale(0.015625)"/>
      </defs>
      <use xlink:href="#DejaVuSans-4c"/>
      <use xlink:href="#DejaVuSans-61" x="55.712891"/>
      <use xlink:href="#DejaVuSans-62" x="116.992188"/>
      <use xlink:href="#DejaVuSans-6f" x="180.46875"/>
      <use xlink:href="#DejaVuSans-75" x="241.650391"/>
      <use xlink:href="#DejaVuSans-72" x="305.029297"/>
     </g>
    </g>
   </g>
   <g id="matplotlib.axis_2">
    <g id="ytick_1"/>
    <g id="ytick_2"/>
    <g id="ytick_3"/>
    <g id="ytick_4"/>
    <g id="ytick_5"/>
    <g id="ytick_6"/>
    <g id="ytick_7"/>
    <g id="ytick_8"/>
    <g id="ytick_9"/>
    <g id="text_2">
     <!-- Wage -->
     <g transform="translate(25.037813 227.955781) rotate(-90) scale(0.14 -0.14)">
      <defs>
       <path id="DejaVuSans-57" d="M 213 4666 
L 850 4666 
L 1831 722 
L 2809 4666 
L 3519 4666 
L 4500 722 
L 5478 4666 
L 6119 4666 
L 4947 0 
L 4153 0 
L 3169 4050 
L 2175 0 
L 1381 0 
L 213 4666 
z
" transform="scale(0.015625)"/>
       <path id="DejaVuSans-67" d="M 2906 1791 
Q 2906 2416 2648 2759 
Q 2391 3103 1925 3103 
Q 1463 3103 1205 2759 
Q 947 2416 947 1791 
Q 947 1169 1205 825 
Q 1463 481 1925 481 
Q 2391 481 2648 825 
Q 2906 1169 2906 1791 
z
M 3481 434 
Q 3481 -459 3084 -895 
Q 2688 -1331 1869 -1331 
Q 1566 -1331 1297 -1286 
Q 1028 -1241 775 -1147 
L 775 -588 
Q 1028 -725 1275 -790 
Q 1522 -856 1778 -856 
Q 2344 -856 2625 -561 
Q 2906 -266 2906 331 
L 2906 616 
Q 2728 306 2450 153 
Q 2172 0 1784 0 
Q 1141 0 747 490 
Q 353 981 353 1791 
Q 353 2603 747 3093 
Q 1141 3584 1784 3584 
Q 2172 3584 2450 3431 
Q 2728 3278 2906 2969 
L 2906 3500 
L 3481 3500 
L 3481 434 
z
" transform="scale(0.015625)"/>
       <path id="DejaVuSans-65" d="M 3597 1894 
L 3597 1613 
L 953 1613 
Q 991 1019 1311 708 
Q 1631 397 2203 397 
Q 2534 397 2845 478 
Q 3156 559 3463 722 
L 3463 178 
Q 3153 47 2828 -22 
Q 2503 -91 2169 -91 
Q 1331 -91 842 396 
Q 353 884 353 1716 
Q 353 2575 817 3079 
Q 1281 3584 2069 3584 
Q 2775 3584 3186 3129 
Q 3597 2675 3597 1894 
z
M 3022 2063 
Q 3016 2534 2758 2815 
Q 2500 3097 2075 3097 
Q 1594 3097 1305 2825 
Q 1016 2553 972 2059 
L 3022 2063 
z
" transform="scale(0.015625)"/>
      </defs>
      <use xlink:href="#DejaVuSans-57"/>
      <use xlink:href="#DejaVuSans-61" x="92.501953"/>
      <use xlink:href="#DejaVuSans-67" x="153.78125"/>
      <use xlink:href="#DejaVuSans-65" x="217.257812"/>
     </g>
    </g>
   </g>
   <g id="line2d_5">
    <path d="M 37.949375 363.672 
L 540.149375 101.718 
L 540.149375 101.718 
" clip-path="url(#p579e948ea7)" style="fill: none; stroke: #2b5b84; stroke-width: 2; stroke-linecap: square"/>
   </g>
   <g id="line2d_6">
    <path d="M 37.949375 363.672 
L 371.066963 16.155136 
L 371.066963 16.155136 
" clip-path="url(#p579e948ea7)" style="fill: none; stroke: #c44e52; stroke-width: 2; stroke-linecap: square"/>
   </g>
   <g id="line2d_7">
    <path d="M 37.949375 87.165 
L 489.677013 401.334286 
L 489.677013 401.334286 
" clip-path="url(#p579e948ea7)" style="fill: none; stroke: #27ae60; stroke-width: 2; stroke-linecap: square"/>
   </g>
   <g id="patch_3">
    <path d="M 37.949375 402.48 
L 37.949375 14.4 
" style="fill: none; stroke: #000000; stroke-width: 0.8; stroke-linejoin: miter; stroke-linecap: square"/>
   </g>
   <g id="patch_4">
    <path d="M 37.949375 402.48 
L 540.149375 402.48 
" style="fill: none; stroke: #000000; stroke-width: 0.8; stroke-linejoin: miter; stroke-linecap: square"/>
   </g>
   <g id="text_3">
    <g id="patch_5">
     <path d="M 397.255908 176.740566 
L 450.659033 176.740566 
Q 451.659033 176.740566 451.659033 175.740566 
L 451.659033 165.960879 
Q 451.659033 164.960879 450.659033 164.960879 
L 397.255908 164.960879 
Q 396.255908 164.960879 396.255908 165.960879 
L 396.255908 175.740566 
Q 396.255908 176.740566 397.255908 176.740566 
z
" style="fill: #ffffff; opacity: 0.85"/>
    </g>
    <!-- AC_L=S_L -->
    <g style="fill: #2b5b84" transform="translate(397.255908 173.382754) scale(0.1 -0.1)">
     <defs>
      <path id="DejaVuSans-Bold-41" d="M 3419 850 
L 1538 850 
L 1241 0 
L 31 0 
L 1759 4666 
L 3194 4666 
L 4922 0 
L 3713 0 
L 3419 850 
z
M 1838 1716 
L 3116 1716 
L 2478 3572 
L 1838 1716 
z
" transform="scale(0.015625)"/>
      <path id="DejaVuSans-Bold-43" d="M 4288 256 
Q 3956 84 3597 -3 
Q 3238 -91 2847 -91 
Q 1681 -91 1000 561 
Q 319 1213 319 2328 
Q 319 3447 1000 4098 
Q 1681 4750 2847 4750 
Q 3238 4750 3597 4662 
Q 3956 4575 4288 4403 
L 4288 3438 
Q 3953 3666 3628 3772 
Q 3303 3878 2944 3878 
Q 2300 3878 1931 3465 
Q 1563 3053 1563 2328 
Q 1563 1606 1931 1193 
Q 2300 781 2944 781 
Q 3303 781 3628 887 
Q 3953 994 4288 1222 
L 4288 256 
z
" transform="scale(0.015625)"/>
      <path id="DejaVuSans-Bold-5f" d="M 3200 -916 
L 3200 -1509 
L 0 -1509 
L 0 -916 
L 3200 -916 
z
" transform="scale(0.015625)"/>
      <path id="DejaVuSans-Bold-4c" d="M 588 4666 
L 1791 4666 
L 1791 909 
L 3903 909 
L 3903 0 
L 588 0 
L 588 4666 
z
" transform="scale(0.015625)"/>
      <path id="DejaVuSans-Bold-3d" d="M 678 3084 
L 4684 3084 
L 4684 2350 
L 678 2350 
L 678 3084 
z
M 678 1663 
L 4684 1663 
L 4684 922 
L 678 922 
L 678 1663 
z
" transform="scale(0.015625)"/>
      <path id="DejaVuSans-Bold-53" d="M 3834 4519 
L 3834 3531 
Q 3450 3703 3084 3790 
Q 2719 3878 2394 3878 
Q 1963 3878 1756 3759 
Q 1550 3641 1550 3391 
Q 1550 3203 1689 3098 
Q 1828 2994 2194 2919 
L 2706 2816 
Q 3484 2659 3812 2340 
Q 4141 2022 4141 1434 
Q 4141 663 3683 286 
Q 3225 -91 2284 -91 
Q 1841 -91 1394 -6 
Q 947 78 500 244 
L 500 1259 
Q 947 1022 1364 901 
Q 1781 781 2169 781 
Q 2563 781 2772 912 
Q 2981 1044 2981 1288 
Q 2981 1506 2839 1625 
Q 2697 1744 2272 1838 
L 1806 1941 
Q 1106 2091 782 2419 
Q 459 2747 459 3303 
Q 459 4000 909 4375 
Q 1359 4750 2203 4750 
Q 2588 4750 2994 4692 
Q 3400 4634 3834 4519 
z
" transform="scale(0.015625)"/>
     </defs>
     <use xlink:href="#DejaVuSans-Bold-41"/>
     <use xlink:href="#DejaVuSans-Bold-43" x="77.392578"/>
     <use xlink:href="#DejaVuSans-Bold-5f" x="150.78125"/>
     <use xlink:href="#DejaVuSans-Bold-4c" x="200.78125"/>
     <use xlink:href="#DejaVuSans-Bold-3d" x="264.501953"/>
     <use xlink:href="#DejaVuSans-Bold-53" x="348.291016"/>
     <use xlink:href="#DejaVuSans-Bold-5f" x="420.3125"/>
     <use xlink:href="#DejaVuSans-Bold-4c" x="470.3125"/>
    </g>
   </g>
   <g id="text_4">
    <g id="patch_6">
     <path d="M 278.645857 116.188385 
L 307.308357 116.188385 
Q 308.308357 116.188385 308.308357 115.188385 
L 308.308357 105.408698 
Q 308.308357 104.408698 307.308357 104.408698 
L 278.645857 104.408698 
Q 277.645857 104.408698 277.645857 105.408698 
L 277.645857 115.188385 
Q 277.645857 116.188385 278.645857 116.188385 
z
" style="fill: #ffffff; opacity: 0.85"/>
    </g>
    <!-- MC_L -->
    <g style="fill: #c44e52" transform="translate(278.645857 112.830573) scale(0.1 -0.1)">
     <defs>
      <path id="DejaVuSans-Bold-4d" d="M 588 4666 
L 2119 4666 
L 3181 2169 
L 4250 4666 
L 5778 4666 
L 5778 0 
L 4641 0 
L 4641 3413 
L 3566 897 
L 2803 897 
L 1728 3413 
L 1728 0 
L 588 0 
L 588 4666 
z
" transform="scale(0.015625)"/>
     </defs>
     <use xlink:href="#DejaVuSans-Bold-4d"/>
     <use xlink:href="#DejaVuSans-Bold-43" x="99.511719"/>
     <use xlink:href="#DejaVuSans-Bold-5f" x="172.900391"/>
     <use xlink:href="#DejaVuSans-Bold-4c" x="222.900391"/>
    </g>
   </g>
   <g id="text_5">
    <g id="patch_7">
     <path d="M 359.401636 303.914772 
L 412.436011 303.914772 
Q 413.436011 303.914772 413.436011 302.914772 
L 413.436011 293.236647 
Q 413.436011 292.236647 412.436011 292.236647 
L 359.401636 292.236647 
Q 358.401636 292.236647 358.401636 293.236647 
L 358.401636 302.914772 
Q 358.401636 303.914772 359.401636 303.914772 
z
" style="fill: #ffffff; opacity: 0.85"/>
    </g>
    <!-- MRP=D_L -->
    <g style="fill: #27ae60" transform="translate(359.401636 300.55696) scale(0.1 -0.1)">
     <defs>
      <path id="DejaVuSans-Bold-52" d="M 2297 2597 
Q 2675 2597 2839 2737 
Q 3003 2878 3003 3200 
Q 3003 3519 2839 3656 
Q 2675 3794 2297 3794 
L 1791 3794 
L 1791 2597 
L 2297 2597 
z
M 1791 1766 
L 1791 0 
L 588 0 
L 588 4666 
L 2425 4666 
Q 3347 4666 3776 4356 
Q 4206 4047 4206 3378 
Q 4206 2916 3982 2619 
Q 3759 2322 3309 2181 
Q 3556 2125 3751 1926 
Q 3947 1728 4147 1325 
L 4800 0 
L 3519 0 
L 2950 1159 
Q 2778 1509 2601 1637 
Q 2425 1766 2131 1766 
L 1791 1766 
z
" transform="scale(0.015625)"/>
      <path id="DejaVuSans-Bold-50" d="M 588 4666 
L 2584 4666 
Q 3475 4666 3951 4270 
Q 4428 3875 4428 3144 
Q 4428 2409 3951 2014 
Q 3475 1619 2584 1619 
L 1791 1619 
L 1791 0 
L 588 0 
L 588 4666 
z
M 1791 3794 
L 1791 2491 
L 2456 2491 
Q 2806 2491 2997 2661 
Q 3188 2831 3188 3144 
Q 3188 3456 2997 3625 
Q 2806 3794 2456 3794 
L 1791 3794 
z
" transform="scale(0.015625)"/>
      <path id="DejaVuSans-Bold-44" d="M 1791 3756 
L 1791 909 
L 2222 909 
Q 2959 909 3348 1275 
Q 3738 1641 3738 2338 
Q 3738 3031 3350 3393 
Q 2963 3756 2222 3756 
L 1791 3756 
z
M 588 4666 
L 1856 4666 
Q 2919 4666 3439 4514 
Q 3959 4363 4331 4000 
Q 4659 3684 4818 3271 
Q 4978 2859 4978 2338 
Q 4978 1809 4818 1395 
Q 4659 981 4331 666 
Q 3956 303 3431 151 
Q 2906 0 1856 0 
L 588 0 
L 588 4666 
z
" transform="scale(0.015625)"/>
     </defs>
     <use xlink:href="#DejaVuSans-Bold-4d"/>
     <use xlink:href="#DejaVuSans-Bold-52" x="99.511719"/>
     <use xlink:href="#DejaVuSans-Bold-50" x="176.513672"/>
     <use xlink:href="#DejaVuSans-Bold-3d" x="249.804688"/>
     <use xlink:href="#DejaVuSans-Bold-44" x="333.59375"/>
     <use xlink:href="#DejaVuSans-Bold-5f" x="416.601562"/>
     <use xlink:href="#DejaVuSans-Bold-4c" x="466.601562"/>
    </g>
   </g>
   <g id="line2d_8">
    <defs>
     <path id="m542b33c961" d="M 0 4 
C 1.060812 4 2.078319 3.578535 2.828427 2.828427 
C 3.578535 2.078319 4 1.060812 4 0 
C 4 -1.060812 3.578535 -2.078319 2.828427 -2.828427 
C 2.078319 -3.578535 1.060812 -4 0 -4 
C -1.060812 -4 -2.078319 -3.578535 -2.828427 -2.828427 
C -3.578535 -2.078319 -4 -1.060812 -4 0 
C -4 1.060812 -3.578535 2.078319 -2.828427 2.828427 
C -2.078319 3.578535 -1.060812 4 0 4 
z
" style="stroke: #ffffff; stroke-width: 1.5"/>
    </defs>
    <g clip-path="url(#p579e948ea7)">
     <use xlink:href="#m542b33c961" x="196.979375" y="197.7678" style="fill: #1a1a1a; stroke: #ffffff; stroke-width: 1.5"/>
    </g>
   </g>
   <g id="line2d_9">
    <g clip-path="url(#p579e948ea7)">
     <use xlink:href="#m542b33c961" x="265.135089" y="245.169" style="fill: #1a1a1a; stroke: #ffffff; stroke-width: 1.5"/>
    </g>
   </g>
  </g>
 </g>
 <defs>
  <clipPath id="p579e948ea7">
   <rect x="37.949375" y="14.4" width="502.2" height="388.08"/>
  </clipPath>
 </defs>
</svg>
