<?xml version="1.0" encoding="utf-8" standalone="no"?>
<!DOCTYPE svg PUBLIC "-//W3C//DTD SVG 1.1//EN"
  "http://www.w3.org/Graphics/SVG/1.1/DTD/svg11.dtd">
<svg xmlns:xlink="http://www.w3.org/1999/xlink" width="614.285pt" height="499.805pt" viewBox="0 0 614.285 499.805" xmlns="http://www.w3.org/2000/svg" version="1.1">
 <metadata>
  <rdf:RDF xmlns:dc="http://purl.org/dc/elements/1.1/" xmlns:cc="http://creativecommons.org/ns#" xmlns:rdf="http://www.w3.org/1999/02/22-rdf-syntax-ns#">
   <cc:Work>
    <dc:type rdf:resource="http://purl.org/dc/dcmitype/StillImage"/>
    <dc:date>2026-06-01T21:10:34.888951</dc:date>
    <dc:format>image/svg+xml</dc:format>
    <dc:creator>
     <cc:Agent>
      <dc:title>Matplotlib v3.9.4, https://matplotlib.org/</dc:title>
     </cc:Agent>
    </dc:creator>
   </cc:Work>
  </rdf:RDF>
 </metadata>
 <defs>
  <style type="text/css">*{stroke-linejoin: round; stroke-linecap: butt}</style>
 </defs>
 <g id="figure_1">
  <g id="patch_1">
   <path d="M 0 499.805 
L 614.285 499.805 
L 614.285 0 
L 0 0 
z
" style="fill: #ffffff"/>
  </g>
  <g id="axes_1">
   <g id="patch_2">
    <path d="M 41.885 457.92 
L 599.885 457.92 
L 599.885 14.4 
L 41.885 14.4 
z
" style="fill: #ffffff"/>
   </g>
   <g id="line2d_1">
    <path d="M 195.335 457.92 
L 195.335 191.808 
" clip-path="url(#pfac2b9670e)" style="fill: none; stroke-dasharray: 3.7,1.6; stroke-dashoffset: 0; stroke: #666666; stroke-opacity: 0.5"/>
   </g>
   <g id="line2d_2">
    <path d="M 41.885 191.808 
L 195.335 191.808 
" clip-path="url(#pfac2b9670e)" style="fill: none; stroke-dasharray: 3.7,1.6; stroke-dashoffset: 0; stroke: #666666; stroke-opacity: 0.5"/>
   </g>
   <g id="matplotlib.axis_1">
    <g id="xtick_1"/>
    <g id="xtick_2"/>
    <g id="xtick_3"/>
    <g id="xtick_4"/>
    <g id="xtick_5"/>
    <g id="xtick_6"/>
    <g id="xtick_7"/>
    <g id="xtick_8"/>
    <g id="xtick_9"/>
    <g id="text_1">
     <!-- Q -->
     <g transform="translate(314.08375 482.0775) scale(0.16 -0.16)">
      <defs>
       <path id="DejaVuSans-Bold-51" d="M 2847 -84 
L 2753 -84 
Q 1600 -84 959 553 
Q 319 1191 319 2328 
Q 319 3463 958 4106 
Q 1597 4750 2719 4750 
Q 3853 4750 4486 4112 
Q 5119 3475 5119 2328 
Q 5119 1541 4783 972 
Q 4447 403 3816 116 
L 4756 -934 
L 3609 -934 
L 2847 -84 
z
M 2719 3878 
Q 2169 3878 1866 3472 
Q 1563 3066 1563 2328 
Q 1563 1578 1859 1179 
Q 2156 781 2719 781 
Q 3272 781 3575 1187 
Q 3878 1594 3878 2328 
Q 3878 3066 3575 3472 
Q 3272 3878 2719 3878 
z
" transform="scale(0.015625)"/>
      </defs>
      <use xlink:href="#DejaVuSans-Bold-51"/>
     </g>
    </g>
   </g>
   <g id="matplotlib.axis_2">
    <g id="ytick_1"/>
    <g id="ytick_2"/>
    <g id="ytick_3"/>
    <g id="ytick_4"/>
    <g id="ytick_5"/>
    <g id="ytick_6"/>
    <g id="ytick_7"/>
    <g id="ytick_8"/>
    <g id="ytick_9"/>
    <g id="text_2">
     <!-- P -->
     <g transform="translate(26.5575 242.02375) rotate(-90) scale(0.16 -0.16)">
      <defs>
       <path id="DejaVuSans-Bold-50" d="M 588 4666 
L 2584 4666 
Q 3475 4666 3951 4270 
Q 4428 3875 4428 3144 
Q 4428 2409 3951 2014 
Q 3475 1619 2584 1619 
L 1791 1619 
L 1791 0 
L 588 0 
L 588 4666 
z
M 1791 3794 
L 1791 2491 
L 2456 2491 
Q 2806 2491 2997 2661 
Q 3188 2831 3188 3144 
Q 3188 3456 2997 3625 
Q 2806 3794 2456 3794 
L 1791 3794 
z
" transform="scale(0.015625)"/>
      </defs>
      <use xlink:href="#DejaVuSans-Bold-50"/>
     </g>
    </g>
   </g>
   <g id="line2d_3">
    <path d="M 41.885 69.84 
L 529.784497 457.641407 
L 529.784497 457.641407 
" clip-path="url(#pfac2b9670e)" style="fill: none; stroke: #2b5b84; stroke-width: 2; stroke-linecap: square"/>
   </g>
   <g id="line2d_4">
    <path d="M 41.885 374.76 
L 44.68902 371.416884 
L 47.49304 368.073769 
L 50.29706 364.730653 
L 53.10108 361.387538 
L 55.905101 358.044422 
L 58.709121 354.701307 
L 61.513141 351.358191 
L 64.317161 348.015075 
L 67.121181 344.67196 
L 69.925201 341.328844 
L 72.729221 337.985729 
L 75.533241 334.642613 
L 78.337261 331.299497 
L 81.141281 327.956382 
L 83.945302 324.613266 
L 86.749322 321.270151 
L 89.553342 317.927035 
L 92.357362 314.58392 
L 95.161382 311.240804 
L 97.965402 307.897688 
L 100.769422 304.554573 
L 103.573442 301.211457 
L 106.377462 297.868342 
L 109.181482 294.525226 
L 111.985503 291.182111 
L 114.789523 287.838995 
L 117.593543 284.495879 
L 120.397563 281.152764 
L 123.201583 277.809648 
L 126.005603 274.466533 
L 128.809623 271.123417 
L 131.613643 267.780302 
L 134.417663 264.437186 
L 137.221683 261.09407 
L 140.025704 257.750955 
L 142.829724 254.407839 
L 145.633744 251.064724 
L 148.437764 247.721608 
L 151.241784 244.378492 
L 154.045804 241.035377 
L 156.849824 237.692261 
L 159.653844 234.349146 
L 162.457864 231.00603 
L 165.261884 227.662915 
L 168.065905 224.319799 
L 170.869925 220.976683 
L 173.673945 217.633568 
L 176.477965 214.290452 
L 179.281985 210.947337 
L 182.086005 207.604221 
L 184.890025 204.261106 
L 187.694045 200.91799 
L 190.498065 197.574874 
L 193.302085 194.231759 
L 196.106106 190.888643 
L 198.910126 187.545528 
L 201.714146 184.202412 
L 204.518166 180.859296 
L 207.322186 177.516181 
L 210.126206 174.173065 
L 212.930226 170.82995 
L 215.734246 167.486834 
L 218.538266 164.143719 
L 221.342286 160.800603 
L 224.146307 157.457487 
L 226.950327 154.114372 
L 229.754347 150.771256 
L 232.558367 147.428141 
L 235.362387 144.085025 
L 238.166407 140.74191 
L 240.970427 137.398794 
L 243.774447 134.055678 
L 246.578467 130.712563 
L 249.382487 127.369447 
L 252.186508 124.026332 
L 254.990528 120.683216 
L 257.794548 117.340101 
L 260.598568 113.996985 
L 263.402588 110.653869 
L 266.206608 107.310754 
L 269.010628 103.967638 
L 271.814648 100.624523 
L 274.618668 97.281407 
L 277.422688 93.938291 
L 280.226709 90.595176 
L 283.030729 87.25206 
L 285.834749 83.908945 
L 288.638769 80.565829 
L 291.442789 77.222714 
L 294.246809 73.879598 
L 297.050829 70.536482 
L 299.854849 67.193367 
L 302.658869 63.850251 
L 305.462889 60.507136 
L 308.26691 57.16402 
L 311.07093 53.820905 
L 313.87495 50.477789 
L 316.67897 47.134673 
L 319.48299 43.791558 
L 322.28701 40.448442 
L 325.09103 37.105327 
L 327.89505 33.762211 
L 330.69907 30.419095 
L 333.50309 27.07598 
L 336.307111 23.732864 
L 339.111131 20.389749 
L 341.915151 17.046633 
" clip-path="url(#pfac2b9670e)" style="fill: none; stroke: #c44e52; stroke-width: 2; stroke-linecap: square"/>
   </g>
   <g id="patch_3">
    <path d="M 41.885 457.92 
L 41.885 14.4 
" style="fill: none; stroke: #000000; stroke-width: 0.8; stroke-linejoin: miter; stroke-linecap: square"/>
   </g>
   <g id="patch_4">
    <path d="M 41.885 457.92 
L 599.885 457.92 
" style="fill: none; stroke: #000000; stroke-width: 0.8; stroke-linejoin: miter; stroke-linecap: square"/>
   </g>
   <g id="text_3">
    <g id="patch_5">
     <path d="M 391.975452 338.400327 
L 402.767484 338.400327 
Q 404.717484 338.400327 404.717484 336.450327 
L 404.717484 323.868765 
Q 404.717484 321.918765 402.767484 321.918765 
L 391.975452 321.918765 
Q 390.025452 321.918765 390.025452 323.868765 
L 390.025452 336.450327 
Q 390.025452 338.400327 391.975452 338.400327 
z
" style="fill: #ffffff; opacity: 0.9; stroke: #2b5b84; stroke-width: 0.8; stroke-linejoin: miter"/>
    </g>
    <!-- D -->
    <g style="fill: #2b5b84" transform="translate(391.975452 333.746734) scale(0.13 -0.13)">
     <defs>
      <path id="DejaVuSans-Bold-44" d="M 1791 3756 
L 1791 909 
L 2222 909 
Q 2959 909 3348 1275 
Q 3738 1641 3738 2338 
Q 3738 3031 3350 3393 
Q 2963 3756 2222 3756 
L 1791 3756 
z
M 588 4666 
L 1856 4666 
Q 2919 4666 3439 4514 
Q 3959 4363 4331 4000 
Q 4659 3684 4818 3271 
Q 4978 2859 4978 2338 
Q 4978 1809 4818 1395 
Q 4659 981 4331 666 
Q 3956 303 3431 151 
Q 2906 0 1856 0 
L 588 0 
L 588 4666 
z
" transform="scale(0.015625)"/>
     </defs>
     <use xlink:href="#DejaVuSans-Bold-44"/>
    </g>
   </g>
   <g id="text_4">
    <g id="patch_6">
     <path d="M 260.186508 120.679925 
L 327.615883 120.679925 
Q 329.565883 120.679925 329.565883 118.729925 
L 329.565883 106.148363 
Q 329.565883 104.198363 327.615883 104.198363 
L 260.186508 104.198363 
Q 258.236508 104.198363 258.236508 106.148363 
L 258.236508 118.729925 
Q 258.236508 120.679925 260.186508 120.679925 
z
" style="fill: #ffffff; opacity: 0.9; stroke: #c44e52; stroke-width: 0.8; stroke-linejoin: miter"/>
    </g>
    <!-- S (s=1.5) -->
    <g style="fill: #c44e52" transform="translate(260.186508 116.026332) scale(0.13 -0.13)">
     <defs>
      <path id="DejaVuSans-Bold-53" d="M 3834 4519 
L 3834 3531 
Q 3450 3703 3084 3790 
Q 2719 3878 2394 3878 
Q 1963 3878 1756 3759 
Q 1550 3641 1550 3391 
Q 1550 3203 1689 3098 
Q 1828 2994 2194 2919 
L 2706 2816 
Q 3484 2659 3812 2340 
Q 4141 2022 4141 1434 
Q 4141 663 3683 286 
Q 3225 -91 2284 -91 
Q 1841 -91 1394 -6 
Q 947 78 500 244 
L 500 1259 
Q 947 1022 1364 901 
Q 1781 781 2169 781 
Q 2563 781 2772 912 
Q 2981 1044 2981 1288 
Q 2981 1506 2839 1625 
Q 2697 1744 2272 1838 
L 1806 1941 
Q 1106 2091 782 2419 
Q 459 2747 459 3303 
Q 459 4000 909 4375 
Q 1359 4750 2203 4750 
Q 2588 4750 2994 4692 
Q 3400 4634 3834 4519 
z
" transform="scale(0.015625)"/>
      <path id="DejaVuSans-Bold-20" transform="scale(0.015625)"/>
      <path id="DejaVuSans-Bold-28" d="M 2413 -844 
L 1484 -844 
Q 1006 -72 778 623 
Q 550 1319 550 2003 
Q 550 2688 779 3389 
Q 1009 4091 1484 4856 
L 2413 4856 
Q 2013 4116 1813 3408 
Q 1613 2700 1613 2009 
Q 1613 1319 1811 609 
Q 2009 -100 2413 -844 
z
" transform="scale(0.015625)"/>
      <path id="DejaVuSans-Bold-73" d="M 3272 3391 
L 3272 2541 
Q 2913 2691 2578 2766 
Q 2244 2841 1947 2841 
Q 1628 2841 1473 2761 
Q 1319 2681 1319 2516 
Q 1319 2381 1436 2309 
Q 1553 2238 1856 2203 
L 2053 2175 
Q 2913 2066 3209 1816 
Q 3506 1566 3506 1031 
Q 3506 472 3093 190 
Q 2681 -91 1863 -91 
Q 1516 -91 1145 -36 
Q 775 19 384 128 
L 384 978 
Q 719 816 1070 734 
Q 1422 653 1784 653 
Q 2113 653 2278 743 
Q 2444 834 2444 1013 
Q 2444 1163 2330 1236 
Q 2216 1309 1875 1350 
L 1678 1375 
Q 931 1469 631 1722 
Q 331 1975 331 2491 
Q 331 3047 712 3315 
Q 1094 3584 1881 3584 
Q 2191 3584 2531 3537 
Q 2872 3491 3272 3391 
z
" transform="scale(0.015625)"/>
      <path id="DejaVuSans-Bold-3d" d="M 678 3084 
L 4684 3084 
L 4684 2350 
L 678 2350 
L 678 3084 
z
M 678 1663 
L 4684 1663 
L 4684 922 
L 678 922 
L 678 1663 
z
" transform="scale(0.015625)"/>
      <path id="DejaVuSans-Bold-31" d="M 750 831 
L 1813 831 
L 1813 3847 
L 722 3622 
L 722 4441 
L 1806 4666 
L 2950 4666 
L 2950 831 
L 4013 831 
L 4013 0 
L 750 0 
L 750 831 
z
" transform="scale(0.015625)"/>
      <path id="DejaVuSans-Bold-2e" d="M 653 1209 
L 1778 1209 
L 1778 0 
L 653 0 
L 653 1209 
z
" transform="scale(0.015625)"/>
      <path id="DejaVuSans-Bold-35" d="M 678 4666 
L 3669 4666 
L 3669 3781 
L 1638 3781 
L 1638 3059 
Q 1775 3097 1914 3117 
Q 2053 3138 2203 3138 
Q 3056 3138 3531 2711 
Q 4006 2284 4006 1522 
Q 4006 766 3489 337 
Q 2972 -91 2053 -91 
Q 1656 -91 1267 -14 
Q 878 63 494 219 
L 494 1166 
Q 875 947 1217 837 
Q 1559 728 1863 728 
Q 2300 728 2551 942 
Q 2803 1156 2803 1522 
Q 2803 1891 2551 2103 
Q 2300 2316 1863 2316 
Q 1603 2316 1309 2248 
Q 1016 2181 678 2041 
L 678 4666 
z
" transform="scale(0.015625)"/>
      <path id="DejaVuSans-Bold-29" d="M 513 -844 
Q 913 -100 1113 609 
Q 1313 1319 1313 2009 
Q 1313 2700 1113 3408 
Q 913 4116 513 4856 
L 1441 4856 
Q 1916 4091 2145 3389 
Q 2375 2688 2375 2003 
Q 2375 1319 2147 623 
Q 1919 -72 1441 -844 
L 513 -844 
z
" transform="scale(0.015625)"/>
     </defs>
     <use xlink:href="#DejaVuSans-Bold-53"/>
     <use xlink:href="#DejaVuSans-Bold-20" x="72.021484"/>
     <use xlink:href="#DejaVuSans-Bold-28" x="106.835938"/>
     <use xlink:href="#DejaVuSans-Bold-73" x="152.539062"/>
     <use xlink:href="#DejaVuSans-Bold-3d" x="212.060547"/>
     <use xlink:href="#DejaVuSans-Bold-31" x="295.849609"/>
     <use xlink:href="#DejaVuSans-Bold-2e" x="365.429688"/>
     <use xlink:href="#DejaVuSans-Bold-35" x="403.417969"/>
     <use xlink:href="#DejaVuSans-Bold-29" x="472.998047"/>
    </g>
   </g>
   <g id="text_5">
    <g id="patch_7">
     <path d="M 205.335 188.219562 
L 214.89875 188.219562 
Q 218.39875 188.219562 218.39875 184.719562 
L 218.39875 171.170187 
Q 218.39875 167.670187 214.89875 167.670187 
L 205.335 167.670187 
Q 201.835 167.670187 201.835 171.170187 
L 201.835 184.719562 
Q 201.835 188.219562 205.335 188.219562 
z
" style="fill: #ffffff; opacity: 0.9; stroke: #999999; stroke-width: 0.5; stroke-linejoin: miter"/>
    </g>
    <!-- E -->
    <g transform="translate(205.335 181.808) scale(0.14 -0.14)">
     <defs>
      <path id="DejaVuSans-Bold-45" d="M 588 4666 
L 3834 4666 
L 3834 3756 
L 1791 3756 
L 1791 2888 
L 3713 2888 
L 3713 1978 
L 1791 1978 
L 1791 909 
L 3903 909 
L 3903 0 
L 588 0 
L 588 4666 
z
" transform="scale(0.015625)"/>
     </defs>
     <use xlink:href="#DejaVuSans-Bold-45"/>
    </g>
   </g>
   <g id="line2d_5">
    <defs>
     <path id="m5d3e09620f" d="M 0 5 
C 1.326016 5 2.597899 4.473168 3.535534 3.535534 
C 4.473168 2.597899 5 1.326016 5 0 
C 5 -1.326016 4.473168 -2.597899 3.535534 -3.535534 
C 2.597899 -4.473168 1.326016 -5 0 -5 
C -1.326016 -5 -2.597899 -4.473168 -3.535534 -3.535534 
C -4.473168 -2.597899 -5 -1.326016 -5 0 
C -5 1.326016 -4.473168 2.597899 -3.535534 3.535534 
C -2.597899 4.473168 -1.326016 5 0 5 
z
" style="stroke: #ffffff; stroke-width: 2"/>
    </defs>
    <g clip-path="url(#pfac2b9670e)">
     <use xlink:href="#m5d3e09620f" x="195.335" y="191.808" style="fill: #1a1a1a; stroke: #ffffff; stroke-width: 2"/>
    </g>
   </g>
  </g>
 </g>
 <defs>
  <clipPath id="pfac2b9670e">
   <rect x="41.885" y="14.4" width="558" height="443.52"/>
  </clipPath>
 </defs>
</svg>
