<?xml version="1.0" encoding="utf-8" standalone="no"?>
<!DOCTYPE svg PUBLIC "-//W3C//DTD SVG 1.1//EN"
  "http://www.w3.org/Graphics/SVG/1.1/DTD/svg11.dtd">
<svg xmlns:xlink="http://www.w3.org/1999/xlink" width="614.285pt" height="499.93pt" viewBox="0 0 614.285 499.93" xmlns="http://www.w3.org/2000/svg" version="1.1">
 <metadata>
  <rdf:RDF xmlns:dc="http://purl.org/dc/elements/1.1/" xmlns:cc="http://creativecommons.org/ns#" xmlns:rdf="http://www.w3.org/1999/02/22-rdf-syntax-ns#">
   <cc:Work>
    <dc:type rdf:resource="http://purl.org/dc/dcmitype/StillImage"/>
    <dc:date>2026-06-01T21:22:38.453492</dc:date>
    <dc:format>image/svg+xml</dc:format>
    <dc:creator>
     <cc:Agent>
      <dc:title>Matplotlib v3.9.4, https://matplotlib.org/</dc:title>
     </cc:Agent>
    </dc:creator>
   </cc:Work>
  </rdf:RDF>
 </metadata>
 <defs>
  <style type="text/css">*{stroke-linejoin: round; stroke-linecap: butt}</style>
 </defs>
 <g id="figure_1">
  <g id="patch_1">
   <path d="M 0 499.93 
L 614.285 499.93 
L 614.285 0 
L 0 0 
z
" style="fill: #ffffff"/>
  </g>
  <g id="axes_1">
   <g id="patch_2">
    <path d="M 41.885 457.92 
L 599.885 457.92 
L 599.885 14.4 
L 41.885 14.4 
z
" style="fill: #ffffff"/>
   </g>
   <g id="line2d_1">
    <path d="M 255.01 457.92 
L 255.01 282.36 
" clip-path="url(#p367cf9c9e0)" style="fill: none; stroke-dasharray: 3.7,1.6; stroke-dashoffset: 0; stroke: #666666; stroke-opacity: 0.5"/>
   </g>
   <g id="line2d_2">
    <path d="M 41.885 282.36 
L 255.01 282.36 
" clip-path="url(#p367cf9c9e0)" style="fill: none; stroke-dasharray: 3.7,1.6; stroke-dashoffset: 0; stroke: #666666; stroke-opacity: 0.5"/>
   </g>
   <g id="line2d_3">
    <path d="M 196.885 457.92 
L 196.885 236.16 
" clip-path="url(#p367cf9c9e0)" style="fill: none; stroke-dasharray: 3.7,1.6; stroke-dashoffset: 0; stroke: #666666; stroke-opacity: 0.5"/>
   </g>
   <g id="line2d_4">
    <path d="M 41.885 236.16 
L 196.885 236.16 
" clip-path="url(#p367cf9c9e0)" style="fill: none; stroke-dasharray: 3.7,1.6; stroke-dashoffset: 0; stroke: #666666; stroke-opacity: 0.5"/>
   </g>
   <g id="PolyCollection_1">
    <defs>
     <path id="ma0fd985bd8" d="M 196.885 -189.85 
L 196.885 -263.77 
L 197.472121 -263.303333 
L 198.059242 -262.836667 
L 198.646364 -262.37 
L 199.233485 -261.903333 
L 199.820606 -261.436667 
L 200.407727 -260.97 
L 200.994848 -260.503333 
L 201.58197 -260.036667 
L 202.169091 -259.57 
L 202.756212 -259.103333 
L 203.343333 -258.636667 
L 203.930455 -258.17 
L 204.517576 -257.703333 
L 205.104697 -257.236667 
L 205.691818 -256.77 
L 206.278939 -256.303333 
L 206.866061 -255.836667 
L 207.453182 -255.37 
L 208.040303 -254.903333 
L 208.627424 -254.436667 
L 209.214545 -253.97 
L 209.801667 -253.503333 
L 210.388788 -253.036667 
L 210.975909 -252.57 
L 211.56303 -252.103333 
L 212.150152 -251.636667 
L 212.737273 -251.17 
L 213.324394 -250.703333 
L 213.911515 -250.236667 
L 214.498636 -249.77 
L 215.085758 -249.303333 
L 215.672879 -248.836667 
L 216.26 -248.37 
L 216.847121 -247.903333 
L 217.434242 -247.436667 
L 218.021364 -246.97 
L 218.608485 -246.503333 
L 219.195606 -246.036667 
L 219.782727 -245.57 
L 220.369848 -245.103333 
L 220.95697 -244.636667 
L 221.544091 -244.17 
L 222.131212 -243.703333 
L 222.718333 -243.236667 
L 223.305455 -242.77 
L 223.892576 -242.303333 
L 224.479697 -241.836667 
L 225.066818 -241.37 
L 225.653939 -240.903333 
L 226.241061 -240.436667 
L 226.828182 -239.97 
L 227.415303 -239.503333 
L 228.002424 -239.036667 
L 228.589545 -238.57 
L 229.176667 -238.103333 
L 229.763788 -237.636667 
L 230.350909 -237.17 
L 230.93803 -236.703333 
L 231.525152 -236.236667 
L 232.112273 -235.77 
L 232.699394 -235.303333 
L 233.286515 -234.836667 
L 233.873636 -234.37 
L 234.460758 -233.903333 
L 235.047879 -233.436667 
L 235.635 -232.97 
L 236.222121 -232.503333 
L 236.809242 -232.036667 
L 237.396364 -231.57 
L 237.983485 -231.103333 
L 238.570606 -230.636667 
L 239.157727 -230.17 
L 239.744848 -229.703333 
L 240.33197 -229.236667 
L 240.919091 -228.77 
L 241.506212 -228.303333 
L 242.093333 -227.836667 
L 242.680455 -227.37 
L 243.267576 -226.903333 
L 243.854697 -226.436667 
L 244.441818 -225.97 
L 245.028939 -225.503333 
L 245.616061 -225.036667 
L 246.203182 -224.57 
L 246.790303 -224.103333 
L 247.377424 -223.636667 
L 247.964545 -223.17 
L 248.551667 -222.703333 
L 249.138788 -222.236667 
L 249.725909 -221.77 
L 250.31303 -221.303333 
L 250.900152 -220.836667 
L 251.487273 -220.37 
L 252.074394 -219.903333 
L 252.661515 -219.436667 
L 253.248636 -218.97 
L 253.835758 -218.503333 
L 254.422879 -218.036667 
L 255.01 -217.57 
L 255.01 -217.57 
L 255.01 -217.57 
L 254.422879 -217.29 
L 253.835758 -217.01 
L 253.248636 -216.73 
L 252.661515 -216.45 
L 252.074394 -216.17 
L 251.487273 -215.89 
L 250.900152 -215.61 
L 250.31303 -215.33 
L 249.725909 -215.05 
L 249.138788 -214.77 
L 248.551667 -214.49 
L 247.964545 -214.21 
L 247.377424 -213.93 
L 246.790303 -213.65 
L 246.203182 -213.37 
L 245.616061 -213.09 
L 245.028939 -212.81 
L 244.441818 -212.53 
L 243.854697 -212.25 
L 243.267576 -211.97 
L 242.680455 -211.69 
L 242.093333 -211.41 
L 241.506212 -211.13 
L 240.919091 -210.85 
L 240.33197 -210.57 
L 239.744848 -210.29 
L 239.157727 -210.01 
L 238.570606 -209.73 
L 237.983485 -209.45 
L 237.396364 -209.17 
L 236.809242 -208.89 
L 236.222121 -208.61 
L 235.635 -208.33 
L 235.047879 -208.05 
L 234.460758 -207.77 
L 233.873636 -207.49 
L 233.286515 -207.21 
L 232.699394 -206.93 
L 232.112273 -206.65 
L 231.525152 -206.37 
L 230.93803 -206.09 
L 230.350909 -205.81 
L 229.763788 -205.53 
L 229.176667 -205.25 
L 228.589545 -204.97 
L 228.002424 -204.69 
L 227.415303 -204.41 
L 226.828182 -204.13 
L 226.241061 -203.85 
L 225.653939 -203.57 
L 225.066818 -203.29 
L 224.479697 -203.01 
L 223.892576 -202.73 
L 223.305455 -202.45 
L 222.718333 -202.17 
L 222.131212 -201.89 
L 221.544091 -201.61 
L 220.95697 -201.33 
L 220.369848 -201.05 
L 219.782727 -200.77 
L 219.195606 -200.49 
L 218.608485 -200.21 
L 218.021364 -199.93 
L 217.434242 -199.65 
L 216.847121 -199.37 
L 216.26 -199.09 
L 215.672879 -198.81 
L 215.085758 -198.53 
L 214.498636 -198.25 
L 213.911515 -197.97 
L 213.324394 -197.69 
L 212.737273 -197.41 
L 212.150152 -197.13 
L 211.56303 -196.85 
L 210.975909 -196.57 
L 210.388788 -196.29 
L 209.801667 -196.01 
L 209.214545 -195.73 
L 208.627424 -195.45 
L 208.040303 -195.17 
L 207.453182 -194.89 
L 206.866061 -194.61 
L 206.278939 -194.33 
L 205.691818 -194.05 
L 205.104697 -193.77 
L 204.517576 -193.49 
L 203.930455 -193.21 
L 203.343333 -192.93 
L 202.756212 -192.65 
L 202.169091 -192.37 
L 201.58197 -192.09 
L 200.994848 -191.81 
L 200.407727 -191.53 
L 199.820606 -191.25 
L 199.233485 -190.97 
L 198.646364 -190.69 
L 198.059242 -190.41 
L 197.472121 -190.13 
L 196.885 -189.85 
z
" style="stroke: #f1948a; stroke-opacity: 0.2"/>
    </defs>
    <g clip-path="url(#p367cf9c9e0)">
     <use xlink:href="#ma0fd985bd8" x="0" y="499.93" style="fill: #f1948a; fill-opacity: 0.2; stroke: #f1948a; stroke-opacity: 0.2"/>
    </g>
   </g>
   <g id="matplotlib.axis_1">
    <g id="xtick_1"/>
    <g id="xtick_2"/>
    <g id="xtick_3"/>
    <g id="xtick_4"/>
    <g id="xtick_5"/>
    <g id="xtick_6"/>
    <g id="xtick_7"/>
    <g id="xtick_8"/>
    <g id="xtick_9"/>
    <g id="xtick_10"/>
    <g id="text_1">
     <!-- Quantity -->
     <g transform="translate(281.69 482.0775) scale(0.16 -0.16)">
      <defs>
       <path id="DejaVuSans-Bold-51" d="M 2847 -84 
L 2753 -84 
Q 1600 -84 959 553 
Q 319 1191 319 2328 
Q 319 3463 958 4106 
Q 1597 4750 2719 4750 
Q 3853 4750 4486 4112 
Q 5119 3475 5119 2328 
Q 5119 1541 4783 972 
Q 4447 403 3816 116 
L 4756 -934 
L 3609 -934 
L 2847 -84 
z
M 2719 3878 
Q 2169 3878 1866 3472 
Q 1563 3066 1563 2328 
Q 1563 1578 1859 1179 
Q 2156 781 2719 781 
Q 3272 781 3575 1187 
Q 3878 1594 3878 2328 
Q 3878 3066 3575 3472 
Q 3272 3878 2719 3878 
z
" transform="scale(0.015625)"/>
       <path id="DejaVuSans-Bold-75" d="M 500 1363 
L 500 3500 
L 1625 3500 
L 1625 3150 
Q 1625 2866 1622 2436 
Q 1619 2006 1619 1863 
Q 1619 1441 1641 1255 
Q 1663 1069 1716 984 
Q 1784 875 1895 815 
Q 2006 756 2150 756 
Q 2500 756 2700 1025 
Q 2900 1294 2900 1772 
L 2900 3500 
L 4019 3500 
L 4019 0 
L 2900 0 
L 2900 506 
Q 2647 200 2364 54 
Q 2081 -91 1741 -91 
Q 1134 -91 817 281 
Q 500 653 500 1363 
z
" transform="scale(0.015625)"/>
       <path id="DejaVuSans-Bold-61" d="M 2106 1575 
Q 1756 1575 1579 1456 
Q 1403 1338 1403 1106 
Q 1403 894 1545 773 
Q 1688 653 1941 653 
Q 2256 653 2472 879 
Q 2688 1106 2688 1447 
L 2688 1575 
L 2106 1575 
z
M 3816 1997 
L 3816 0 
L 2688 0 
L 2688 519 
Q 2463 200 2181 54 
Q 1900 -91 1497 -91 
Q 953 -91 614 226 
Q 275 544 275 1050 
Q 275 1666 698 1953 
Q 1122 2241 2028 2241 
L 2688 2241 
L 2688 2328 
Q 2688 2594 2478 2717 
Q 2269 2841 1825 2841 
Q 1466 2841 1156 2769 
Q 847 2697 581 2553 
L 581 3406 
Q 941 3494 1303 3539 
Q 1666 3584 2028 3584 
Q 2975 3584 3395 3211 
Q 3816 2838 3816 1997 
z
" transform="scale(0.015625)"/>
       <path id="DejaVuSans-Bold-6e" d="M 4056 2131 
L 4056 0 
L 2931 0 
L 2931 347 
L 2931 1631 
Q 2931 2084 2911 2256 
Q 2891 2428 2841 2509 
Q 2775 2619 2662 2680 
Q 2550 2741 2406 2741 
Q 2056 2741 1856 2470 
Q 1656 2200 1656 1722 
L 1656 0 
L 538 0 
L 538 3500 
L 1656 3500 
L 1656 2988 
Q 1909 3294 2193 3439 
Q 2478 3584 2822 3584 
Q 3428 3584 3742 3212 
Q 4056 2841 4056 2131 
z
" transform="scale(0.015625)"/>
       <path id="DejaVuSans-Bold-74" d="M 1759 4494 
L 1759 3500 
L 2913 3500 
L 2913 2700 
L 1759 2700 
L 1759 1216 
Q 1759 972 1856 886 
Q 1953 800 2241 800 
L 2816 800 
L 2816 0 
L 1856 0 
Q 1194 0 917 276 
Q 641 553 641 1216 
L 641 2700 
L 84 2700 
L 84 3500 
L 641 3500 
L 641 4494 
L 1759 4494 
z
" transform="scale(0.015625)"/>
       <path id="DejaVuSans-Bold-69" d="M 538 3500 
L 1656 3500 
L 1656 0 
L 538 0 
L 538 3500 
z
M 538 4863 
L 1656 4863 
L 1656 3950 
L 538 3950 
L 538 4863 
z
" transform="scale(0.015625)"/>
       <path id="DejaVuSans-Bold-79" d="M 78 3500 
L 1197 3500 
L 2138 1125 
L 2938 3500 
L 4056 3500 
L 2584 -331 
Q 2363 -916 2067 -1148 
Q 1772 -1381 1288 -1381 
L 641 -1381 
L 641 -647 
L 991 -647 
Q 1275 -647 1404 -556 
Q 1534 -466 1606 -231 
L 1638 -134 
L 78 3500 
z
" transform="scale(0.015625)"/>
      </defs>
      <use xlink:href="#DejaVuSans-Bold-51"/>
      <use xlink:href="#DejaVuSans-Bold-75" x="85.009766"/>
      <use xlink:href="#DejaVuSans-Bold-61" x="156.201172"/>
      <use xlink:href="#DejaVuSans-Bold-6e" x="223.681641"/>
      <use xlink:href="#DejaVuSans-Bold-74" x="294.873047"/>
      <use xlink:href="#DejaVuSans-Bold-69" x="342.675781"/>
      <use xlink:href="#DejaVuSans-Bold-74" x="376.953125"/>
      <use xlink:href="#DejaVuSans-Bold-79" x="424.755859"/>
     </g>
    </g>
   </g>
   <g id="matplotlib.axis_2">
    <g id="ytick_1"/>
    <g id="ytick_2"/>
    <g id="ytick_3"/>
    <g id="ytick_4"/>
    <g id="ytick_5"/>
    <g id="ytick_6"/>
    <g id="ytick_7"/>
    <g id="ytick_8"/>
    <g id="ytick_9"/>
    <g id="ytick_10"/>
    <g id="text_2">
     <!-- Price -->
     <g transform="translate(26.5575 258.88) rotate(-90) scale(0.16 -0.16)">
      <defs>
       <path id="DejaVuSans-Bold-50" d="M 588 4666 
L 2584 4666 
Q 3475 4666 3951 4270 
Q 4428 3875 4428 3144 
Q 4428 2409 3951 2014 
Q 3475 1619 2584 1619 
L 1791 1619 
L 1791 0 
L 588 0 
L 588 4666 
z
M 1791 3794 
L 1791 2491 
L 2456 2491 
Q 2806 2491 2997 2661 
Q 3188 2831 3188 3144 
Q 3188 3456 2997 3625 
Q 2806 3794 2456 3794 
L 1791 3794 
z
" transform="scale(0.015625)"/>
       <path id="DejaVuSans-Bold-72" d="M 3138 2547 
Q 2991 2616 2845 2648 
Q 2700 2681 2553 2681 
Q 2122 2681 1889 2404 
Q 1656 2128 1656 1613 
L 1656 0 
L 538 0 
L 538 3500 
L 1656 3500 
L 1656 2925 
Q 1872 3269 2151 3426 
Q 2431 3584 2822 3584 
Q 2878 3584 2943 3579 
Q 3009 3575 3134 3559 
L 3138 2547 
z
" transform="scale(0.015625)"/>
       <path id="DejaVuSans-Bold-63" d="M 3366 3391 
L 3366 2478 
Q 3138 2634 2908 2709 
Q 2678 2784 2431 2784 
Q 1963 2784 1702 2511 
Q 1441 2238 1441 1747 
Q 1441 1256 1702 982 
Q 1963 709 2431 709 
Q 2694 709 2930 787 
Q 3166 866 3366 1019 
L 3366 103 
Q 3103 6 2833 -42 
Q 2563 -91 2291 -91 
Q 1344 -91 809 395 
Q 275 881 275 1747 
Q 275 2613 809 3098 
Q 1344 3584 2291 3584 
Q 2566 3584 2833 3536 
Q 3100 3488 3366 3391 
z
" transform="scale(0.015625)"/>
       <path id="DejaVuSans-Bold-65" d="M 4031 1759 
L 4031 1441 
L 1416 1441 
Q 1456 1047 1700 850 
Q 1944 653 2381 653 
Q 2734 653 3104 758 
Q 3475 863 3866 1075 
L 3866 213 
Q 3469 63 3072 -14 
Q 2675 -91 2278 -91 
Q 1328 -91 801 392 
Q 275 875 275 1747 
Q 275 2603 792 3093 
Q 1309 3584 2216 3584 
Q 3041 3584 3536 3087 
Q 4031 2591 4031 1759 
z
M 2881 2131 
Q 2881 2450 2695 2645 
Q 2509 2841 2209 2841 
Q 1884 2841 1681 2658 
Q 1478 2475 1428 2131 
L 2881 2131 
z
" transform="scale(0.015625)"/>
      </defs>
      <use xlink:href="#DejaVuSans-Bold-50"/>
      <use xlink:href="#DejaVuSans-Bold-72" x="73.291016"/>
      <use xlink:href="#DejaVuSans-Bold-69" x="122.607422"/>
      <use xlink:href="#DejaVuSans-Bold-63" x="156.884766"/>
      <use xlink:href="#DejaVuSans-Bold-65" x="216.162109"/>
     </g>
    </g>
   </g>
   <g id="line2d_5">
    <path d="M 41.885 112.96 
L 473.704095 456.186533 
L 473.704095 456.186533 
" clip-path="url(#p367cf9c9e0)" style="fill: none; stroke: #2b5b84; stroke-width: 2; stroke-linecap: square"/>
   </g>
   <g id="line2d_6">
    <path d="M 41.885 384 
L 599.885 117.888 
L 599.885 117.888 
" clip-path="url(#p367cf9c9e0)" style="fill: none; stroke: #c44e52; stroke-width: 2; stroke-linecap: square"/>
   </g>
   <g id="line2d_7">
    <path d="M 41.885 310.08 
L 599.885 43.968 
L 599.885 43.968 
" clip-path="url(#p367cf9c9e0)" style="fill: none; stroke: #e88c8f; stroke-width: 2; stroke-linecap: square"/>
   </g>
   <g id="patch_3">
    <path d="M 41.885 457.92 
L 41.885 14.4 
" style="fill: none; stroke: #000000; stroke-width: 0.8; stroke-linejoin: miter; stroke-linecap: square"/>
   </g>
   <g id="patch_4">
    <path d="M 41.885 457.92 
L 599.885 457.92 
" style="fill: none; stroke: #000000; stroke-width: 0.8; stroke-linejoin: miter; stroke-linecap: square"/>
   </g>
   <g id="text_3">
    <g id="patch_5">
     <path d="M 352.719171 350.317915 
L 363.511202 350.317915 
Q 365.461202 350.317915 365.461202 348.367915 
L 365.461202 335.786353 
Q 365.461202 333.836353 363.511202 333.836353 
L 352.719171 333.836353 
Q 350.769171 333.836353 350.769171 335.786353 
L 350.769171 348.367915 
Q 350.769171 350.317915 352.719171 350.317915 
z
" style="fill: #ffffff; opacity: 0.9; stroke: #2b5b84; stroke-width: 0.8; stroke-linejoin: miter"/>
    </g>
    <!-- D -->
    <g style="fill: #2b5b84" transform="translate(352.719171 345.664322) scale(0.13 -0.13)">
     <defs>
      <path id="DejaVuSans-Bold-44" d="M 1791 3756 
L 1791 909 
L 2222 909 
Q 2959 909 3348 1275 
Q 3738 1641 3738 2338 
Q 3738 3031 3350 3393 
Q 2963 3756 2222 3756 
L 1791 3756 
z
M 588 4666 
L 1856 4666 
Q 2919 4666 3439 4514 
Q 3959 4363 4331 4000 
Q 4659 3684 4818 3271 
Q 4978 2859 4978 2338 
Q 4978 1809 4818 1395 
Q 4659 981 4331 666 
Q 3956 303 3431 151 
Q 2906 0 1856 0 
L 588 0 
L 588 4666 
z
" transform="scale(0.015625)"/>
     </defs>
     <use xlink:href="#DejaVuSans-Bold-44"/>
    </g>
   </g>
   <g id="text_4">
    <g id="patch_6">
     <path d="M 442.447814 193.439121 
L 451.809845 193.439121 
Q 453.759845 193.439121 453.759845 191.489121 
L 453.759845 178.907559 
Q 453.759845 176.957559 451.809845 176.957559 
L 442.447814 176.957559 
Q 440.497814 176.957559 440.497814 178.907559 
L 440.497814 191.489121 
Q 440.497814 193.439121 442.447814 193.439121 
z
" style="fill: #ffffff; opacity: 0.9; stroke: #c44e52; stroke-width: 0.8; stroke-linejoin: miter"/>
    </g>
    <!-- S -->
    <g style="fill: #c44e52" transform="translate(442.447814 188.785528) scale(0.13 -0.13)">
     <defs>
      <path id="DejaVuSans-Bold-53" d="M 3834 4519 
L 3834 3531 
Q 3450 3703 3084 3790 
Q 2719 3878 2394 3878 
Q 1963 3878 1756 3759 
Q 1550 3641 1550 3391 
Q 1550 3203 1689 3098 
Q 1828 2994 2194 2919 
L 2706 2816 
Q 3484 2659 3812 2340 
Q 4141 2022 4141 1434 
Q 4141 663 3683 286 
Q 3225 -91 2284 -91 
Q 1841 -91 1394 -6 
Q 947 78 500 244 
L 500 1259 
Q 947 1022 1364 901 
Q 1781 781 2169 781 
Q 2563 781 2772 912 
Q 2981 1044 2981 1288 
Q 2981 1506 2839 1625 
Q 2697 1744 2272 1838 
L 1806 1941 
Q 1106 2091 782 2419 
Q 459 2747 459 3303 
Q 459 4000 909 4375 
Q 1359 4750 2203 4750 
Q 2588 4750 2994 4692 
Q 3400 4634 3834 4519 
z
" transform="scale(0.015625)"/>
     </defs>
     <use xlink:href="#DejaVuSans-Bold-53"/>
    </g>
   </g>
   <g id="text_5">
    <g id="patch_7">
     <path d="M 442.447814 119.519121 
L 486.075002 119.519121 
Q 488.025002 119.519121 488.025002 117.569121 
L 488.025002 104.987559 
Q 488.025002 103.037559 486.075002 103.037559 
L 442.447814 103.037559 
Q 440.497814 103.037559 440.497814 104.987559 
L 440.497814 117.569121 
Q 440.497814 119.519121 442.447814 119.519121 
z
" style="fill: #ffffff; opacity: 0.9; stroke: #e88c8f; stroke-width: 0.8; stroke-linejoin: miter"/>
    </g>
    <!-- S+tax -->
    <g style="fill: #e88c8f" transform="translate(442.447814 114.865528) scale(0.13 -0.13)">
     <defs>
      <path id="DejaVuSans-Bold-2b" d="M 3053 4013 
L 3053 2375 
L 4684 2375 
L 4684 1638 
L 3053 1638 
L 3053 0 
L 2309 0 
L 2309 1638 
L 678 1638 
L 678 2375 
L 2309 2375 
L 2309 4013 
L 3053 4013 
z
" transform="scale(0.015625)"/>
      <path id="DejaVuSans-Bold-78" d="M 1422 1791 
L 159 3500 
L 1344 3500 
L 2059 2463 
L 2784 3500 
L 3969 3500 
L 2706 1797 
L 4031 0 
L 2847 0 
L 2059 1106 
L 1281 0 
L 97 0 
L 1422 1791 
z
" transform="scale(0.015625)"/>
     </defs>
     <use xlink:href="#DejaVuSans-Bold-53"/>
     <use xlink:href="#DejaVuSans-Bold-2b" x="72.021484"/>
     <use xlink:href="#DejaVuSans-Bold-74" x="155.810547"/>
     <use xlink:href="#DejaVuSans-Bold-61" x="203.613281"/>
     <use xlink:href="#DejaVuSans-Bold-78" x="271.09375"/>
    </g>
   </g>
   <g id="text_6">
    <g id="patch_8">
     <path d="M 243.01 278.771562 
L 252.57375 278.771562 
Q 256.07375 278.771562 256.07375 275.271562 
L 256.07375 261.722187 
Q 256.07375 258.222187 252.57375 258.222187 
L 243.01 258.222187 
Q 239.51 258.222187 239.51 261.722187 
L 239.51 275.271562 
Q 239.51 278.771562 243.01 278.771562 
z
" style="fill: #ffffff; opacity: 0.9; stroke: #999999; stroke-width: 0.5; stroke-linejoin: miter"/>
    </g>
    <!-- E -->
    <g transform="translate(243.01 272.36) scale(0.14 -0.14)">
     <defs>
      <path id="DejaVuSans-Bold-45" d="M 588 4666 
L 3834 4666 
L 3834 3756 
L 1791 3756 
L 1791 2888 
L 3713 2888 
L 3713 1978 
L 1791 1978 
L 1791 909 
L 3903 909 
L 3903 0 
L 588 0 
L 588 4666 
z
" transform="scale(0.015625)"/>
     </defs>
     <use xlink:href="#DejaVuSans-Bold-45"/>
    </g>
   </g>
   <g id="text_7">
    <g id="patch_9">
     <path d="M 206.885 254.960937 
L 230.140312 254.960937 
Q 233.640312 254.960937 233.640312 251.460937 
L 233.640312 237.911562 
Q 233.640312 234.411562 230.140312 234.411562 
L 206.885 234.411562 
Q 203.385 234.411562 203.385 237.911562 
L 203.385 251.460937 
Q 203.385 254.960937 206.885 254.960937 
z
" style="fill: #ffffff; opacity: 0.9; stroke: #999999; stroke-width: 0.5; stroke-linejoin: miter"/>
    </g>
    <!-- E_t -->
    <g transform="translate(206.885 248.16) scale(0.14 -0.14)">
     <defs>
      <path id="DejaVuSans-Bold-5f" d="M 3200 -916 
L 3200 -1509 
L 0 -1509 
L 0 -916 
L 3200 -916 
z
" transform="scale(0.015625)"/>
     </defs>
     <use xlink:href="#DejaVuSans-Bold-45"/>
     <use xlink:href="#DejaVuSans-Bold-5f" x="68.310547"/>
     <use xlink:href="#DejaVuSans-Bold-74" x="118.310547"/>
    </g>
   </g>
   <g id="text_8">
    <!-- DWL -->
    <g style="fill: #f1948a; opacity: 0.8" transform="translate(289.433438 204.423375) scale(0.1 -0.1)">
     <defs>
      <path id="DejaVuSans-Bold-57" d="M 191 4666 
L 1344 4666 
L 2150 1275 
L 2950 4666 
L 4109 4666 
L 4909 1275 
L 5716 4666 
L 6859 4666 
L 5759 0 
L 4372 0 
L 3525 3547 
L 2688 0 
L 1300 0 
L 191 4666 
z
" transform="scale(0.015625)"/>
      <path id="DejaVuSans-Bold-4c" d="M 588 4666 
L 1791 4666 
L 1791 909 
L 3903 909 
L 3903 0 
L 588 0 
L 588 4666 
z
" transform="scale(0.015625)"/>
     </defs>
     <use xlink:href="#DejaVuSans-Bold-44"/>
     <use xlink:href="#DejaVuSans-Bold-57" x="83.007812"/>
     <use xlink:href="#DejaVuSans-Bold-4c" x="193.310547"/>
    </g>
   </g>
   <g id="line2d_8">
    <defs>
     <path id="mf846d9240c" d="M 0 5 
C 1.326016 5 2.597899 4.473168 3.535534 3.535534 
C 4.473168 2.597899 5 1.326016 5 0 
C 5 -1.326016 4.473168 -2.597899 3.535534 -3.535534 
C 2.597899 -4.473168 1.326016 -5 0 -5 
C -1.326016 -5 -2.597899 -4.473168 -3.535534 -3.535534 
C -4.473168 -2.597899 -5 -1.326016 -5 0 
C -5 1.326016 -4.473168 2.597899 -3.535534 3.535534 
C -2.597899 4.473168 -1.326016 5 0 5 
z
" style="stroke: #ffffff; stroke-width: 2"/>
    </defs>
    <g clip-path="url(#p367cf9c9e0)">
     <use xlink:href="#mf846d9240c" x="255.01" y="282.36" style="fill: #1a1a1a; stroke: #ffffff; stroke-width: 2"/>
    </g>
   </g>
   <g id="line2d_9">
    <g clip-path="url(#p367cf9c9e0)">
     <use xlink:href="#mf846d9240c" x="196.885" y="236.16" style="fill: #1a1a1a; stroke: #ffffff; stroke-width: 2"/>
    </g>
   </g>
  </g>
 </g>
 <defs>
  <clipPath id="p367cf9c9e0">
   <rect x="41.885" y="14.4" width="558" height="443.52"/>
  </clipPath>
 </defs>
</svg>
