<?xml version="1.0" encoding="utf-8" standalone="no"?>
<!DOCTYPE svg PUBLIC "-//W3C//DTD SVG 1.1//EN"
  "http://www.w3.org/Graphics/SVG/1.1/DTD/svg11.dtd">
<svg xmlns:xlink="http://www.w3.org/1999/xlink" width="554.549375pt" height="440.429375pt" viewBox="0 0 554.549375 440.429375" xmlns="http://www.w3.org/2000/svg" version="1.1">
 <metadata>
  <rdf:RDF xmlns:dc="http://purl.org/dc/elements/1.1/" xmlns:cc="http://creativecommons.org/ns#" xmlns:rdf="http://www.w3.org/1999/02/22-rdf-syntax-ns#">
   <cc:Work>
    <dc:type rdf:resource="http://purl.org/dc/dcmitype/StillImage"/>
    <dc:date>2026-06-01T18:31:57.290138</dc:date>
    <dc:format>image/svg+xml</dc:format>
    <dc:creator>
     <cc:Agent>
      <dc:title>Matplotlib v3.9.4, https://matplotlib.org/</dc:title>
     </cc:Agent>
    </dc:creator>
   </cc:Work>
  </rdf:RDF>
 </metadata>
 <defs>
  <style type="text/css">*{stroke-linejoin: round; stroke-linecap: butt}</style>
 </defs>
 <g id="figure_1">
  <g id="patch_1">
   <path d="M 0 440.429375 
L 554.549375 440.429375 
L 554.549375 0 
L 0 0 
z
" style="fill: #ffffff"/>
  </g>
  <g id="axes_1">
   <g id="patch_2">
    <path d="M 37.949375 402.48 
L 540.149375 402.48 
L 540.149375 14.4 
L 37.949375 14.4 
z
" style="fill: #ffffff"/>
   </g>
   <g id="line2d_1">
    <path d="M 181.435089 402.48 
L 181.435089 274.968 
" clip-path="url(#pb086a6bd48)" style="fill: none; stroke-dasharray: 2.59,1.12; stroke-dashoffset: 0; stroke: #999999; stroke-opacity: 0.4; stroke-width: 0.7"/>
   </g>
   <g id="line2d_2">
    <path d="M 37.949375 274.968 
L 181.435089 274.968 
" clip-path="url(#pb086a6bd48)" style="fill: none; stroke-dasharray: 2.59,1.12; stroke-dashoffset: 0; stroke: #999999; stroke-opacity: 0.4; stroke-width: 0.7"/>
   </g>
   <g id="PolyCollection_1">
    <defs>
     <path id="me04c0a1b7d" d="M 181.578575 -165.550079 
L 181.578575 -276.230495 
L 182.380066 -275.611135 
L 183.181557 -274.991775 
L 183.983048 -274.372415 
L 184.784539 -273.753055 
L 185.58603 -273.133695 
L 186.38752 -272.514335 
L 187.189011 -271.894975 
L 187.990502 -271.275615 
L 188.791993 -270.656255 
L 189.593484 -270.036895 
L 190.394975 -269.417535 
L 191.196466 -268.798175 
L 191.997957 -268.178815 
L 192.799448 -267.559455 
L 193.600939 -266.940095 
L 194.40243 -266.320735 
L 195.20392 -265.701375 
L 196.005411 -265.082015 
L 196.806902 -264.462655 
L 197.608393 -263.843295 
L 198.409884 -263.223935 
L 199.211375 -262.604575 
L 200.012866 -261.985215 
L 200.814357 -261.365855 
L 201.615848 -260.746495 
L 202.417339 -260.127135 
L 203.21883 -259.507775 
L 204.02032 -258.888415 
L 204.821811 -258.269055 
L 205.623302 -257.649695 
L 206.424793 -257.030335 
L 207.226284 -256.410975 
L 208.027775 -255.791615 
L 208.829266 -255.172255 
L 209.630757 -254.552895 
L 210.432248 -253.933535 
L 211.233739 -253.314175 
L 212.03523 -252.694815 
L 212.83672 -252.075455 
L 213.638211 -251.456095 
L 214.439702 -250.836735 
L 215.241193 -250.217375 
L 216.042684 -249.598015 
L 216.844175 -248.978655 
L 217.645666 -248.359295 
L 218.447157 -247.739935 
L 219.248648 -247.120575 
L 220.050139 -246.501215 
L 220.85163 -245.881855 
L 221.65312 -245.262495 
L 222.454611 -244.643135 
L 223.256102 -244.023775 
L 224.057593 -243.404415 
L 224.859084 -242.785055 
L 225.660575 -242.165695 
L 226.462066 -241.546335 
L 227.263557 -240.926975 
L 228.065048 -240.307615 
L 228.866539 -239.688255 
L 229.66803 -239.068895 
L 230.46952 -238.449535 
L 231.271011 -237.830175 
L 232.072502 -237.210815 
L 232.873993 -236.591455 
L 233.675484 -235.972095 
L 234.476975 -235.352735 
L 235.278466 -234.733375 
L 236.079957 -234.114015 
L 236.881448 -233.494655 
L 237.682939 -232.875295 
L 238.48443 -232.255935 
L 239.28592 -231.636575 
L 240.087411 -231.017215 
L 240.888902 -230.397855 
L 241.690393 -229.778495 
L 242.491884 -229.159135 
L 243.293375 -228.539775 
L 244.094866 -227.920415 
L 244.896357 -227.301055 
L 245.697848 -226.681695 
L 246.499339 -226.062335 
L 247.30083 -225.442975 
L 248.10232 -224.823615 
L 248.903811 -224.204255 
L 249.705302 -223.584895 
L 250.506793 -222.965535 
L 251.308284 -222.346175 
L 252.109775 -221.726815 
L 252.911266 -221.107455 
L 253.712757 -220.488095 
L 254.514248 -219.868735 
L 255.315739 -219.249375 
L 256.11723 -218.630015 
L 256.91872 -218.010655 
L 257.720211 -217.391295 
L 258.521702 -216.771935 
L 259.323193 -216.152575 
L 260.124684 -215.533215 
L 260.926175 -214.913855 
L 260.926175 -214.603391 
L 260.926175 -214.603391 
L 260.124684 -214.107903 
L 259.323193 -213.612415 
L 258.521702 -213.116927 
L 257.720211 -212.621439 
L 256.91872 -212.125951 
L 256.11723 -211.630463 
L 255.315739 -211.134975 
L 254.514248 -210.639487 
L 253.712757 -210.143999 
L 252.911266 -209.648511 
L 252.109775 -209.153023 
L 251.308284 -208.657535 
L 250.506793 -208.162047 
L 249.705302 -207.666559 
L 248.903811 -207.171071 
L 248.10232 -206.675583 
L 247.30083 -206.180095 
L 246.499339 -205.684607 
L 245.697848 -205.189119 
L 244.896357 -204.693631 
L 244.094866 -204.198143 
L 243.293375 -203.702655 
L 242.491884 -203.207167 
L 241.690393 -202.711679 
L 240.888902 -202.216191 
L 240.087411 -201.720703 
L 239.28592 -201.225215 
L 238.48443 -200.729727 
L 237.682939 -200.234239 
L 236.881448 -199.738751 
L 236.079957 -199.243263 
L 235.278466 -198.747775 
L 234.476975 -198.252287 
L 233.675484 -197.756799 
L 232.873993 -197.261311 
L 232.072502 -196.765823 
L 231.271011 -196.270335 
L 230.46952 -195.774847 
L 229.66803 -195.279359 
L 228.866539 -194.783871 
L 228.065048 -194.288383 
L 227.263557 -193.792895 
L 226.462066 -193.297407 
L 225.660575 -192.801919 
L 224.859084 -192.306431 
L 224.057593 -191.810943 
L 223.256102 -191.315455 
L 222.454611 -190.819967 
L 221.65312 -190.324479 
L 220.85163 -189.828991 
L 220.050139 -189.333503 
L 219.248648 -188.838015 
L 218.447157 -188.342527 
L 217.645666 -187.847039 
L 216.844175 -187.351551 
L 216.042684 -186.856063 
L 215.241193 -186.360575 
L 214.439702 -185.865087 
L 213.638211 -185.369599 
L 212.83672 -184.874111 
L 212.03523 -184.378623 
L 211.233739 -183.883135 
L 210.432248 -183.387647 
L 209.630757 -182.892159 
L 208.829266 -182.396671 
L 208.027775 -181.901183 
L 207.226284 -181.405695 
L 206.424793 -180.910207 
L 205.623302 -180.414719 
L 204.821811 -179.919231 
L 204.02032 -179.423743 
L 203.21883 -178.928255 
L 202.417339 -178.432767 
L 201.615848 -177.937279 
L 200.814357 -177.441791 
L 200.012866 -176.946303 
L 199.211375 -176.450815 
L 198.409884 -175.955327 
L 197.608393 -175.459839 
L 196.806902 -174.964351 
L 196.005411 -174.468863 
L 195.20392 -173.973375 
L 194.40243 -173.477887 
L 193.600939 -172.982399 
L 192.799448 -172.486911 
L 191.997957 -171.991423 
L 191.196466 -171.495935 
L 190.394975 -171.000447 
L 189.593484 -170.504959 
L 188.791993 -170.009471 
L 187.990502 -169.513983 
L 187.189011 -169.018495 
L 186.38752 -168.523007 
L 185.58603 -168.027519 
L 184.784539 -167.532031 
L 183.983048 -167.036543 
L 183.181557 -166.541055 
L 182.380066 -166.045567 
L 181.578575 -165.550079 
z
" style="stroke: #f1948a; stroke-opacity: 0.25"/>
    </defs>
    <g clip-path="url(#pb086a6bd48)">
     <use xlink:href="#me04c0a1b7d" x="0" y="440.429375" style="fill: #f1948a; fill-opacity: 0.25; stroke: #f1948a; stroke-opacity: 0.25"/>
    </g>
   </g>
   <g id="matplotlib.axis_1">
    <g id="xtick_1"/>
    <g id="xtick_2"/>
    <g id="xtick_3"/>
    <g id="xtick_4"/>
    <g id="xtick_5"/>
    <g id="xtick_6"/>
    <g id="text_1">
     <!-- Q -->
     <g transform="translate(283.539063 423.117812) scale(0.14 -0.14)">
      <defs>
       <path id="DejaVuSans-51" d="M 2522 4238 
Q 1834 4238 1429 3725 
Q 1025 3213 1025 2328 
Q 1025 1447 1429 934 
Q 1834 422 2522 422 
Q 3209 422 3611 934 
Q 4013 1447 4013 2328 
Q 4013 3213 3611 3725 
Q 3209 4238 2522 4238 
z
M 3406 84 
L 4238 -825 
L 3475 -825 
L 2784 -78 
Q 2681 -84 2626 -87 
Q 2572 -91 2522 -91 
Q 1538 -91 948 567 
Q 359 1225 359 2328 
Q 359 3434 948 4092 
Q 1538 4750 2522 4750 
Q 3503 4750 4090 4092 
Q 4678 3434 4678 2328 
Q 4678 1516 4351 937 
Q 4025 359 3406 84 
z
" transform="scale(0.015625)"/>
      </defs>
      <use xlink:href="#DejaVuSans-51"/>
     </g>
    </g>
   </g>
   <g id="matplotlib.axis_2">
    <g id="ytick_1"/>
    <g id="ytick_2"/>
    <g id="ytick_3"/>
    <g id="ytick_4"/>
    <g id="ytick_5"/>
    <g id="ytick_6"/>
    <g id="text_2">
     <!-- P/Cost -->
     <g transform="translate(25.037813 230.580781) rotate(-90) scale(0.14 -0.14)">
      <defs>
       <path id="DejaVuSans-50" d="M 1259 4147 
L 1259 2394 
L 2053 2394 
Q 2494 2394 2734 2622 
Q 2975 2850 2975 3272 
Q 2975 3691 2734 3919 
Q 2494 4147 2053 4147 
L 1259 4147 
z
M 628 4666 
L 2053 4666 
Q 2838 4666 3239 4311 
Q 3641 3956 3641 3272 
Q 3641 2581 3239 2228 
Q 2838 1875 2053 1875 
L 1259 1875 
L 1259 0 
L 628 0 
L 628 4666 
z
" transform="scale(0.015625)"/>
       <path id="DejaVuSans-2f" d="M 1625 4666 
L 2156 4666 
L 531 -594 
L 0 -594 
L 1625 4666 
z
" transform="scale(0.015625)"/>
       <path id="DejaVuSans-43" d="M 4122 4306 
L 4122 3641 
Q 3803 3938 3442 4084 
Q 3081 4231 2675 4231 
Q 1875 4231 1450 3742 
Q 1025 3253 1025 2328 
Q 1025 1406 1450 917 
Q 1875 428 2675 428 
Q 3081 428 3442 575 
Q 3803 722 4122 1019 
L 4122 359 
Q 3791 134 3420 21 
Q 3050 -91 2638 -91 
Q 1578 -91 968 557 
Q 359 1206 359 2328 
Q 359 3453 968 4101 
Q 1578 4750 2638 4750 
Q 3056 4750 3426 4639 
Q 3797 4528 4122 4306 
z
" transform="scale(0.015625)"/>
       <path id="DejaVuSans-6f" d="M 1959 3097 
Q 1497 3097 1228 2736 
Q 959 2375 959 1747 
Q 959 1119 1226 758 
Q 1494 397 1959 397 
Q 2419 397 2687 759 
Q 2956 1122 2956 1747 
Q 2956 2369 2687 2733 
Q 2419 3097 1959 3097 
z
M 1959 3584 
Q 2709 3584 3137 3096 
Q 3566 2609 3566 1747 
Q 3566 888 3137 398 
Q 2709 -91 1959 -91 
Q 1206 -91 779 398 
Q 353 888 353 1747 
Q 353 2609 779 3096 
Q 1206 3584 1959 3584 
z
" transform="scale(0.015625)"/>
       <path id="DejaVuSans-73" d="M 2834 3397 
L 2834 2853 
Q 2591 2978 2328 3040 
Q 2066 3103 1784 3103 
Q 1356 3103 1142 2972 
Q 928 2841 928 2578 
Q 928 2378 1081 2264 
Q 1234 2150 1697 2047 
L 1894 2003 
Q 2506 1872 2764 1633 
Q 3022 1394 3022 966 
Q 3022 478 2636 193 
Q 2250 -91 1575 -91 
Q 1294 -91 989 -36 
Q 684 19 347 128 
L 347 722 
Q 666 556 975 473 
Q 1284 391 1588 391 
Q 1994 391 2212 530 
Q 2431 669 2431 922 
Q 2431 1156 2273 1281 
Q 2116 1406 1581 1522 
L 1381 1569 
Q 847 1681 609 1914 
Q 372 2147 372 2553 
Q 372 3047 722 3315 
Q 1072 3584 1716 3584 
Q 2034 3584 2315 3537 
Q 2597 3491 2834 3397 
z
" transform="scale(0.015625)"/>
       <path id="DejaVuSans-74" d="M 1172 4494 
L 1172 3500 
L 2356 3500 
L 2356 3053 
L 1172 3053 
L 1172 1153 
Q 1172 725 1289 603 
Q 1406 481 1766 481 
L 2356 481 
L 2356 0 
L 1766 0 
Q 1100 0 847 248 
Q 594 497 594 1153 
L 594 3053 
L 172 3053 
L 172 3500 
L 594 3500 
L 594 4494 
L 1172 4494 
z
" transform="scale(0.015625)"/>
      </defs>
      <use xlink:href="#DejaVuSans-50"/>
      <use xlink:href="#DejaVuSans-2f" x="60.302734"/>
      <use xlink:href="#DejaVuSans-43" x="93.994141"/>
      <use xlink:href="#DejaVuSans-6f" x="163.818359"/>
      <use xlink:href="#DejaVuSans-73" x="225"/>
      <use xlink:href="#DejaVuSans-74" x="277.099609"/>
     </g>
    </g>
   </g>
   <g id="line2d_3">
    <path d="M 37.949375 53.208 
L 489.677013 402.284985 
L 489.677013 402.284985 
" clip-path="url(#pb086a6bd48)" style="fill: none; stroke: #2b5b84; stroke-width: 2; stroke-linecap: square"/>
   </g>
   <g id="line2d_4">
    <path d="M 37.949375 53.208 
L 40.472993 57.108302 
L 42.996611 61.008603 
L 45.520229 64.908905 
L 48.043847 68.809206 
L 50.567465 72.709508 
L 53.091084 76.609809 
L 55.614702 80.510111 
L 58.13832 84.410412 
L 60.661938 88.310714 
L 63.185556 92.211015 
L 65.709174 96.111317 
L 68.232792 100.011618 
L 70.75641 103.91192 
L 73.280028 107.812221 
L 75.803646 111.712523 
L 78.327264 115.612824 
L 80.850883 119.513126 
L 83.374501 123.413427 
L 85.898119 127.313729 
L 88.421737 131.21403 
L 90.945355 135.114332 
L 93.468973 139.014633 
L 95.992591 142.914935 
L 98.516209 146.815236 
L 101.039827 150.715538 
L 103.563445 154.615839 
L 106.087063 158.516141 
L 108.610682 162.416442 
L 111.1343 166.316744 
L 113.657918 170.217045 
L 116.181536 174.117347 
L 118.705154 178.017648 
L 121.228772 181.91795 
L 123.75239 185.818251 
L 126.276008 189.718553 
L 128.799626 193.618854 
L 131.323244 197.519156 
L 133.846862 201.419457 
L 136.370481 205.319759 
L 138.894099 209.22006 
L 141.417717 213.120362 
L 143.941335 217.020663 
L 146.464953 220.920965 
L 148.988571 224.821266 
L 151.512189 228.721568 
L 154.035807 232.621869 
L 156.559425 236.522171 
L 159.083043 240.422472 
L 161.606661 244.322774 
L 164.13028 248.223075 
L 166.653898 252.123377 
L 169.177516 256.023678 
L 171.701134 259.92398 
L 174.224752 263.824281 
L 176.74837 267.724583 
L 179.271988 271.624884 
L 181.795606 275.525186 
L 184.319224 279.425487 
L 186.842842 283.325789 
L 189.36646 287.22609 
L 191.890079 291.126392 
L 194.413697 295.026693 
L 196.937315 298.926995 
L 199.460933 302.827296 
L 201.984551 306.727598 
L 204.508169 310.627899 
L 207.031787 314.528201 
L 209.555405 318.428503 
L 212.079023 322.328804 
L 214.602641 326.229106 
L 217.126259 330.129407 
L 219.649878 334.029709 
L 222.173496 337.93001 
L 224.697114 341.830312 
L 227.220732 345.730613 
L 229.74435 349.630915 
L 232.267968 353.531216 
L 234.791586 357.431518 
L 237.315204 361.331819 
L 239.838822 365.232121 
L 242.36244 369.132422 
L 244.886058 373.032724 
L 247.409677 376.933025 
L 249.933295 380.833327 
L 252.456913 384.733628 
L 254.980531 388.63393 
L 257.504149 392.534231 
L 260.027767 396.434533 
L 262.551385 400.334834 
" clip-path="url(#pb086a6bd48)" style="fill: none; stroke-dasharray: 7.4,3.2; stroke-dashoffset: 0; stroke: #4c9bcf; stroke-width: 2"/>
   </g>
   <g id="line2d_5">
    <path d="M 37.949375 363.672 
L 540.149375 53.208 
L 540.149375 53.208 
" clip-path="url(#pb086a6bd48)" style="fill: none; stroke: #c44e52; stroke-width: 2; stroke-linecap: square"/>
   </g>
   <g id="patch_3">
    <path d="M 37.949375 402.48 
L 37.949375 14.4 
" style="fill: none; stroke: #000000; stroke-width: 0.8; stroke-linejoin: miter; stroke-linecap: square"/>
   </g>
   <g id="patch_4">
    <path d="M 37.949375 402.48 
L 540.149375 402.48 
" style="fill: none; stroke: #000000; stroke-width: 0.8; stroke-linejoin: miter; stroke-linecap: square"/>
   </g>
   <g id="text_3">
    <g id="patch_5">
     <path d="M 359.401636 294.056532 
L 391.521949 294.056532 
Q 392.521949 294.056532 392.521949 293.056532 
L 392.521949 283.378407 
Q 392.521949 282.378407 391.521949 282.378407 
L 359.401636 282.378407 
Q 358.401636 282.378407 358.401636 283.378407 
L 358.401636 293.056532 
Q 358.401636 294.056532 359.401636 294.056532 
z
" style="fill: #ffffff; opacity: 0.85"/>
    </g>
    <!-- D=AR -->
    <g style="fill: #2b5b84" transform="translate(359.401636 290.976844) scale(0.1 -0.1)">
     <defs>
      <path id="DejaVuSans-Bold-44" d="M 1791 3756 
L 1791 909 
L 2222 909 
Q 2959 909 3348 1275 
Q 3738 1641 3738 2338 
Q 3738 3031 3350 3393 
Q 2963 3756 2222 3756 
L 1791 3756 
z
M 588 4666 
L 1856 4666 
Q 2919 4666 3439 4514 
Q 3959 4363 4331 4000 
Q 4659 3684 4818 3271 
Q 4978 2859 4978 2338 
Q 4978 1809 4818 1395 
Q 4659 981 4331 666 
Q 3956 303 3431 151 
Q 2906 0 1856 0 
L 588 0 
L 588 4666 
z
" transform="scale(0.015625)"/>
      <path id="DejaVuSans-Bold-3d" d="M 678 3084 
L 4684 3084 
L 4684 2350 
L 678 2350 
L 678 3084 
z
M 678 1663 
L 4684 1663 
L 4684 922 
L 678 922 
L 678 1663 
z
" transform="scale(0.015625)"/>
      <path id="DejaVuSans-Bold-41" d="M 3419 850 
L 1538 850 
L 1241 0 
L 31 0 
L 1759 4666 
L 3194 4666 
L 4922 0 
L 3713 0 
L 3419 850 
z
M 1838 1716 
L 3116 1716 
L 2478 3572 
L 1838 1716 
z
" transform="scale(0.015625)"/>
      <path id="DejaVuSans-Bold-52" d="M 2297 2597 
Q 2675 2597 2839 2737 
Q 3003 2878 3003 3200 
Q 3003 3519 2839 3656 
Q 2675 3794 2297 3794 
L 1791 3794 
L 1791 2597 
L 2297 2597 
z
M 1791 1766 
L 1791 0 
L 588 0 
L 588 4666 
L 2425 4666 
Q 3347 4666 3776 4356 
Q 4206 4047 4206 3378 
Q 4206 2916 3982 2619 
Q 3759 2322 3309 2181 
Q 3556 2125 3751 1926 
Q 3947 1728 4147 1325 
L 4800 0 
L 3519 0 
L 2950 1159 
Q 2778 1509 2601 1637 
Q 2425 1766 2131 1766 
L 1791 1766 
z
" transform="scale(0.015625)"/>
     </defs>
     <use xlink:href="#DejaVuSans-Bold-44"/>
     <use xlink:href="#DejaVuSans-Bold-3d" x="83.007812"/>
     <use xlink:href="#DejaVuSans-Bold-41" x="166.796875"/>
     <use xlink:href="#DejaVuSans-Bold-52" x="244.189453"/>
    </g>
   </g>
   <g id="text_4">
    <g id="patch_6">
     <path d="M 200.413697 292.106381 
L 218.065259 292.106381 
Q 219.065259 292.106381 219.065259 291.106381 
L 219.065259 281.428256 
Q 219.065259 280.428256 218.065259 280.428256 
L 200.413697 280.428256 
Q 199.413697 280.428256 199.413697 281.428256 
L 199.413697 291.106381 
Q 199.413697 292.106381 200.413697 292.106381 
z
" style="fill: #ffffff; opacity: 0.85"/>
    </g>
    <!-- MR -->
    <g style="fill: #4c9bcf" transform="translate(200.413697 289.026693) scale(0.1 -0.1)">
     <defs>
      <path id="DejaVuSans-Bold-4d" d="M 588 4666 
L 2119 4666 
L 3181 2169 
L 4250 4666 
L 5778 4666 
L 5778 0 
L 4641 0 
L 4641 3413 
L 3566 897 
L 2803 897 
L 1728 3413 
L 1728 0 
L 588 0 
L 588 4666 
z
" transform="scale(0.015625)"/>
     </defs>
     <use xlink:href="#DejaVuSans-Bold-4d"/>
     <use xlink:href="#DejaVuSans-Bold-52" x="99.511719"/>
    </g>
   </g>
   <g id="text_5">
    <g id="patch_7">
     <path d="M 397.255908 142.334803 
L 414.546533 142.334803 
Q 415.546533 142.334803 415.546533 141.334803 
L 415.546533 131.656678 
Q 415.546533 130.656678 414.546533 130.656678 
L 397.255908 130.656678 
Q 396.255908 130.656678 396.255908 131.656678 
L 396.255908 141.334803 
Q 396.255908 142.334803 397.255908 142.334803 
z
" style="fill: #ffffff; opacity: 0.85"/>
    </g>
    <!-- MC -->
    <g style="fill: #c44e52" transform="translate(397.255908 139.255116) scale(0.1 -0.1)">
     <defs>
      <path id="DejaVuSans-Bold-43" d="M 4288 256 
Q 3956 84 3597 -3 
Q 3238 -91 2847 -91 
Q 1681 -91 1000 561 
Q 319 1213 319 2328 
Q 319 3447 1000 4098 
Q 1681 4750 2847 4750 
Q 3238 4750 3597 4662 
Q 3956 4575 4288 4403 
L 4288 3438 
Q 3953 3666 3628 3772 
Q 3303 3878 2944 3878 
Q 2300 3878 1931 3465 
Q 1563 3053 1563 2328 
Q 1563 1606 1931 1193 
Q 2300 781 2944 781 
Q 3303 781 3628 887 
Q 3953 994 4288 1222 
L 4288 256 
z
" transform="scale(0.015625)"/>
     </defs>
     <use xlink:href="#DejaVuSans-Bold-4d"/>
     <use xlink:href="#DejaVuSans-Bold-43" x="99.511719"/>
    </g>
   </g>
   <g id="text_6">
    <g id="patch_8">
     <path d="M 189.435089 294.455656 
L 210.249152 294.455656 
Q 212.449152 294.455656 212.449152 292.255656 
L 212.449152 281.609719 
Q 212.449152 279.409719 210.249152 279.409719 
L 189.435089 279.409719 
Q 187.235089 279.409719 187.235089 281.609719 
L 187.235089 292.255656 
Q 187.235089 294.455656 189.435089 294.455656 
z
" style="fill: #ffffff; opacity: 0.8"/>
    </g>
    <!-- Qm -->
    <g transform="translate(189.435089 289.968) scale(0.11 -0.11)">
     <defs>
      <path id="DejaVuSans-Bold-51" d="M 2847 -84 
L 2753 -84 
Q 1600 -84 959 553 
Q 319 1191 319 2328 
Q 319 3463 958 4106 
Q 1597 4750 2719 4750 
Q 3853 4750 4486 4112 
Q 5119 3475 5119 2328 
Q 5119 1541 4783 972 
Q 4447 403 3816 116 
L 4756 -934 
L 3609 -934 
L 2847 -84 
z
M 2719 3878 
Q 2169 3878 1866 3472 
Q 1563 3066 1563 2328 
Q 1563 1578 1859 1179 
Q 2156 781 2719 781 
Q 3272 781 3575 1187 
Q 3878 1594 3878 2328 
Q 3878 3066 3575 3472 
Q 3272 3878 2719 3878 
z
" transform="scale(0.015625)"/>
      <path id="DejaVuSans-Bold-6d" d="M 3781 2919 
Q 3994 3244 4286 3414 
Q 4578 3584 4928 3584 
Q 5531 3584 5847 3212 
Q 6163 2841 6163 2131 
L 6163 0 
L 5038 0 
L 5038 1825 
Q 5041 1866 5042 1909 
Q 5044 1953 5044 2034 
Q 5044 2406 4934 2573 
Q 4825 2741 4581 2741 
Q 4263 2741 4089 2478 
Q 3916 2216 3909 1719 
L 3909 0 
L 2784 0 
L 2784 1825 
Q 2784 2406 2684 2573 
Q 2584 2741 2328 2741 
Q 2006 2741 1831 2477 
Q 1656 2213 1656 1722 
L 1656 0 
L 531 0 
L 531 3500 
L 1656 3500 
L 1656 2988 
Q 1863 3284 2130 3434 
Q 2397 3584 2719 3584 
Q 3081 3584 3359 3409 
Q 3638 3234 3781 2919 
z
" transform="scale(0.015625)"/>
     </defs>
     <use xlink:href="#DejaVuSans-Bold-51"/>
     <use xlink:href="#DejaVuSans-Bold-6d" x="85.009766"/>
    </g>
   </g>
   <g id="text_7">
    <!-- DWL -->
    <g style="fill: #f1948a; opacity: 0.8" transform="translate(208.319656 191.519437) scale(0.09 -0.09)">
     <defs>
      <path id="DejaVuSans-44" d="M 1259 4147 
L 1259 519 
L 2022 519 
Q 2988 519 3436 956 
Q 3884 1394 3884 2338 
Q 3884 3275 3436 3711 
Q 2988 4147 2022 4147 
L 1259 4147 
z
M 628 4666 
L 1925 4666 
Q 3281 4666 3915 4102 
Q 4550 3538 4550 2338 
Q 4550 1131 3912 565 
Q 3275 0 1925 0 
L 628 0 
L 628 4666 
z
" transform="scale(0.015625)"/>
      <path id="DejaVuSans-57" d="M 213 4666 
L 850 4666 
L 1831 722 
L 2809 4666 
L 3519 4666 
L 4500 722 
L 5478 4666 
L 6119 4666 
L 4947 0 
L 4153 0 
L 3169 4050 
L 2175 0 
L 1381 0 
L 213 4666 
z
" transform="scale(0.015625)"/>
      <path id="DejaVuSans-4c" d="M 628 4666 
L 1259 4666 
L 1259 531 
L 3531 531 
L 3531 0 
L 628 0 
L 628 4666 
z
" transform="scale(0.015625)"/>
     </defs>
     <use xlink:href="#DejaVuSans-44"/>
     <use xlink:href="#DejaVuSans-57" x="77.001953"/>
     <use xlink:href="#DejaVuSans-4c" x="175.878906"/>
    </g>
   </g>
   <g id="line2d_6">
    <defs>
     <path id="m12595baaa2" d="M 0 4 
C 1.060812 4 2.078319 3.578535 2.828427 2.828427 
C 3.578535 2.078319 4 1.060812 4 0 
C 4 -1.060812 3.578535 -2.078319 2.828427 -2.828427 
C 2.078319 -3.578535 1.060812 -4 0 -4 
C -1.060812 -4 -2.078319 -3.578535 -2.828427 -2.828427 
C -3.578535 -2.078319 -4 -1.060812 -4 0 
C -4 1.060812 -3.578535 2.078319 -2.828427 2.828427 
C -2.078319 3.578535 -1.060812 4 0 4 
z
" style="stroke: #ffffff; stroke-width: 1.5"/>
    </defs>
    <g clip-path="url(#pb086a6bd48)">
     <use xlink:href="#m12595baaa2" x="181.435089" y="274.968" style="fill: #1a1a1a; stroke: #ffffff; stroke-width: 1.5"/>
    </g>
   </g>
  </g>
 </g>
 <defs>
  <clipPath id="pb086a6bd48">
   <rect x="37.949375" y="14.4" width="502.2" height="388.08"/>
  </clipPath>
 </defs>
</svg>
